<svg width="20" height="14" viewBox="0 0 20 14" fill="none" xmlns="http://www.w3.org/2000/svg">
<path d="M10.3839 5.30529C10.9195 4.55407 11.8544 4.40754 11.864 4.40626C11.9107 4.39986 11.9439 4.35827 11.9407 4.31092C11.9369 4.26357 11.8985 4.22773 11.8505 4.22773C11.1684 4.22773 10.5477 4.47984 10.103 4.938C9.7818 5.27073 9.57896 5.69433 9.51049 6.15952C9.50857 6.16976 9.50793 6.18 9.50793 6.19088L9.50729 10.439C9.50729 10.6099 9.3678 10.75 9.19695 10.75H7.81098C7.63949 10.75 7.5 10.6099 7.5 10.439V3.57698C7.5 3.39013 7.64013 3.25 7.81162 3.25H9.19631C9.36716 3.25 9.50729 3.39013 9.50729 3.57698V4.93928C9.51561 4.00569 10.2751 3.25 11.2106 3.25H12.8711C12.9262 3.25 12.9709 3.29479 12.9709 3.35046V4.47153C12.9709 5.41214 12.2089 6.17488 11.2676 6.17488H10.0378C10.0896 5.84726 10.2048 5.55676 10.3839 5.30529Z" fill="#3A474E"/>
<path fill-rule="evenodd" clip-rule="evenodd" d="M19.3457 0.125C19.7065 0.125 20 0.423794 20 0.789999V8.48668C20 11.4582 17.619 13.875 14.6924 13.875H0.654252C0.293471 13.875 0 13.5771 0 13.2109V5.51332C0 2.54268 2.38097 0.125 5.30761 0.125H19.3457ZM14.6915 12.964C17.1236 12.964 19.1025 10.9554 19.1025 8.48668V1.03596H5.3085C2.87637 1.03596 0.897465 3.04462 0.897465 5.51332V12.964H14.6915Z" fill="#3A474E"/>
</svg>
