<svg width="133" height="70" viewBox="0 0 133 70" fill="none" xmlns="http://www.w3.org/2000/svg">
<path d="M0 20C0 8.9543 8.9543 0 20 0H133V50C133 61.0457 124.046 70 113 70H0V20Z" fill="#FD6400"/>
<g clip-path="url(#clip0_222_8218)">
<path d="M43.4631 48.0037H43.9816V47.3931C43.9816 46.974 44.1084 46.6438 44.3622 46.3995C44.6159 46.1553 44.944 46.0332 45.3494 46.0332C45.5425 46.0332 45.7355 46.0665 45.9341 46.1331C46.1299 46.1997 46.2898 46.2913 46.4139 46.4023C46.4498 46.4356 46.4718 46.4772 46.4746 46.5272C46.4773 46.5772 46.4635 46.6271 46.4305 46.6771L46.1271 47.0961C46.094 47.1489 46.0526 47.1766 46.0002 47.1794C45.9479 47.1822 45.8872 47.16 45.8238 47.11C45.7603 47.0684 45.6969 47.0351 45.6307 47.0129C45.5673 46.9907 45.5066 46.9796 45.4459 46.9796C45.3191 46.9796 45.2143 47.024 45.1343 47.1156C45.0543 47.2071 45.013 47.3265 45.013 47.4791V48.0009H45.7714C45.8182 48.0009 45.8596 48.0175 45.8927 48.0481C45.9258 48.0786 45.9396 48.1202 45.9396 48.1702V48.7003C45.9396 48.7447 45.923 48.7807 45.8872 48.8168C45.8513 48.8529 45.8127 48.8695 45.7714 48.8695H45.013V51.7114C45.013 51.7531 44.9964 51.7919 44.9661 51.828C44.933 51.8641 44.8972 51.8807 44.853 51.8807H44.1498C44.1057 51.8807 44.0698 51.8641 44.034 51.828C43.9981 51.7919 43.9816 51.7531 43.9816 51.7114V48.8695H43.4631C43.4163 48.8695 43.3749 48.8529 43.3418 48.8224C43.3087 48.7918 43.2949 48.7502 43.2949 48.7003V48.1702C43.2949 48.123 43.3115 48.0814 43.3418 48.0481C43.3749 48.0148 43.4135 48.0009 43.4631 48.0009V48.0037Z" fill="white"/>
<path d="M48.4298 47.9561H48.5429C48.6008 47.9561 48.6476 47.9727 48.678 48.0088C48.7111 48.0449 48.7249 48.092 48.7249 48.1586V48.8497C48.7249 48.9135 48.7056 48.9635 48.6697 48.9996C48.6311 49.0356 48.587 49.0523 48.5346 49.0523H48.3415C48.0685 49.0523 47.8672 49.13 47.7348 49.2826C47.6025 49.4353 47.5335 49.6712 47.5335 49.9876V51.7332C47.5335 51.7748 47.517 51.8137 47.4811 51.8415C47.4453 51.872 47.4067 51.8859 47.3653 51.8859H46.6621C46.618 51.8859 46.5821 51.8692 46.549 51.8387C46.5159 51.8054 46.5021 51.7693 46.5021 51.7249V48.1753C46.5021 48.1281 46.5187 48.0865 46.549 48.0532C46.5821 48.0199 46.618 48.006 46.6621 48.006H47.3267C47.3681 48.006 47.4067 48.0227 47.4398 48.0532C47.4729 48.0865 47.4866 48.1198 47.4866 48.1586V48.5278C47.5942 48.3446 47.7266 48.2058 47.8893 48.1059C48.052 48.006 48.2312 47.9561 48.4298 47.9561Z" fill="white"/>
<path d="M51.0769 51.9974C50.495 51.9974 50.0042 51.8003 49.6043 51.4062C49.2044 51.0122 49.0059 50.5265 49.0059 49.9548C49.0059 49.3831 49.2072 48.8946 49.6043 48.495C50.0042 48.0953 50.495 47.8955 51.0769 47.8955C51.6588 47.8955 52.1497 48.0953 52.5495 48.495C52.9494 48.8946 53.148 49.3831 53.148 49.9548C53.148 50.5265 52.9466 51.0122 52.5495 51.4062C52.1497 51.8003 51.6588 51.9974 51.0769 51.9974ZM51.0769 48.8585C50.7846 48.8585 50.5392 48.964 50.3406 49.1721C50.142 49.3803 50.0455 49.6384 50.0455 49.9437C50.0455 50.2489 50.1448 50.507 50.3406 50.7152C50.5364 50.9233 50.7818 51.0288 51.0769 51.0288C51.372 51.0288 51.6147 50.9233 51.8132 50.7152C52.009 50.507 52.1083 50.2489 52.1083 49.9437C52.1083 49.6384 52.009 49.3803 51.8132 49.1721C51.6147 48.964 51.372 48.8585 51.0769 48.8585Z" fill="white"/>
<path d="M55.7405 48.8499C55.473 48.8499 55.2607 48.9359 55.1035 49.108C54.9463 49.2801 54.8663 49.5049 54.8663 49.7852V51.7334C54.8663 51.775 54.8498 51.8139 54.814 51.8417C54.7781 51.8722 54.7395 51.8861 54.6981 51.8861H53.9949C53.9508 51.8861 53.9149 51.8694 53.8818 51.8389C53.8487 51.8056 53.835 51.7695 53.835 51.7251V48.1755C53.835 48.1283 53.8515 48.0867 53.8818 48.0534C53.9149 48.0201 53.9508 48.0062 53.9949 48.0062H54.6981C54.7395 48.0062 54.7781 48.0229 54.814 48.0534C54.8498 48.0867 54.8663 48.12 54.8663 48.1589V48.4641C54.9849 48.2921 55.1504 48.1533 55.371 48.0506C55.5889 47.9452 55.8205 47.8924 56.066 47.8924C56.3417 47.8924 56.5899 47.9535 56.805 48.0728C57.0201 48.1922 57.1856 48.3614 57.2959 48.5751C57.4614 48.3559 57.6599 48.1866 57.8943 48.0673C58.1287 47.9507 58.3852 47.8896 58.661 47.8896C59.1684 47.8896 59.5683 48.0423 59.8633 48.3476C60.1584 48.6529 60.3073 49.0469 60.3073 49.5298V51.7279C60.3073 51.7695 60.2908 51.8083 60.2605 51.8361C60.2274 51.8666 60.1888 51.8805 60.1391 51.8805H59.4442C59.3973 51.8805 59.3559 51.8666 59.3228 51.8361C59.2897 51.8056 59.2759 51.7695 59.2759 51.7279V49.7796C59.2759 49.491 59.2015 49.2606 59.0553 49.0941C58.9092 48.9276 58.7079 48.8443 58.4514 48.8443C58.1949 48.8443 57.9798 48.9304 57.8226 49.1024C57.6654 49.2745 57.5855 49.4993 57.5855 49.7796V51.7279C57.5855 51.7695 57.5689 51.8083 57.5331 51.8361C57.4972 51.8666 57.4586 51.8805 57.4172 51.8805H56.7223C56.6782 51.8805 56.6423 51.8666 56.6065 51.8361C56.5706 51.8056 56.5541 51.7695 56.5541 51.7279V49.7796C56.5541 49.491 56.4796 49.2606 56.3335 49.0941C56.1873 48.9276 55.986 48.8443 55.7295 48.8443L55.7405 48.8499Z" fill="white"/>
<path d="M67.4722 51.7144L66.4739 47.8678L65.4674 51.7144C65.4508 51.7616 65.4232 51.8032 65.3846 51.8365C65.3433 51.8698 65.3019 51.8837 65.2523 51.8837H64.0913C64.0444 51.8837 64.0003 51.8698 63.9589 51.8393C63.9175 51.8087 63.89 51.7671 63.8762 51.7144L62.5249 46.5079C62.5083 46.433 62.5166 46.372 62.5497 46.322C62.5828 46.2748 62.6324 46.2498 62.7014 46.2498H63.5342C63.5728 46.2498 63.6059 46.2665 63.639 46.297C63.6721 46.3303 63.6942 46.3692 63.7107 46.4191L64.709 50.5959L65.8038 46.4025C65.8204 46.3498 65.8424 46.3109 65.8728 46.2859C65.9031 46.2609 65.9417 46.2498 65.9886 46.2498H66.9483C66.9896 46.2498 67.0282 46.2637 67.0641 46.2942C67.0999 46.3248 67.122 46.3609 67.133 46.4025L68.2278 50.5626L69.2261 46.4164C69.2372 46.3692 69.2592 46.3276 69.2896 46.2942C69.3227 46.2609 69.3585 46.2471 69.4026 46.2471H70.1858C70.2603 46.2471 70.3127 46.2693 70.343 46.3109C70.3734 46.3525 70.3761 46.4191 70.3541 46.5052L69.011 51.7116C69 51.7588 68.9697 51.8004 68.9228 51.8337C68.8759 51.867 68.8318 51.8809 68.7959 51.8809H67.6928C67.646 51.8809 67.6018 51.867 67.5605 51.8365C67.5191 51.806 67.4915 51.7643 67.4777 51.7116H67.4722V51.7144Z" fill="white"/>
<path d="M72.5105 51.9974C71.9286 51.9974 71.4378 51.8003 71.0379 51.4062C70.638 51.0122 70.4395 50.5265 70.4395 49.9548C70.4395 49.3831 70.6408 48.8946 71.0379 48.495C71.4378 48.0953 71.9286 47.8955 72.5105 47.8955C73.0924 47.8955 73.5833 48.0953 73.9831 48.495C74.383 48.8946 74.5816 49.3831 74.5816 49.9548C74.5816 50.5265 74.3802 51.0122 73.9831 51.4062C73.5833 51.8003 73.0924 51.9974 72.5105 51.9974ZM72.5105 48.8585C72.2182 48.8585 71.9728 48.964 71.7742 49.1721C71.5756 49.3803 71.4791 49.6384 71.4791 49.9437C71.4791 50.2489 71.5784 50.507 71.7742 50.7152C71.97 50.9233 72.2154 51.0288 72.5105 51.0288C72.8056 51.0288 73.0483 50.9233 73.2468 50.7152C73.4426 50.507 73.5419 50.2489 73.5419 49.9437C73.5419 49.6384 73.4426 49.3803 73.2468 49.1721C73.0483 48.964 72.8056 48.8585 72.5105 48.8585Z" fill="white"/>
<path d="M77.1404 51.9974C76.5586 51.9974 76.0677 51.8003 75.6678 51.4062C75.268 51.0122 75.0694 50.5265 75.0694 49.9548C75.0694 49.3831 75.2707 48.8946 75.6678 48.495C76.0677 48.0953 76.5586 47.8955 77.1404 47.8955C77.7223 47.8955 78.2132 48.0953 78.6131 48.495C79.0129 48.8946 79.2115 49.3831 79.2115 49.9548C79.2115 50.5265 79.0102 51.0122 78.6131 51.4062C78.2132 51.8003 77.7223 51.9974 77.1404 51.9974ZM77.1404 48.8585C76.8481 48.8585 76.6027 48.964 76.4041 49.1721C76.2056 49.3803 76.1091 49.6384 76.1091 49.9437C76.1091 50.2489 76.2083 50.507 76.4041 50.7152C76.5999 50.9233 76.8454 51.0288 77.1404 51.0288C77.4355 51.0288 77.6782 50.9233 77.8768 50.7152C78.0726 50.507 78.1718 50.2489 78.1718 49.9437C78.1718 49.6384 78.0726 49.3803 77.8768 49.1721C77.6782 48.964 77.4355 48.8585 77.1404 48.8585Z" fill="white"/>
<path d="M81.3956 51.8838H80.8827C80.5573 51.8838 80.3118 51.8033 80.1436 51.6396C79.9754 51.4759 79.8926 51.2372 79.8926 50.918V46.4193C79.8926 46.3721 79.9092 46.3305 79.9395 46.2972C79.9726 46.2639 80.0112 46.25 80.0609 46.25H80.7558C80.8027 46.25 80.8441 46.2667 80.8771 46.2972C80.9102 46.3305 80.924 46.3693 80.924 46.4193V50.7182C80.924 50.8153 80.9488 50.8903 81.0012 50.943C81.0509 50.9957 81.1226 51.0235 81.2136 51.0235H81.4452C81.4921 51.0235 81.5307 51.0374 81.5611 51.0651C81.5914 51.0929 81.6052 51.1289 81.6052 51.1789V51.6868C81.6052 51.7506 81.5859 51.8006 81.55 51.8366C81.5114 51.8727 81.4618 51.8894 81.3984 51.8894V51.8838H81.3956Z" fill="white"/>
<path d="M84.7463 49.3888L84.1313 51.7145C84.1203 51.7616 84.0955 51.8033 84.0541 51.8366C84.0127 51.8699 83.9714 51.8838 83.9217 51.8838H83.0255C82.9786 51.8838 82.9345 51.8699 82.8986 51.8393C82.86 51.8088 82.8352 51.7672 82.8186 51.7145L81.7073 48.237C81.6852 48.1676 81.688 48.1121 81.7155 48.0677C81.7431 48.0261 81.79 48.0039 81.8589 48.0039H82.6118C82.6642 48.0039 82.7083 48.0178 82.7387 48.0455C82.7718 48.0733 82.7938 48.1121 82.8104 48.1676L83.4888 50.646L84.1534 48.1676C84.1699 48.1149 84.1947 48.0733 84.2251 48.0455C84.2582 48.0178 84.2995 48.0039 84.3519 48.0039H85.1848C85.2372 48.0039 85.2813 48.0178 85.3171 48.0455C85.353 48.0733 85.3778 48.1121 85.3944 48.1676L86.059 50.646L86.7539 48.1676C86.7705 48.1149 86.7953 48.0733 86.8311 48.0455C86.867 48.0178 86.9083 48.0039 86.9552 48.0039H87.6281C87.697 48.0039 87.7439 48.0261 87.7715 48.0677C87.7991 48.1121 87.8018 48.1676 87.7798 48.237L86.6684 51.7145C86.6519 51.7672 86.6243 51.8088 86.5884 51.8393C86.5498 51.8699 86.5057 51.8838 86.4533 51.8838H85.5819C85.5295 51.8838 85.4826 51.8699 85.4412 51.8393C85.3999 51.8088 85.375 51.7672 85.364 51.7145L84.749 49.3888H84.7463Z" fill="white"/>
<path d="M90.113 51.9974C89.5312 51.9974 89.0403 51.8003 88.6404 51.4062C88.2405 51.0122 88.042 50.5265 88.042 49.9548C88.042 49.3831 88.2433 48.8946 88.6404 48.495C89.0403 48.0953 89.5312 47.8955 90.113 47.8955C90.6949 47.8955 91.1858 48.0953 91.5857 48.495C91.9855 48.8946 92.1841 49.3831 92.1841 49.9548C92.1841 50.5265 91.9828 51.0122 91.5857 51.4062C91.1858 51.8003 90.6949 51.9974 90.113 51.9974ZM90.113 48.8585C89.8207 48.8585 89.5753 48.964 89.3767 49.1721C89.1782 49.3803 89.0817 49.6384 89.0817 49.9437C89.0817 50.2489 89.1809 50.507 89.3767 50.7152C89.5725 50.9233 89.818 51.0288 90.113 51.0288C90.4081 51.0288 90.6508 50.9233 90.8494 50.7152C91.0452 50.507 91.1444 50.2489 91.1444 49.9437C91.1444 49.6384 91.0452 49.3803 90.8494 49.1721C90.6508 48.964 90.4081 48.8585 90.113 48.8585Z" fill="white"/>
<path d="M94.7978 47.957H94.9108C94.9688 47.957 95.0156 47.9737 95.046 48.0098C95.0791 48.0458 95.0928 48.093 95.0928 48.1596V48.8507C95.0928 48.9145 95.0735 48.9645 95.0377 49.0005C94.9991 49.0366 94.955 49.0533 94.9026 49.0533H94.7095C94.4365 49.0533 94.2352 49.131 94.1028 49.2836C93.9704 49.4363 93.9015 49.6722 93.9015 49.9885V51.7342C93.9015 51.7758 93.885 51.8147 93.8491 51.8424C93.8133 51.873 93.7747 51.8868 93.7333 51.8868H93.0301C92.9859 51.8868 92.9501 51.8702 92.917 51.8397C92.8839 51.8063 92.8701 51.7703 92.8701 51.7259V48.1763C92.8701 48.1291 92.8867 48.0875 92.917 48.0542C92.9501 48.0209 92.9859 48.007 93.0301 48.007H93.6947C93.736 48.007 93.7747 48.0236 93.8077 48.0542C93.8408 48.0875 93.8546 48.1208 93.8546 48.1596V48.5287C93.9622 48.3456 94.0945 48.2068 94.2573 48.1069C94.42 48.007 94.5992 47.957 94.7978 47.957Z" fill="white"/>
<path d="M97.8786 50.8876C97.942 50.8515 98.0026 50.8349 98.0578 50.8404C98.113 50.846 98.1571 50.8737 98.1902 50.9209L98.4301 51.315C98.4632 51.3622 98.4742 51.4093 98.4715 51.4565C98.4659 51.5009 98.4439 51.5426 98.408 51.5814C98.2867 51.7035 98.1295 51.8007 97.9392 51.8673C97.7489 51.9339 97.5421 51.9672 97.3187 51.9672C96.9354 51.9672 96.6266 51.8589 96.3921 51.6425C96.1577 51.426 96.0392 51.1263 96.0392 50.746V48.8783H95.5124C95.4711 48.8783 95.4325 48.8616 95.3994 48.8256C95.3663 48.7895 95.3525 48.7506 95.3525 48.709V48.1789C95.3525 48.1317 95.369 48.0901 95.3994 48.0568C95.4297 48.0235 95.4683 48.0096 95.5124 48.0096H96.0392V46.93C96.0392 46.8829 96.0557 46.8412 96.086 46.8079C96.1164 46.7746 96.1577 46.7607 96.2074 46.7607H96.9106C96.952 46.7607 96.9906 46.7774 97.0237 46.8079C97.0568 46.8412 97.0705 46.8801 97.0705 46.93V48.0096H98.1902C98.2371 48.0096 98.2784 48.0263 98.3088 48.0568C98.3391 48.0873 98.3556 48.129 98.3556 48.1789V48.709C98.3556 48.7534 98.3391 48.7895 98.3032 48.8256C98.2674 48.8616 98.2288 48.8783 98.1874 48.8783H97.0678V50.5129C97.0678 50.6739 97.1091 50.796 97.1891 50.882C97.2691 50.9681 97.3766 51.0097 97.509 51.0097C97.5669 51.0097 97.6304 50.9986 97.6938 50.9764C97.7572 50.9542 97.8179 50.9264 97.8786 50.8876Z" fill="white"/>
<path d="M101.932 51.7312V49.8551C101.932 49.5443 101.85 49.2973 101.684 49.1196C101.519 48.9392 101.29 48.8504 100.998 48.8504C100.705 48.8504 100.476 48.942 100.297 49.128C100.118 49.3139 100.03 49.5554 100.03 49.8551V51.7312C100.03 51.7728 100.013 51.8117 99.9772 51.8394C99.9413 51.8699 99.9027 51.8838 99.8613 51.8838H99.1581C99.114 51.8838 99.0781 51.8672 99.0451 51.8366C99.012 51.8033 98.9982 51.7673 98.9982 51.7229V46.411C98.9982 46.3693 99.0147 46.3305 99.0451 46.2972C99.0781 46.2639 99.114 46.25 99.1581 46.25H99.8613C99.9027 46.25 99.9413 46.2639 99.9772 46.2944C100.013 46.3249 100.03 46.361 100.03 46.4026V48.4619C100.156 48.2843 100.333 48.1455 100.556 48.0428C100.78 47.9401 101.031 47.8902 101.309 47.8902C101.806 47.8902 102.205 48.0456 102.509 48.3564C102.812 48.6673 102.964 49.0725 102.964 49.572V51.7284C102.964 51.77 102.947 51.8089 102.917 51.8366C102.884 51.8672 102.845 51.8811 102.796 51.8811H102.101C102.054 51.8811 102.012 51.8672 101.979 51.8366C101.946 51.8061 101.932 51.77 101.932 51.7284V51.7312Z" fill="white"/>
<path d="M103.684 49.1304C103.684 48.7723 103.835 48.4754 104.139 48.2423C104.442 48.0091 104.834 47.8926 105.314 47.8926C105.611 47.8926 105.893 47.937 106.157 48.0258C106.422 48.1146 106.637 48.2339 106.808 48.3838C106.861 48.4282 106.888 48.4754 106.888 48.5337C106.888 48.5919 106.863 48.6475 106.817 48.7057L106.56 49.011C106.513 49.0637 106.458 49.0943 106.4 49.0998C106.342 49.1054 106.276 49.0832 106.199 49.036C106.05 48.9278 105.895 48.8473 105.738 48.7918C105.581 48.7363 105.429 48.7085 105.286 48.7085C105.121 48.7085 104.983 48.7418 104.875 48.8084C104.765 48.875 104.712 48.9583 104.712 49.0526C104.712 49.147 104.751 49.2275 104.828 49.2858C104.905 49.3441 105.03 49.3912 105.201 49.4218L105.832 49.5439C106.221 49.6188 106.513 49.752 106.712 49.9463C106.908 50.1406 107.007 50.3903 107.007 50.7039C107.007 51.0786 106.847 51.3894 106.524 51.6337C106.202 51.8779 105.791 52 105.289 52C105.007 52 104.737 51.9611 104.486 51.8807C104.235 51.8002 104.009 51.6864 103.819 51.5421C103.687 51.4394 103.609 51.345 103.59 51.2534C103.571 51.1619 103.607 51.0786 103.698 51.0037L103.993 50.7622C104.051 50.715 104.108 50.6901 104.164 50.6928C104.219 50.6956 104.282 50.7261 104.351 50.7844C104.506 50.9176 104.666 51.0203 104.828 51.0869C104.991 51.1535 105.159 51.1868 105.336 51.1868C105.523 51.1868 105.672 51.1508 105.782 51.0786C105.895 51.0064 105.951 50.9149 105.951 50.8011C105.951 50.7039 105.907 50.629 105.824 50.5707C105.738 50.5152 105.576 50.4625 105.336 50.4125L104.721 50.2849C104.39 50.2155 104.133 50.0823 103.954 49.8825C103.772 49.6854 103.681 49.4356 103.681 49.1331H103.684V49.1304Z" fill="white"/>
<path fill-rule="evenodd" clip-rule="evenodd" d="M47.4867 22.6099C46.538 22.6099 45.7548 23.2565 45.5397 24.239H49.4143C49.2185 23.1732 48.3857 22.6099 47.4839 22.6099M51.4881 24.819V25.2075C51.4881 25.399 51.4054 25.5628 51.1103 25.5628H45.4901C45.6059 26.659 46.4856 27.3861 47.5501 27.3861C47.9748 27.3861 48.3167 27.289 48.6146 27.1447C48.8931 27.0004 49.1027 26.8227 49.3343 26.5646C49.4502 26.4342 49.5798 26.387 49.759 26.4814L50.92 27.1919C51.0993 27.3056 51.0993 27.4805 51.0028 27.6109C50.6608 28.0605 50.1534 28.4657 49.566 28.7405C48.9951 28.9986 48.3223 29.1595 47.5225 29.1595C45.0544 29.1568 43.3225 27.3806 43.3225 25.0771C43.3225 22.7736 45.0488 20.9336 47.4701 20.9336C49.8914 20.9336 51.4909 22.757 51.4909 24.8218" fill="white"/>
<path fill-rule="evenodd" clip-rule="evenodd" d="M53.9181 28.5684C53.6865 28.5684 53.5375 28.4269 53.4714 28.2354L50.9343 21.422C50.835 21.1667 50.9839 20.9336 51.2486 20.9336H52.8536C53.1018 20.9336 53.2011 21.0751 53.2673 21.25L55.0736 26.4953L56.731 21.25C56.7806 21.0751 56.8965 20.9336 57.1447 20.9336H58.7193C58.9841 20.9336 59.133 21.1723 59.0502 21.422L56.5159 28.2326C56.4663 28.4213 56.298 28.5656 56.0857 28.5656H53.9181V28.5684Z" fill="white"/>
<path fill-rule="evenodd" clip-rule="evenodd" d="M63.2443 22.61C62.2956 22.61 61.5124 23.2567 61.3001 24.2391H65.1747C64.9789 23.1734 64.1461 22.61 63.2443 22.61ZM67.2485 24.8191V25.2077C67.2485 25.3992 67.1658 25.5629 66.8707 25.5629H61.2477C61.3635 26.6592 62.246 27.3863 63.3077 27.3863C63.7324 27.3863 64.0744 27.2891 64.3722 27.1448C64.6507 27.0005 64.8603 26.8229 65.092 26.5648C65.2078 26.4344 65.3374 26.3872 65.5167 26.4815L66.6777 27.192C66.8569 27.3058 66.8569 27.4806 66.7604 27.6111C66.4184 28.0607 65.911 28.4659 65.3236 28.7406C64.7528 28.9987 64.0799 29.1597 63.2801 29.1597C60.812 29.1597 59.0801 27.3835 59.0801 25.08C59.0801 22.7765 60.812 20.9365 63.2333 20.9365C65.6546 20.9365 67.254 22.7599 67.254 24.8247" fill="white"/>
<path fill-rule="evenodd" clip-rule="evenodd" d="M98.9155 31.2658C98.7665 31.1187 98.75 30.869 98.8989 30.6719L99.4091 29.9614C99.6049 29.6978 99.8862 29.7283 100.085 29.8782C100.363 30.0947 100.691 30.2584 101.089 30.2584C101.599 30.2584 101.977 29.9115 102.159 29.4175L102.346 28.8874H101.607C101.392 28.8874 101.262 28.7542 101.196 28.5571L98.7941 21.4441C98.7307 21.1804 98.7776 20.9307 99.1388 20.9307H100.832C101.028 20.9307 101.144 21.0944 101.196 21.2748L102.922 26.953L104.552 21.2748C104.602 21.0944 104.731 20.9307 104.98 20.9307H106.61C106.905 20.9307 107.004 21.1471 106.905 21.4441L104.246 29.7505C103.786 31.1687 102.798 32.0956 101.237 32.0956C100.3 32.0956 99.4587 31.782 98.9155 31.2686" fill="white"/>
<path fill-rule="evenodd" clip-rule="evenodd" d="M94.1225 27.2361C95.2918 27.2361 96.1632 26.2537 96.1632 25.0409C96.1632 23.8281 95.2945 22.865 94.1225 22.865C92.9505 22.865 92.0652 23.8336 92.0652 25.0409C92.0652 26.2481 92.9505 27.2361 94.1225 27.2361ZM93.8384 20.9307C94.914 20.9307 95.7826 21.433 96.1632 22.1074V21.4968C96.1632 21.3053 96.3204 21.1582 96.4776 21.1582H97.8702C98.044 21.1582 98.1846 21.3026 98.1846 21.4968V28.6071C98.1846 28.7847 98.0412 28.929 97.8702 28.929H96.4776C96.3039 28.929 96.1632 28.7847 96.1632 28.6071V27.9799C95.7661 28.6571 94.8974 29.1566 93.8219 29.1566C91.8308 29.1566 90.0135 27.5275 90.0135 25.0298C90.0135 22.532 91.8308 20.9334 93.8384 20.9334" fill="white"/>
<path fill-rule="evenodd" clip-rule="evenodd" d="M85.0742 27.1862C83.8194 27.1862 82.8708 26.1788 82.8708 24.9354C82.8708 23.6921 83.8194 22.7013 85.0742 22.7013C86.3289 22.7013 87.2611 23.6949 87.2611 24.9354C87.2611 26.176 86.3289 27.1862 85.0742 27.1862ZM89.3873 18.1804C89.3762 18.1582 89.3597 18.136 89.3431 18.1166C89.3349 18.1055 89.3266 18.0971 89.3183 18.0888C89.2935 18.0638 89.2632 18.0444 89.2301 18.0305L89.2135 18.0222C89.1887 18.0139 89.1639 18.0083 89.1363 18.0083C89.1198 18.0083 89.106 18 89.0894 18H87.5975C87.4293 18 87.2638 18.1471 87.2611 18.3414V18.7521L87.2445 21.8965C86.8364 21.2332 85.8877 20.7226 84.7212 20.7226C82.6033 20.7226 80.6729 22.3766 80.6729 24.9243C80.6729 27.472 82.6033 29.1594 84.7543 29.1594C85.9043 29.1594 86.784 28.646 87.2611 27.9522V28.5988C87.2611 28.7792 87.4127 28.9291 87.6003 28.9291H89.0729C89.2742 28.9291 89.4286 28.7792 89.4286 28.5988V18.3386C89.4286 18.2997 89.4203 18.2553 89.4066 18.2192C89.401 18.2054 89.3955 18.1943 89.39 18.1804" fill="white"/>
<path d="M80.3421 20.9334H78.7123C78.4641 20.9334 78.3345 21.0972 78.2849 21.2776L76.6551 26.9558L74.9287 21.2776C74.8791 21.0972 74.7633 20.9334 74.5647 20.9334H74.231C74.2476 20.9917 74.2614 21.0556 74.2614 21.1194V22.26C74.2614 22.9705 73.9277 23.6088 73.3982 24.0334L74.926 28.5599C74.9894 28.757 75.1218 28.8902 75.3369 28.8902H76.0759L75.8857 29.4203C75.7064 29.917 75.3258 30.2612 74.8157 30.2612C74.4213 30.2612 74.0931 30.0974 73.8119 29.881C73.6161 29.7339 73.3348 29.7006 73.1362 29.9642L72.626 30.6747C72.4771 30.8717 72.4937 31.1187 72.6426 31.2686C73.1859 31.782 74.0242 32.0956 74.9646 32.0956C76.5282 32.0956 77.5127 31.1715 77.9733 29.7505L80.6317 21.4441C80.731 21.1471 80.6317 20.9307 80.3366 20.9307H80.3421V20.9334Z" fill="white"/>
<path fill-rule="evenodd" clip-rule="evenodd" d="M73.594 21.0135H71.8208C70.8225 21.0135 70.0117 21.7823 70.0035 22.7342V21.3466C70.0035 21.1578 69.8545 21.0135 69.6725 21.0135H68.1944C68.0124 21.0135 67.8635 21.1551 67.8635 21.3466V28.3319C67.8635 28.504 68.0124 28.6483 68.1944 28.6483H69.6753C69.8573 28.6483 70.0062 28.5068 70.0062 28.3319V24.0053C70.0062 24.0053 70.0062 23.9858 70.009 23.9747C70.0834 23.5029 70.2985 23.07 70.6405 22.7314C71.1148 22.2652 71.7767 22.0071 72.5047 22.0071C72.5544 22.0071 72.5985 22.0431 72.6012 22.0931C72.604 22.1403 72.5709 22.1847 72.5185 22.1902C72.5075 22.1902 71.5119 22.3401 70.9411 23.1033C70.7508 23.3614 70.6267 23.6556 70.5716 23.9886H71.8815C72.8853 23.9886 73.6988 23.2143 73.6988 22.2541V21.1134C73.6988 21.0579 73.6519 21.0107 73.5913 21.0107" fill="white"/>
<path d="M46.2209 33.3082C46.2209 33.6441 46.1023 33.9355 45.8651 34.1797C45.6279 34.4239 45.3411 34.546 45.0075 34.546C44.6738 34.546 44.387 34.4239 44.1443 34.1797C43.9016 33.9355 43.7803 33.6441 43.7803 33.3082C43.7803 32.9724 43.9016 32.6838 44.1443 32.4396C44.387 32.1954 44.6738 32.0732 45.0075 32.0732C45.3411 32.0732 45.6279 32.1954 45.8651 32.4396C46.1023 32.6838 46.2209 32.9724 46.2209 33.3082ZM45.6583 42.8635H44.3373C44.2463 42.8635 44.1719 42.833 44.1084 42.772C44.0478 42.7109 44.0174 42.6332 44.0174 42.5444V35.8282C44.0174 35.7366 44.0478 35.6617 44.1084 35.5979C44.1691 35.5368 44.2463 35.5063 44.3373 35.5063H45.6583C45.7493 35.5063 45.8237 35.5368 45.8872 35.5979C45.9478 35.6589 45.9782 35.7366 45.9782 35.8282V42.5444C45.9782 42.636 45.9478 42.7109 45.8872 42.772C45.8265 42.833 45.7493 42.8635 45.6583 42.8635Z" fill="white"/>
<path d="M53.1538 42.5746V39.0195C53.1538 38.4284 52.9966 37.9649 52.6822 37.6235C52.3678 37.2822 51.9349 37.1129 51.3778 37.1129C50.8207 37.1129 50.3905 37.2877 50.0513 37.6402C49.7121 37.9927 49.5439 38.4506 49.5439 39.0223V42.5774C49.5439 42.6579 49.5108 42.7273 49.4446 42.7828C49.3785 42.8383 49.3068 42.866 49.224 42.866H47.8893C47.8093 42.866 47.7376 42.8355 47.6769 42.7745C47.6163 42.7134 47.5859 42.6413 47.5859 42.5608V35.8307C47.5859 35.7391 47.6163 35.6642 47.6769 35.6004C47.7376 35.5393 47.8093 35.5088 47.8893 35.5088H49.224C49.304 35.5088 49.3785 35.5393 49.4446 35.6004C49.5108 35.6614 49.5439 35.728 49.5439 35.8002V36.3802C49.7866 36.0444 50.1203 35.7808 50.545 35.5865C50.9697 35.3922 51.444 35.2979 51.9707 35.2979C52.9111 35.2979 53.6695 35.592 54.2458 36.1832C54.8222 36.7743 55.109 37.5431 55.109 38.4867V42.5774C55.109 42.6579 55.0787 42.7273 55.018 42.7828C54.9573 42.8383 54.8801 42.866 54.7891 42.866H53.4709C53.3799 42.866 53.3027 42.8383 53.242 42.7828C53.1814 42.7273 53.151 42.6579 53.151 42.5774L53.1538 42.5746Z" fill="white"/>
<path d="M56.3973 37.6436C56.3973 36.9609 56.6841 36.4003 57.2604 35.9563C57.8368 35.515 58.5814 35.293 59.4914 35.293C60.0568 35.293 60.5918 35.3762 61.0909 35.5455C61.5928 35.712 62.0037 35.9396 62.3264 36.2255C62.4284 36.3059 62.4781 36.4003 62.4781 36.5085C62.4781 36.6168 62.4312 36.725 62.3402 36.836L61.8548 37.4161C61.7638 37.5187 61.6618 37.5743 61.5515 37.5826C61.4412 37.5937 61.3143 37.5521 61.1709 37.4605C60.8868 37.2579 60.5973 37.1025 60.2995 36.9942C60.0016 36.886 59.7148 36.8333 59.4418 36.8333C59.1274 36.8333 58.8682 36.8971 58.6614 37.0247C58.4545 37.1524 58.3497 37.3078 58.3497 37.491C58.3497 37.6742 58.4214 37.8213 58.5704 37.9323C58.7165 38.0433 58.9509 38.1321 59.2763 38.1931L60.4732 38.4235C61.2123 38.565 61.7666 38.8204 62.1416 39.1867C62.5167 39.553 62.7014 40.0304 62.7014 40.6215C62.7014 41.3348 62.3953 41.9203 61.7831 42.3838C61.1709 42.8473 60.3905 43.0776 59.439 43.0776C58.904 43.0776 58.3939 43.0027 57.914 42.8473C57.4342 42.6946 57.0122 42.481 56.6482 42.2062C56.3945 42.0119 56.2511 41.8288 56.2153 41.6567C56.1794 41.4846 56.2484 41.3264 56.4193 41.1849L56.9819 40.727C57.0922 40.6354 57.2025 40.591 57.3073 40.5965C57.4121 40.6021 57.5335 40.6604 57.6631 40.7714C57.9554 41.0267 58.256 41.2154 58.5648 41.3431C58.8737 41.4708 59.1936 41.5346 59.5273 41.5346C59.8803 41.5346 60.1643 41.4652 60.3767 41.3292C60.589 41.1904 60.6966 41.0156 60.6966 40.8019C60.6966 40.6187 60.6166 40.4744 60.4539 40.3662C60.2912 40.2607 59.9823 40.1608 59.5273 40.0692L58.3608 39.825C57.7348 39.6918 57.2494 39.4392 56.9047 39.0618C56.56 38.6844 56.389 38.2126 56.389 37.6409L56.3973 37.6436Z" fill="white"/>
<path d="M65.757 35.7974V39.6134C65.757 40.1824 65.8976 40.6236 66.1817 40.9345C66.4657 41.2453 66.8683 41.4007 67.3951 41.4007C67.9218 41.4007 68.3189 41.2397 68.625 40.9206C68.9284 40.6014 69.08 40.174 69.08 39.6467V35.8002C69.08 35.728 69.1104 35.6614 69.171 35.6004C69.2317 35.5393 69.3034 35.5088 69.3834 35.5088H70.7181C70.8091 35.5088 70.8836 35.5393 70.9443 35.6004C71.0049 35.6614 71.0353 35.7391 71.0353 35.8307V42.5608C71.0353 42.6413 71.0049 42.7134 70.9443 42.7745C70.8836 42.8355 70.8091 42.8661 70.7181 42.8661H69.3834C69.3034 42.8661 69.2317 42.8383 69.171 42.7828C69.1104 42.7273 69.08 42.6579 69.08 42.5774V41.9974C68.807 42.3637 68.4871 42.6357 68.1176 42.8133C67.7481 42.991 67.3123 43.0798 66.8049 43.0798C65.8838 43.0798 65.153 42.7939 64.6125 42.225C64.072 41.656 63.8018 40.8956 63.8018 39.952V35.8002C63.8018 35.728 63.8349 35.6614 63.901 35.6004C63.9672 35.5393 64.0389 35.5088 64.1217 35.5088H65.4426C65.5226 35.5088 65.597 35.5393 65.6632 35.6004C65.7294 35.6614 65.7625 35.728 65.7625 35.8002L65.757 35.7974Z" fill="white"/>
<path d="M76.2966 35.415H76.5089C76.6192 35.415 76.7047 35.4483 76.7654 35.5149C76.8261 35.5816 76.8564 35.6759 76.8564 35.798V37.1107C76.8564 37.2328 76.8205 37.3272 76.7516 37.3938C76.6799 37.4604 76.5944 37.4937 76.4951 37.4937H76.1311C75.6154 37.4937 75.2321 37.638 74.9784 37.9294C74.7247 38.2181 74.5978 38.6649 74.5978 39.2644V42.578C74.5978 42.6585 74.5647 42.7279 74.4985 42.7834C74.4323 42.8389 74.3607 42.8667 74.2779 42.8667H72.9432C72.8632 42.8667 72.7915 42.8361 72.7308 42.7751C72.6702 42.714 72.6398 42.6419 72.6398 42.5614V35.8313C72.6398 35.7397 72.6702 35.6648 72.7308 35.601C72.7915 35.5399 72.8632 35.5094 72.9432 35.5094H74.2007C74.2807 35.5094 74.3524 35.5399 74.413 35.601C74.4737 35.662 74.5041 35.7286 74.5041 35.8008V36.5029C74.7054 36.156 74.9618 35.8896 75.2707 35.7009C75.5796 35.5122 75.9215 35.4178 76.2938 35.4178L76.2966 35.415Z" fill="white"/>
<path d="M80.9847 43.0776C79.9644 43.0776 79.0985 42.7058 78.3897 41.962C77.681 41.2182 77.328 40.2885 77.328 39.17C77.328 38.0516 77.681 37.1247 78.3897 36.392C79.0985 35.6593 79.9671 35.293 80.9985 35.293C81.4949 35.293 81.9417 35.3957 82.3415 35.5982C82.7414 35.8008 83.0365 36.0728 83.2295 36.4086V35.8286C83.2295 35.737 83.2599 35.6621 83.3205 35.5982C83.3812 35.5372 83.4529 35.5067 83.5329 35.5067H84.8676C84.9476 35.5067 85.0193 35.5372 85.08 35.5982C85.1406 35.6593 85.171 35.737 85.171 35.8286V42.5587C85.171 42.6391 85.1406 42.7113 85.08 42.7724C85.0193 42.8334 84.9476 42.8639 84.8676 42.8639H83.5329C83.4529 42.8639 83.3812 42.8334 83.3205 42.7724C83.2599 42.7113 83.2295 42.6391 83.2295 42.5587V41.962C83.0282 42.2978 82.7249 42.567 82.3195 42.7724C81.9141 42.975 81.4701 43.0776 80.9847 43.0776ZM81.2715 37.1247C80.7145 37.1247 80.2484 37.3245 79.8679 37.7213C79.4873 38.1182 79.2998 38.6067 79.2998 39.1867C79.2998 39.7667 79.4901 40.258 79.8679 40.6604C80.2484 41.0628 80.7145 41.2626 81.2715 41.2626C81.8286 41.2626 82.2919 41.0628 82.667 40.6604C83.042 40.258 83.2295 39.7667 83.2295 39.1867C83.2295 38.6067 83.042 38.1182 82.667 37.7213C82.2919 37.3245 81.8286 37.1247 81.2715 37.1247Z" fill="white"/>
<path d="M92.3442 42.5746V39.0195C92.3442 38.4284 92.187 37.9649 91.8726 37.6235C91.5583 37.2822 91.1253 37.1129 90.5682 37.1129C90.0112 37.1129 89.581 37.2877 89.2418 37.6402C88.9026 37.9927 88.7344 38.4506 88.7344 39.0223V42.5774C88.7344 42.6579 88.7013 42.7273 88.6351 42.7828C88.5689 42.8383 88.4972 42.866 88.4145 42.866H87.0797C86.9997 42.866 86.928 42.8355 86.8674 42.7745C86.8067 42.7134 86.7764 42.6413 86.7764 42.5608V35.8307C86.7764 35.7391 86.8067 35.6642 86.8674 35.6004C86.928 35.5393 86.9997 35.5088 87.0797 35.5088H88.4145C88.4944 35.5088 88.5689 35.5393 88.6351 35.6004C88.7013 35.6614 88.7344 35.728 88.7344 35.8002V36.3802C88.977 36.0444 89.3107 35.7808 89.7354 35.5865C90.1601 35.3922 90.6344 35.2979 91.1611 35.2979C92.1015 35.2979 92.8599 35.592 93.4363 36.1832C94.0126 36.7743 94.2994 37.5431 94.2994 38.4867V42.5774C94.2994 42.6579 94.2691 42.7273 94.2084 42.7828C94.1478 42.8383 94.0705 42.866 93.9795 42.866H92.6614C92.5703 42.866 92.4931 42.8383 92.4325 42.7828C92.3718 42.7273 92.3415 42.6579 92.3415 42.5774L92.3442 42.5746Z" fill="white"/>
<path d="M99.3682 43.0768C98.2651 43.0768 97.3412 42.7022 96.5911 41.9556C95.841 41.2091 95.4688 40.2849 95.4688 39.1859C95.4688 38.0869 95.8438 37.1627 96.5911 36.4161C97.3385 35.6668 98.2651 35.2949 99.3682 35.2949C100.077 35.2949 100.719 35.4503 101.301 35.7612C101.883 36.072 102.335 36.4966 102.658 37.035C102.719 37.1266 102.735 37.2237 102.705 37.3237C102.675 37.4263 102.614 37.5124 102.523 37.5845L101.781 38.1646C101.671 38.2562 101.558 38.2922 101.447 38.27C101.337 38.2506 101.235 38.184 101.144 38.073C100.86 37.7261 100.584 37.4818 100.317 37.3403C100.049 37.1988 99.7432 37.1266 99.3985 37.1266C98.8414 37.1266 98.3781 37.3264 98.0031 37.7233C97.628 38.1202 97.4405 38.6086 97.4405 39.1886C97.4405 39.7687 97.628 40.2571 98.0031 40.654C98.3781 41.0509 98.8414 41.2507 99.3985 41.2507C99.7432 41.2507 100.049 41.1785 100.317 41.037C100.584 40.8954 100.86 40.6512 101.144 40.3043C101.235 40.1933 101.337 40.1267 101.447 40.1073C101.558 40.0878 101.671 40.1239 101.781 40.2155L102.523 40.7955C102.614 40.8677 102.675 40.9537 102.705 41.0564C102.735 41.1591 102.722 41.2535 102.658 41.345C102.335 41.8834 101.883 42.3081 101.301 42.6189C100.719 42.9297 100.074 43.0851 99.3682 43.0851V43.0768Z" fill="white"/>
<path d="M103.416 39.2164C103.416 38.1063 103.783 37.1766 104.516 36.4245C105.25 35.6724 106.168 35.2949 107.269 35.2949C108.369 35.2949 109.229 35.6474 109.938 36.3551C110.647 37.0628 111 37.9342 111 38.9722V39.3385C111 39.4495 110.972 39.5356 110.917 39.5911C110.862 39.6466 110.774 39.6743 110.652 39.6743H105.435C105.484 40.1822 105.691 40.5985 106.05 40.9176C106.408 41.2396 106.841 41.3978 107.346 41.3978C107.528 41.3978 107.699 41.3811 107.861 41.345C108.024 41.309 108.181 41.2507 108.333 41.1702C108.454 41.1091 108.567 41.0342 108.675 40.9482C108.78 40.8621 108.89 40.7511 109 40.6207C109.061 40.5485 109.125 40.5097 109.191 40.4986C109.257 40.4875 109.326 40.5041 109.395 40.5458L110.47 41.2174C110.55 41.2673 110.597 41.3284 110.608 41.4005C110.619 41.4727 110.597 41.5421 110.547 41.6142C110.385 41.8279 110.192 42.025 109.963 42.2082C109.734 42.3913 109.486 42.5495 109.213 42.6827C108.92 42.8159 108.617 42.9131 108.303 42.9797C107.988 43.0463 107.66 43.0796 107.315 43.0796C106.193 43.0796 105.264 42.7133 104.525 41.9806C103.786 41.2479 103.419 40.3265 103.419 39.2164H103.416ZM105.479 38.4227H109.075C108.995 37.9536 108.788 37.5818 108.46 37.3015C108.132 37.0211 107.74 36.8824 107.285 36.8824C106.83 36.8824 106.452 37.0239 106.124 37.3098C105.796 37.5956 105.581 37.9675 105.479 38.4254V38.4227Z" fill="white"/>
<path d="M35.4995 20.9307H23.5199C21.0242 20.9307 19 22.9677 19 25.4794V30.9994C19 32.3288 19.2206 33.6387 19.6205 34.8765C19.808 35.4593 20.0369 36.0254 20.3016 36.5694C20.7181 35.6286 21.2944 34.7655 22.028 34.0189C23.8233 32.1983 26.3273 31.1937 29.085 31.1937C29.278 31.1937 29.4352 31.338 29.4463 31.5239C29.4628 31.7099 29.3277 31.8764 29.1374 31.9041C29.096 31.9069 25.3235 32.4925 23.1586 35.4787C22.4389 36.475 21.9756 37.6212 21.766 38.9145C21.766 38.9228 21.7632 38.9284 21.7632 38.9367H21.7825C23.371 40.9599 25.5358 42.4696 28.004 43.0774C33.1664 41.8091 37.0079 36.5833 37.0079 30.9966V22.446C37.0079 21.6078 36.3323 20.9307 35.5022 20.9307H35.4995Z" fill="white"/>
</g>
<defs>
<clipPath id="clip0_222_8218">
<rect width="92" height="34" fill="white" transform="translate(19 18)"/>
</clipPath>
</defs>
</svg>
