<svg width="133" height="70" viewBox="0 0 133 70" fill="none" xmlns="http://www.w3.org/2000/svg">
<path d="M0 20C0 8.9543 8.9543 0 20 0H133V50C133 61.0457 124.046 70 113 70H0V20Z" fill="#FD6400"/>
<g clip-path="url(#clip0_222_8236)">
<path fill-rule="evenodd" clip-rule="evenodd" d="M48.0033 22.9551C46.9772 22.9551 46.13 23.6501 45.8973 24.7061H50.0884C49.8766 23.5606 48.9758 22.9551 48.0003 22.9551M52.3317 25.3295V25.7472C52.3317 25.953 52.2422 26.129 51.923 26.129H45.8466C45.9719 27.3073 46.9235 28.0888 48.0749 28.0888C48.5343 28.0888 48.9042 27.9844 49.2263 27.8293C49.5276 27.6742 49.7543 27.4833 50.0049 27.2058C50.1302 27.0656 50.2704 27.0149 50.4643 27.1164L51.7201 27.88C51.914 28.0023 51.914 28.1902 51.8096 28.3304C51.4397 28.8137 50.8909 29.2492 50.2555 29.5445C49.638 29.8219 48.9102 29.995 48.0451 29.995C45.3753 29.992 43.502 28.0829 43.502 25.607C43.502 23.1311 45.3693 21.1533 47.9854 21.1533C50.6015 21.1533 52.3346 23.1132 52.3346 25.3325" fill="white"/>
<path fill-rule="evenodd" clip-rule="evenodd" d="M54.9642 29.3596C54.7136 29.3596 54.5526 29.2074 54.481 29.0016L51.7366 21.6783C51.6292 21.4039 51.7903 21.1533 52.0767 21.1533H53.8128C54.0812 21.1533 54.1886 21.3055 54.2602 21.4934L56.2141 27.1313L58.0069 21.4934C58.0606 21.3055 58.1859 21.1533 58.4543 21.1533H60.1576C60.444 21.1533 60.6051 21.4099 60.5156 21.6783L57.7742 28.9986C57.7205 29.2015 57.5385 29.3566 57.3089 29.3566H54.9642V29.3596Z" fill="white"/>
<path fill-rule="evenodd" clip-rule="evenodd" d="M65.0491 22.955C64.023 22.955 63.1758 23.65 62.9461 24.706H67.1373C66.9255 23.5606 66.0246 22.955 65.0491 22.955ZM69.3805 25.3295V25.7471C69.3805 25.9529 69.291 26.1289 68.9718 26.1289H62.8894C63.0147 27.3072 63.9693 28.0888 65.1178 28.0888C65.5771 28.0888 65.947 27.9844 66.2692 27.8292C66.5705 27.6741 66.7972 27.4832 67.0478 27.2058C67.173 27.0656 67.3132 27.0149 67.5071 27.1163L68.763 27.88C68.9569 28.0023 68.9569 28.1902 68.8525 28.3304C68.4826 28.8136 67.9337 29.2492 67.2983 29.5445C66.6809 29.8219 65.953 29.9949 65.0879 29.9949C62.4181 29.9949 60.5448 28.0858 60.5448 25.6099C60.5448 23.134 62.4181 21.1562 65.0372 21.1562C67.6563 21.1562 69.3864 23.1161 69.3864 25.3354" fill="white"/>
<path fill-rule="evenodd" clip-rule="evenodd" d="M103.637 32.2591C103.476 32.101 103.458 31.8325 103.62 31.6208L104.171 30.8571C104.383 30.5737 104.687 30.6065 104.902 30.7676C105.204 31.0003 105.559 31.1763 105.988 31.1763C106.54 31.1763 106.949 30.8034 107.145 30.2724L107.348 29.7027H106.549C106.316 29.7027 106.176 29.5595 106.104 29.3477L103.506 21.7022C103.438 21.4189 103.488 21.1504 103.879 21.1504H105.711C105.922 21.1504 106.048 21.3264 106.104 21.5203L107.972 27.6235L109.735 21.5203C109.788 21.3264 109.929 21.1504 110.197 21.1504H111.96C112.279 21.1504 112.387 21.3831 112.279 21.7022L109.404 30.6304C108.905 32.1547 107.838 33.151 106.149 33.151C105.135 33.151 104.225 32.814 103.637 32.2621" fill="white"/>
<path fill-rule="evenodd" clip-rule="evenodd" d="M98.4486 27.9278C99.7134 27.9278 100.656 26.8718 100.656 25.5682C100.656 24.2647 99.7164 23.2295 98.4486 23.2295C97.1808 23.2295 96.2233 24.2706 96.2233 25.5682C96.2233 26.8658 97.1808 27.9278 98.4486 27.9278ZM98.1413 21.1504C99.3047 21.1504 100.244 21.6903 100.656 22.4152V21.7589C100.656 21.5531 100.826 21.395 100.996 21.395H102.503C102.69 21.395 102.843 21.5501 102.843 21.7589V29.4014C102.843 29.5923 102.687 29.7474 102.503 29.7474H100.996C100.808 29.7474 100.656 29.5923 100.656 29.4014V28.7272C100.226 29.4551 99.2868 29.992 98.1234 29.992C95.9697 29.992 94.0039 28.241 94.0039 25.5563C94.0039 22.8716 95.9697 21.1534 98.1413 21.1534" fill="white"/>
<path fill-rule="evenodd" clip-rule="evenodd" d="M88.6652 27.8738C87.3079 27.8738 86.2818 26.7909 86.2818 25.4545C86.2818 24.1182 87.3079 23.0532 88.6652 23.0532C90.0225 23.0532 91.0307 24.1211 91.0307 25.4545C91.0307 26.7879 90.0225 27.8738 88.6652 27.8738ZM93.3306 18.1939C93.3187 18.17 93.3008 18.1462 93.2829 18.1253C93.2739 18.1134 93.265 18.1044 93.256 18.0955C93.2292 18.0686 93.1964 18.0477 93.1606 18.0328L93.1427 18.0239C93.1158 18.0149 93.089 18.0089 93.0592 18.0089C93.0413 18.0089 93.0263 18 93.0084 18H91.3946C91.2127 18 91.0337 18.1581 91.0307 18.3669V18.8084L91.0128 22.1881C90.5713 21.4752 89.5452 20.9263 88.2834 20.9263C85.9924 20.9263 83.9043 22.7042 83.9043 25.4426C83.9043 28.181 85.9924 29.9947 88.3192 29.9947C89.5631 29.9947 90.5146 29.4428 91.0307 28.6971V29.3921C91.0307 29.586 91.1948 29.7471 91.3976 29.7471H92.9905C93.2083 29.7471 93.3754 29.586 93.3754 29.3921V18.3639C93.3754 18.3222 93.3664 18.2744 93.3515 18.2357C93.3455 18.2207 93.3396 18.2088 93.3336 18.1939" fill="white"/>
<path fill-rule="evenodd" clip-rule="evenodd" d="M76.2436 21.2393H74.3255C73.2457 21.2393 72.3687 22.0656 72.3597 23.0888V21.5973C72.3597 21.3944 72.1987 21.2393 72.0018 21.2393H70.4029C70.206 21.2393 70.0449 21.3914 70.0449 21.5973V29.1055C70.0449 29.2905 70.206 29.4456 70.4029 29.4456H72.0048C72.2016 29.4456 72.3627 29.2934 72.3627 29.1055V24.455C72.3627 24.455 72.3627 24.4341 72.3657 24.4222C72.4462 23.9151 72.6789 23.4497 73.0488 23.0858C73.5619 22.5846 74.2778 22.3072 75.0653 22.3072C75.119 22.3072 75.1667 22.346 75.1697 22.3997C75.1727 22.4504 75.1369 22.4981 75.0802 22.5041C75.0683 22.5041 73.9914 22.6652 73.374 23.4855C73.1681 23.7629 73.0339 24.0791 72.9742 24.4371H74.3912C75.477 24.4371 76.357 23.6048 76.357 22.5727V21.3467C76.357 21.287 76.3063 21.2363 76.2406 21.2363" fill="white"/>
<path fill-rule="evenodd" clip-rule="evenodd" d="M47.9147 23.0176C46.8856 23.0176 46.0354 23.7127 45.8027 24.7716H50.0028C49.788 23.6232 48.8872 23.0176 47.9087 23.0176M52.249 25.3981V25.8157C52.249 26.0245 52.1595 26.1975 51.8404 26.1975H45.752C45.8773 27.3788 46.8319 28.1633 47.9863 28.1633C48.4457 28.1633 48.8186 28.0589 49.1407 27.9038C49.442 27.7487 49.6717 27.5548 49.9223 27.2773C50.0476 27.1371 50.1878 27.0864 50.3817 27.1879L51.6405 27.9545C51.8344 28.0768 51.8344 28.2647 51.73 28.4049C51.3571 28.8912 50.8082 29.3267 50.1699 29.622C49.5494 29.8994 48.8215 30.0724 47.9535 30.0724C45.2777 30.0724 43.3984 28.1603 43.3984 25.6755C43.3984 23.1906 45.2718 21.2129 47.8968 21.2129C50.5219 21.2129 52.258 23.1787 52.258 25.401" fill="white"/>
<path fill-rule="evenodd" clip-rule="evenodd" d="M54.8911 29.44C54.6405 29.44 54.4794 29.2879 54.4049 29.0791L51.6545 21.7409C51.5471 21.4664 51.7082 21.2129 51.9976 21.2129H53.7397C54.0081 21.2129 54.1185 21.365 54.1871 21.5559L56.1469 27.2087L57.9427 21.5559C57.9964 21.368 58.1217 21.2129 58.3902 21.2129H60.0994C60.3858 21.2129 60.5469 21.4694 60.4604 21.7409L57.713 29.0821C57.6593 29.2879 57.4774 29.443 57.2477 29.443H54.8941L54.8911 29.44Z" fill="white"/>
<path fill-rule="evenodd" clip-rule="evenodd" d="M65.0036 23.0177C63.9745 23.0177 63.1243 23.7127 62.8946 24.7717H67.0947C66.8799 23.6232 65.9791 23.0177 65.0007 23.0177H65.0036ZM69.3439 25.3981V25.8157C69.3439 26.0245 69.2544 26.1976 68.9352 26.1976H62.838C62.9633 27.3788 63.9208 28.1634 65.0722 28.1634C65.5316 28.1634 65.9045 28.059 66.2267 27.9038C66.528 27.7487 66.7576 27.5548 67.0082 27.2774C67.1335 27.1372 67.2737 27.0865 67.4676 27.1879L68.7264 27.9545C68.9203 28.0768 68.9203 28.2648 68.8159 28.405C68.443 28.8912 67.8942 29.3267 67.2558 29.622C66.6353 29.8995 65.9075 30.0725 65.0394 30.0725C62.3637 30.0725 60.4844 28.1604 60.4844 25.6755C60.4844 23.1907 62.3637 21.21 64.9887 21.21C67.6138 21.21 69.3499 23.1758 69.3499 25.3981" fill="white"/>
<path fill-rule="evenodd" clip-rule="evenodd" d="M103.693 32.3486C103.532 32.1905 103.514 31.922 103.675 31.7072L104.227 30.9406C104.442 30.6572 104.746 30.69 104.958 30.8511C105.259 31.0838 105.617 31.2598 106.047 31.2598C106.599 31.2598 107.01 30.8839 107.207 30.3529L107.413 29.7832H106.611C106.378 29.7832 106.235 29.64 106.166 29.4252L103.562 21.7589C103.49 21.4755 103.544 21.207 103.938 21.207H105.775C105.99 21.207 106.116 21.383 106.169 21.5799L108.043 27.701L109.809 21.5799C109.862 21.386 110.002 21.207 110.271 21.207H112.037C112.356 21.207 112.463 21.4397 112.356 21.7589L109.471 30.7109C108.97 32.2382 107.899 33.2375 106.208 33.2375C105.191 33.2375 104.281 32.8974 103.69 32.3456" fill="white"/>
<path fill-rule="evenodd" clip-rule="evenodd" d="M98.4937 28.0082C99.7615 28.0082 100.707 26.9492 100.707 25.6427C100.707 24.3361 99.7645 23.298 98.4937 23.298C97.223 23.298 96.2624 24.3421 96.2624 25.6427C96.2624 26.9433 97.223 28.0082 98.4937 28.0082ZM98.1865 21.2129C99.3528 21.2129 100.295 21.7528 100.707 22.4807V21.8214C100.707 21.6126 100.877 21.4545 101.05 21.4545H102.56C102.748 21.4545 102.903 21.6096 102.903 21.8214V29.4848C102.903 29.6757 102.748 29.8338 102.56 29.8338H101.05C100.862 29.8338 100.707 29.6787 100.707 29.4848V28.8076C100.278 29.5355 99.3349 30.0754 98.1686 30.0754C96.0089 30.0754 94.0371 28.3214 94.0371 25.6277C94.0371 22.9341 96.0089 21.2129 98.1865 21.2129Z" fill="white"/>
<path fill-rule="evenodd" clip-rule="evenodd" d="M88.683 27.9514C87.3227 27.9514 86.2936 26.8656 86.2936 25.5262C86.2936 24.1868 87.3227 23.1189 88.683 23.1189C90.0432 23.1189 91.0545 24.1898 91.0545 25.5262C91.0545 26.8626 90.0432 27.9514 88.683 27.9514ZM93.3603 18.2477C93.3484 18.2238 93.3305 18.1999 93.3126 18.1761C93.3037 18.1641 93.2947 18.1552 93.2858 18.1462C93.2589 18.1194 93.2261 18.0985 93.1903 18.0836L93.1724 18.0746C93.1456 18.0657 93.1187 18.0597 93.0889 18.0597C93.071 18.0597 93.0561 18.0508 93.0382 18.0508H91.4214C91.2394 18.0508 91.0574 18.2089 91.0545 18.4207V18.8622L91.0366 22.2509C90.5951 21.5379 89.5659 20.9861 88.3011 20.9861C86.0042 20.9861 83.9102 22.7669 83.9102 25.5143C83.9102 28.2616 86.0042 30.0783 88.3369 30.0783C89.5838 30.0783 90.5384 29.5264 91.0545 28.7777V29.4727C91.0545 29.6666 91.2185 29.8307 91.4244 29.8307H93.0233C93.244 29.8307 93.4081 29.6696 93.4081 29.4727V18.4177C93.4081 18.3759 93.3991 18.3282 93.3842 18.2894C93.3782 18.2745 93.3723 18.2626 93.3663 18.2477" fill="white"/>
<path fill-rule="evenodd" clip-rule="evenodd" d="M76.2303 21.3027H74.3092C73.2264 21.3027 72.3464 22.132 72.3374 23.1582V21.6637C72.3374 21.4579 72.1764 21.3027 71.9765 21.3027H70.3746C70.1777 21.3027 70.0137 21.4549 70.0137 21.6637V29.1928C70.0137 29.3777 70.1748 29.5358 70.3746 29.5358H71.9795C72.1764 29.5358 72.3404 29.3837 72.3404 29.1928V24.5304C72.3404 24.5304 72.3404 24.5095 72.3434 24.4975C72.4239 23.9874 72.6566 23.5221 73.0295 23.1582C73.5456 22.654 74.2615 22.3766 75.052 22.3766C75.1057 22.3766 75.1534 22.4154 75.1564 22.4691C75.1594 22.5198 75.1236 22.5675 75.0669 22.5735C75.055 22.5735 73.9751 22.7346 73.3546 23.5579C73.1458 23.8353 73.0116 24.1515 72.9549 24.5125H74.3778C75.4666 24.5125 76.3496 23.6772 76.3496 22.6421V21.4131C76.3496 21.3534 76.2989 21.3027 76.2332 21.3027" fill="white"/>
<path d="M83.6389 21.2725H81.8384C81.5642 21.2725 81.421 21.4485 81.3662 21.6424L79.5657 27.7453L77.6585 21.6424C77.6037 21.4485 77.4757 21.2725 77.2564 21.2725H76.8877C76.906 21.3352 76.9212 21.4038 76.9212 21.4724V22.6983C76.9212 23.4619 76.5526 24.148 75.9677 24.6044L77.6555 29.4694C77.7255 29.6812 77.8718 29.8243 78.1094 29.8243H78.9259L78.7157 30.3941C78.5176 30.928 78.0972 31.2979 77.5336 31.2979C77.0979 31.2979 76.7354 31.1219 76.4247 30.8892C76.2083 30.7311 75.8976 30.6953 75.6782 30.9787L75.1146 31.7423C74.9501 31.9541 74.9684 32.2196 75.1329 32.3806C75.7331 32.9325 76.6592 33.2695 77.6981 33.2695C79.4255 33.2695 80.5132 32.2762 81.0219 30.749L83.9588 21.8214C84.0685 21.5022 83.9588 21.2695 83.6328 21.2695H83.6389V21.2725Z" fill="white"/>
<path d="M43.7796 52.0695H43.4612C43.3637 52.0695 43.274 52.0337 43.2042 51.9694M43.7796 52.0695L43.2042 51.9694M43.7796 52.0695V54.7114C43.7796 54.8133 43.8226 54.901 43.8902 54.969C43.9562 55.0354 44.0409 55.0807 44.1479 55.0807H44.8511C44.9574 55.0807 45.045 55.0358 45.1115 54.9632L45.1117 54.9633L45.1172 54.9567C45.1706 54.8932 45.211 54.8104 45.211 54.7114V52.0695H45.7694C45.8718 52.0695 45.9596 52.0257 46.0271 51.9578L45.8852 51.8168L46.0271 51.9578C46.0932 51.8913 46.1376 51.8066 46.1376 51.7003V51.1702C46.1376 51.0824 46.1121 50.9801 46.0264 50.9011C45.9566 50.8367 45.8669 50.8009 45.7694 50.8009H45.211V50.4791C45.211 50.3648 45.2409 50.2953 45.283 50.2471C45.3217 50.2028 45.3696 50.1796 45.444 50.1796C45.4794 50.1796 45.5177 50.1859 45.5627 50.2016L45.5627 50.2017L45.5652 50.2025C45.6089 50.2172 45.6548 50.2402 45.7058 50.2731C45.7911 50.3383 45.8954 50.3851 46.0089 50.3791C46.138 50.3723 46.2312 50.2999 46.2905 50.2088L46.5905 49.7943L46.5906 49.7944L46.5952 49.7875C46.6494 49.7058 46.6777 49.6138 46.6723 49.5162C46.6664 49.4083 46.617 49.3198 46.5481 49.2558L46.5481 49.2558L46.5453 49.2533C46.3982 49.1216 46.2137 49.0176 45.9965 48.9438L45.9965 48.9438L45.9957 48.9435C45.7787 48.8707 45.5642 48.8332 45.3475 48.8332C44.8986 48.8332 44.518 48.97 44.2215 49.2555C43.9214 49.5443 43.7796 49.9306 43.7796 50.3931V50.8037H43.6612V50.8009H43.4612C43.3672 50.8009 43.2744 50.8301 43.198 50.9071L43.1978 50.907L43.192 50.9134C43.1281 50.9835 43.093 51.0731 43.093 51.1702V51.7003C43.093 51.7881 43.1185 51.8903 43.2042 51.9694M43.7796 52.0695L43.2042 51.9694" fill="white" stroke="#FD6400" stroke-width="0.4"/>
<path d="M48.4276 50.9561H48.5407C48.5986 50.9561 48.6455 50.9727 48.6758 51.0088C48.7089 51.0449 48.7227 51.092 48.7227 51.1586V51.8497C48.7227 51.9135 48.7034 51.9635 48.6676 51.9996C48.629 52.0356 48.5848 52.0523 48.5324 52.0523H48.3394C48.0664 52.0523 47.8651 52.13 47.7327 52.2826C47.6003 52.4353 47.5314 52.6712 47.5314 52.9876V54.7332C47.5314 54.7748 47.5148 54.8137 47.479 54.8415C47.4431 54.872 47.4045 54.8859 47.3632 54.8859H46.6599C46.6158 54.8859 46.58 54.8692 46.5469 54.8387C46.5138 54.8054 46.5 54.7693 46.5 54.7249V51.1753C46.5 51.1281 46.5165 51.0865 46.5469 51.0532C46.58 51.0199 46.6158 51.006 46.6599 51.006H47.3246C47.3659 51.006 47.4045 51.0227 47.4376 51.0532C47.4707 51.0865 47.4845 51.1198 47.4845 51.1586V51.5278C47.5921 51.3446 47.7244 51.2058 47.8871 51.1059C48.0498 51.006 48.2291 50.9561 48.4276 50.9561Z" fill="white"/>
<path d="M51.075 54.9974C50.4931 54.9974 50.0022 54.8003 49.6023 54.4062C49.2025 54.0122 49.0039 53.5265 49.0039 52.9548C49.0039 52.3831 49.2052 51.8946 49.6023 51.495C50.0022 51.0953 50.4931 50.8955 51.075 50.8955C51.6568 50.8955 52.1477 51.0953 52.5476 51.495C52.9475 51.8946 53.146 52.3831 53.146 52.9548C53.146 53.5265 52.9447 54.0122 52.5476 54.4062C52.1477 54.8003 51.6568 54.9974 51.075 54.9974ZM51.075 51.8585C50.7826 51.8585 50.5372 51.964 50.3386 52.1721C50.1401 52.3803 50.0436 52.6384 50.0436 52.9437C50.0436 53.2489 50.1428 53.507 50.3386 53.7152C50.5344 53.9233 50.7799 54.0288 51.075 54.0288C51.37 54.0288 51.6127 53.9233 51.8113 53.7152C52.0071 53.507 52.1063 53.2489 52.1063 52.9437C52.1063 52.6384 52.0071 52.3803 51.8113 52.1721C51.6127 51.964 51.37 51.8585 51.075 51.8585Z" fill="white"/>
<path d="M55.7376 51.8499C55.4701 51.8499 55.2578 51.9359 55.1006 52.108C54.9434 52.2801 54.8634 52.5049 54.8634 52.7852V54.7334C54.8634 54.775 54.8469 54.8139 54.811 54.8417C54.7752 54.8722 54.7366 54.8861 54.6952 54.8861H53.992C53.9479 54.8861 53.912 54.8694 53.8789 54.8389C53.8458 54.8056 53.832 54.7695 53.832 54.7251V51.1755C53.832 51.1283 53.8486 51.0867 53.8789 51.0534C53.912 51.0201 53.9479 51.0062 53.992 51.0062H54.6952C54.7366 51.0062 54.7752 51.0229 54.811 51.0534C54.8469 51.0867 54.8634 51.12 54.8634 51.1589V51.4641C54.982 51.2921 55.1475 51.1533 55.3681 51.0506C55.5859 50.9452 55.8176 50.8924 56.063 50.8924C56.3388 50.8924 56.587 50.9535 56.8021 51.0728C57.0172 51.1922 57.1827 51.3614 57.293 51.5751C57.4584 51.3559 57.657 51.1866 57.8914 51.0673C58.1258 50.9507 58.3823 50.8896 58.658 50.8896C59.1655 50.8896 59.5653 51.0423 59.8604 51.3476C60.1555 51.6529 60.3044 52.0469 60.3044 52.5298V54.7279C60.3044 54.7695 60.2879 54.8083 60.2575 54.8361C60.2244 54.8666 60.1858 54.8805 60.1362 54.8805H59.4412C59.3944 54.8805 59.353 54.8666 59.3199 54.8361C59.2868 54.8056 59.273 54.7695 59.273 54.7279V52.7796C59.273 52.491 59.1986 52.2606 59.0524 52.0941C58.9062 51.9276 58.7049 51.8443 58.4485 51.8443C58.192 51.8443 57.9769 51.9304 57.8197 52.1024C57.6625 52.2745 57.5825 52.4993 57.5825 52.7796V54.7279C57.5825 54.7695 57.566 54.8083 57.5301 54.8361C57.4943 54.8666 57.4557 54.8805 57.4143 54.8805H56.7194C56.6752 54.8805 56.6394 54.8666 56.6035 54.8361C56.5677 54.8056 56.5511 54.7695 56.5511 54.7279V52.7796C56.5511 52.491 56.4767 52.2606 56.3305 52.0941C56.1844 51.9276 55.9831 51.8443 55.7266 51.8443L55.7376 51.8499Z" fill="white"/>
<path d="M67.4713 54.7144L66.473 50.8678L65.4664 54.7144C65.4498 54.7616 65.4223 54.8032 65.3837 54.8365C65.3423 54.8698 65.3009 54.8837 65.2513 54.8837H64.0903C64.0434 54.8837 63.9993 54.8698 63.9579 54.8393C63.9165 54.8087 63.889 54.7671 63.8752 54.7144L62.5239 49.5079C62.5074 49.433 62.5156 49.372 62.5487 49.322C62.5818 49.2748 62.6314 49.2498 62.7004 49.2498H63.5332C63.5718 49.2498 63.6049 49.2665 63.638 49.297C63.6711 49.3303 63.6932 49.3692 63.7097 49.4191L64.708 53.5959L65.8028 49.4025C65.8194 49.3498 65.8414 49.3109 65.8718 49.2859C65.9021 49.2609 65.9407 49.2498 65.9876 49.2498H66.9473C66.9887 49.2498 67.0273 49.2637 67.0631 49.2942C67.099 49.3248 67.121 49.3609 67.1321 49.4025L68.2269 53.5626L69.2252 49.4164C69.2362 49.3692 69.2583 49.3276 69.2886 49.2942C69.3217 49.2609 69.3575 49.2471 69.4017 49.2471H70.1849C70.2593 49.2471 70.3117 49.2693 70.342 49.3109C70.3724 49.3525 70.3751 49.4191 70.3531 49.5052L69.0101 54.7116C68.999 54.7588 68.9687 54.8004 68.9218 54.8337C68.8749 54.867 68.8308 54.8809 68.795 54.8809H67.6919C67.645 54.8809 67.6009 54.867 67.5595 54.8365C67.5181 54.806 67.4906 54.7643 67.4768 54.7116H67.4713V54.7144Z" fill="white"/>
<path d="M72.5086 54.9974C71.9267 54.9974 71.4358 54.8003 71.0359 54.4062C70.6361 54.0122 70.4375 53.5265 70.4375 52.9548C70.4375 52.3831 70.6388 51.8946 71.0359 51.495C71.4358 51.0953 71.9267 50.8955 72.5086 50.8955C73.0904 50.8955 73.5813 51.0953 73.9812 51.495C74.381 51.8946 74.5796 52.3831 74.5796 52.9548C74.5796 53.5265 74.3783 54.0122 73.9812 54.4062C73.5813 54.8003 73.0904 54.9974 72.5086 54.9974ZM72.5086 51.8585C72.2162 51.8585 71.9708 51.964 71.7722 52.1721C71.5737 52.3803 71.4772 52.6384 71.4772 52.9437C71.4772 53.2489 71.5764 53.507 71.7722 53.7152C71.968 53.9233 72.2135 54.0288 72.5086 54.0288C72.8036 54.0288 73.0463 53.9233 73.2449 53.7152C73.4407 53.507 73.5399 53.2489 73.5399 52.9437C73.5399 52.6384 73.4407 52.3803 73.2449 52.1721C73.0463 51.964 72.8036 51.8585 72.5086 51.8585Z" fill="white"/>
<path d="M77.1394 54.9974C76.5575 54.9974 76.0667 54.8003 75.6668 54.4062C75.2669 54.0122 75.0684 53.5265 75.0684 52.9548C75.0684 52.3831 75.2697 51.8946 75.6668 51.495C76.0667 51.0953 76.5575 50.8955 77.1394 50.8955C77.7213 50.8955 78.2122 51.0953 78.612 51.495C79.0119 51.8946 79.2105 52.3831 79.2105 52.9548C79.2105 53.5265 79.0091 54.0122 78.612 54.4062C78.2122 54.8003 77.7213 54.9974 77.1394 54.9974ZM77.1394 51.8585C76.8471 51.8585 76.6017 51.964 76.4031 52.1721C76.2045 52.3803 76.108 52.6384 76.108 52.9437C76.108 53.2489 76.2073 53.507 76.4031 53.7152C76.5989 53.9233 76.8443 54.0288 77.1394 54.0288C77.4345 54.0288 77.6772 53.9233 77.8757 53.7152C78.0715 53.507 78.1708 53.2489 78.1708 52.9437C78.1708 52.6384 78.0715 52.3803 77.8757 52.1721C77.6772 51.964 77.4345 51.8585 77.1394 51.8585Z" fill="white"/>
<path d="M81.3936 54.8838H80.8807C80.5552 54.8838 80.3098 54.8033 80.1416 54.6396C79.9734 54.4759 79.8906 54.2372 79.8906 53.918V49.4193C79.8906 49.3721 79.9072 49.3305 79.9375 49.2972C79.9706 49.2639 80.0092 49.25 80.0588 49.25H80.7538C80.8007 49.25 80.842 49.2667 80.8751 49.2972C80.9082 49.3305 80.922 49.3693 80.922 49.4193V53.7182C80.922 53.8153 80.9468 53.8903 80.9992 53.943C81.0489 53.9957 81.1206 54.0235 81.2116 54.0235H81.4432C81.4901 54.0235 81.5287 54.0374 81.559 54.0651C81.5894 54.0929 81.6032 54.1289 81.6032 54.1789V54.6868C81.6032 54.7506 81.5839 54.8006 81.548 54.8366C81.5094 54.8727 81.4598 54.8894 81.3963 54.8894V54.8838H81.3936Z" fill="white"/>
<path d="M84.7451 52.3888L84.1302 54.7145C84.1191 54.7616 84.0943 54.8033 84.0529 54.8366C84.0116 54.8699 83.9702 54.8838 83.9206 54.8838H83.0243C82.9774 54.8838 82.9333 54.8699 82.8975 54.8393C82.8588 54.8088 82.834 54.7672 82.8175 54.7145L81.7061 51.237C81.6841 51.1676 81.6868 51.1121 81.7144 51.0677C81.742 51.0261 81.7888 51.0039 81.8578 51.0039H82.6106C82.663 51.0039 82.7072 51.0178 82.7375 51.0455C82.7706 51.0733 82.7927 51.1121 82.8092 51.1676L83.4876 53.646L84.1522 51.1676C84.1688 51.1149 84.1936 51.0733 84.2239 51.0455C84.257 51.0178 84.2984 51.0039 84.3508 51.0039H85.1836C85.236 51.0039 85.2801 51.0178 85.316 51.0455C85.3518 51.0733 85.3766 51.1121 85.3932 51.1676L86.0578 53.646L86.7527 51.1676C86.7693 51.1149 86.7941 51.0733 86.83 51.0455C86.8658 51.0178 86.9072 51.0039 86.9541 51.0039H87.6269C87.6959 51.0039 87.7428 51.0261 87.7703 51.0677C87.7979 51.1121 87.8007 51.1676 87.7786 51.237L86.6673 54.7145C86.6507 54.7672 86.6231 54.8088 86.5873 54.8393C86.5487 54.8699 86.5046 54.8838 86.4522 54.8838H85.5807C85.5283 54.8838 85.4814 54.8699 85.4401 54.8393C85.3987 54.8088 85.3739 54.7672 85.3629 54.7145L84.7479 52.3888H84.7451Z" fill="white"/>
<path d="M90.1101 54.9974C89.5282 54.9974 89.0374 54.8003 88.6375 54.4062C88.2376 54.0122 88.0391 53.5265 88.0391 52.9548C88.0391 52.3831 88.2404 51.8946 88.6375 51.495C89.0374 51.0953 89.5282 50.8955 90.1101 50.8955C90.692 50.8955 91.1829 51.0953 91.5827 51.495C91.9826 51.8946 92.1812 52.3831 92.1812 52.9548C92.1812 53.5265 91.9799 54.0122 91.5827 54.4062C91.1829 54.8003 90.692 54.9974 90.1101 54.9974ZM90.1101 51.8585C89.8178 51.8585 89.5724 51.964 89.3738 52.1721C89.1752 52.3803 89.0787 52.6384 89.0787 52.9437C89.0787 53.2489 89.178 53.507 89.3738 53.7152C89.5696 53.9233 89.815 54.0288 90.1101 54.0288C90.4052 54.0288 90.6479 53.9233 90.8464 53.7152C91.0422 53.507 91.1415 53.2489 91.1415 52.9437C91.1415 52.6384 91.0422 52.3803 90.8464 52.1721C90.6479 51.964 90.4052 51.8585 90.1101 51.8585Z" fill="white"/>
<path d="M94.7948 50.957H94.9079C94.9658 50.957 95.0127 50.9737 95.043 51.0098C95.0761 51.0458 95.0899 51.093 95.0899 51.1596V51.8507C95.0899 51.9145 95.0706 51.9645 95.0348 52.0005C94.9962 52.0366 94.952 52.0533 94.8996 52.0533H94.7066C94.4336 52.0533 94.2323 52.131 94.0999 52.2836C93.9675 52.4363 93.8986 52.6722 93.8986 52.9885V54.7342C93.8986 54.7758 93.882 54.8147 93.8462 54.8424C93.8103 54.873 93.7717 54.8868 93.7304 54.8868H93.0271C92.983 54.8868 92.9472 54.8702 92.9141 54.8397C92.881 54.8063 92.8672 54.7703 92.8672 54.7259V51.1763C92.8672 51.1291 92.8837 51.0875 92.9141 51.0542C92.9472 51.0209 92.983 51.007 93.0271 51.007H93.6918C93.7331 51.007 93.7717 51.0236 93.8048 51.0542C93.8379 51.0875 93.8517 51.1208 93.8517 51.1596V51.5287C93.9592 51.3456 94.0916 51.2068 94.2543 51.1069C94.417 51.007 94.5963 50.957 94.7948 50.957Z" fill="white"/>
<path d="M97.8757 53.8866C97.9391 53.8505 97.9998 53.8339 98.0549 53.8394C98.1101 53.845 98.1542 53.8727 98.1873 53.9199L98.4272 54.314C98.4603 54.3612 98.4714 54.4084 98.4686 54.4555C98.4631 54.5 98.441 54.5416 98.4052 54.5804C98.2838 54.7025 98.1266 54.7997 97.9364 54.8663C97.7461 54.9329 97.5392 54.9662 97.3159 54.9662C96.9325 54.9662 96.6237 54.858 96.3893 54.6415C96.1549 54.425 96.0363 54.1253 96.0363 53.7451V51.8773H95.5096C95.4682 51.8773 95.4296 51.8607 95.3965 51.8246C95.3634 51.7885 95.3496 51.7496 95.3496 51.708V51.1779C95.3496 51.1308 95.3662 51.0891 95.3965 51.0558C95.4268 51.0225 95.4654 51.0086 95.5096 51.0086H96.0363V49.9291C96.0363 49.8819 96.0528 49.8403 96.0832 49.8069C96.1135 49.7736 96.1549 49.7598 96.2045 49.7598H96.9077C96.9491 49.7598 96.9877 49.7764 97.0208 49.8069C97.0539 49.8403 97.0677 49.8791 97.0677 49.9291V51.0086H98.1873C98.2342 51.0086 98.2756 51.0253 98.3059 51.0558C98.3362 51.0864 98.3528 51.128 98.3528 51.1779V51.708C98.3528 51.7524 98.3362 51.7885 98.3004 51.8246C98.2645 51.8607 98.2259 51.8773 98.1845 51.8773H97.0649V53.512C97.0649 53.6729 97.1063 53.795 97.1863 53.8811C97.2662 53.9671 97.3738 54.0087 97.5062 54.0087C97.5641 54.0087 97.6275 53.9976 97.6909 53.9754C97.7543 53.9532 97.815 53.9255 97.8757 53.8866Z" fill="white"/>
<path d="M101.93 54.7312V52.8551C101.93 52.5443 101.848 52.2973 101.682 52.1196C101.517 51.9392 101.288 51.8504 100.995 51.8504C100.703 51.8504 100.474 51.942 100.295 52.128C100.116 52.3139 100.027 52.5554 100.027 52.8551V54.7312C100.027 54.7728 100.011 54.8117 99.9751 54.8394C99.9392 54.8699 99.9006 54.8838 99.8593 54.8838H99.156C99.1119 54.8838 99.0761 54.8672 99.043 54.8366C99.0099 54.8033 98.9961 54.7673 98.9961 54.7229V49.411C98.9961 49.3693 99.0126 49.3305 99.043 49.2972C99.0761 49.2639 99.1119 49.25 99.156 49.25H99.8593C99.9006 49.25 99.9392 49.2639 99.9751 49.2944C100.011 49.3249 100.027 49.361 100.027 49.4026V51.4619C100.154 51.2843 100.331 51.1455 100.554 51.0428C100.778 50.9401 101.029 50.8902 101.307 50.8902C101.803 50.8902 102.203 51.0456 102.507 51.3564C102.81 51.6673 102.962 52.0725 102.962 52.572V54.7284C102.962 54.77 102.945 54.8089 102.915 54.8366C102.882 54.8672 102.843 54.8811 102.793 54.8811H102.099C102.052 54.8811 102.01 54.8672 101.977 54.8366C101.944 54.8061 101.93 54.77 101.93 54.7284V54.7312Z" fill="white"/>
<path d="M103.681 52.1304C103.681 51.7723 103.833 51.4754 104.136 51.2423C104.439 51.0091 104.831 50.8926 105.311 50.8926C105.609 50.8926 105.89 50.937 106.155 51.0258C106.419 51.1146 106.634 51.2339 106.805 51.3838C106.858 51.4282 106.885 51.4754 106.885 51.5337C106.885 51.5919 106.861 51.6475 106.814 51.7057L106.557 52.011C106.51 52.0637 106.455 52.0943 106.397 52.0998C106.339 52.1054 106.273 52.0832 106.196 52.036C106.047 51.9278 105.893 51.8473 105.735 51.7918C105.578 51.7363 105.427 51.7085 105.283 51.7085C105.118 51.7085 104.98 51.7418 104.872 51.8084C104.762 51.875 104.709 51.9583 104.709 52.0526C104.709 52.147 104.748 52.2275 104.825 52.2858C104.903 52.3441 105.027 52.3912 105.198 52.4218L105.829 52.5439C106.218 52.6188 106.51 52.752 106.709 52.9463C106.905 53.1406 107.004 53.3903 107.004 53.7039C107.004 54.0786 106.844 54.3894 106.521 54.6337C106.199 54.8779 105.788 55 105.286 55C105.005 55 104.734 54.9611 104.483 54.8807C104.232 54.8002 104.006 54.6864 103.816 54.5421C103.684 54.4394 103.606 54.345 103.587 54.2534C103.568 54.1619 103.604 54.0786 103.695 54.0037L103.99 53.7622C104.048 53.715 104.106 53.6901 104.161 53.6928C104.216 53.6956 104.279 53.7261 104.348 53.7844C104.503 53.9176 104.663 54.0203 104.825 54.0869C104.988 54.1535 105.156 54.1868 105.333 54.1868C105.52 54.1868 105.669 54.1508 105.779 54.0786C105.893 54.0064 105.948 53.9149 105.948 53.8011C105.948 53.7039 105.904 53.629 105.821 53.5707C105.735 53.5152 105.573 53.4625 105.333 53.4125L104.718 53.2849C104.387 53.2155 104.13 53.0823 103.951 52.8825C103.769 52.6854 103.678 52.4356 103.678 52.1331H103.681V52.1304Z" fill="white"/>
<path d="M46.1612 40.0768C46.1612 41.3583 47.0755 42.3195 48.3057 42.3195C49.536 42.3195 50.4503 41.3583 50.4503 40.0768C50.4503 38.8121 49.536 37.8341 48.3057 37.8341C47.0755 37.8341 46.1612 38.8121 46.1612 40.0768ZM48.339 46.1978C49.7521 46.1978 50.4669 45.3716 50.4669 44.1743V43.0951C50.0679 43.7528 49.1536 44.2586 48.0397 44.2586C45.8453 44.2586 44 42.6736 44 40.0599C44 37.4463 45.8619 35.8275 47.9566 35.8275C49.1037 35.8275 50.0513 36.3671 50.4669 37.0753V36.4177C50.4669 36.2322 50.6165 36.0804 50.7994 36.0804H52.2457C52.4452 36.0804 52.5949 36.2322 52.5949 36.4177V44.2418C52.5949 46.5013 50.9657 48.0695 48.2891 48.0695C46.1612 48.0695 44.5985 47.0915 44.2327 45.557C44.1995 45.4221 44.2327 45.2535 44.399 45.2198L45.9451 44.7982C46.1279 44.7645 46.2609 44.8151 46.3274 44.95C46.4937 45.557 47.1254 46.1978 48.339 46.1978Z" fill="white"/>
<path d="M55.2688 35.0012C54.5207 35.0012 53.9222 34.3773 53.9222 33.6354C53.9222 32.8934 54.5207 32.2695 55.2688 32.2695C56.0003 32.2695 56.5988 32.8934 56.5988 33.6354C56.5988 34.3773 56.0003 35.0012 55.2688 35.0012ZM55.9837 44.1912H54.5373C54.3378 44.1912 54.1882 44.0226 54.1882 43.8371V36.4177C54.1882 36.2153 54.3378 36.0636 54.5373 36.0636H55.9837C56.1831 36.0636 56.3328 36.2153 56.3328 36.4177V43.8371C56.3328 44.0226 56.1831 44.1912 55.9837 44.1912Z" fill="white"/>
<path d="M58.7534 37.8847H57.6729C57.4734 37.8847 57.3237 37.7161 57.3237 37.5306V36.4177C57.3237 36.2153 57.4734 36.0636 57.6729 36.0636H58.7534V34.8157C58.7534 33.0621 59.8839 32.3876 61.2139 32.3876H61.563C61.8622 32.3876 62.0783 32.5225 62.0783 32.8766V34.0064C62.0783 34.2424 61.962 34.3942 61.7126 34.3942H61.563C61.1141 34.3942 60.898 34.6134 60.898 35.0855V36.0636H62.9761V33.804C62.9761 33.6017 63.1423 33.4499 63.3252 33.4499H64.7881C64.971 33.4499 65.1206 33.6017 65.1206 33.804V36.0636H67.448C67.6475 36.0636 67.7972 36.2153 67.7972 36.4177V37.5306C67.7972 37.7161 67.6475 37.8847 67.448 37.8847H65.1206V41.3077C65.1206 42.134 65.6526 42.3532 66.035 42.3532C66.2345 42.3532 66.5171 42.2858 66.8163 42.1003C67.0491 41.9485 67.2984 41.9485 67.448 42.1677L67.9468 42.994C68.0798 43.1963 68.0465 43.3987 67.8969 43.5504C67.3982 44.0732 66.5503 44.3598 65.6526 44.3598C64.306 44.3598 62.9761 43.6179 62.9761 41.7967V37.8847H60.898V43.8371C60.898 44.0226 60.7484 44.1912 60.5655 44.1912H59.1026C58.9197 44.1912 58.7534 44.0226 58.7534 43.8371V37.8847Z" fill="white"/>
<path d="M71.956 40.1274C71.956 37.6992 73.818 35.8275 76.2285 35.8275C77.8743 35.8275 79.171 36.6369 79.836 37.7498C79.969 37.969 79.8693 38.2219 79.6864 38.3568L78.8718 38.9976C78.5892 39.2168 78.3398 39.1156 78.1736 38.8964C77.6416 38.2388 77.1262 37.851 76.2617 37.851C75.0149 37.851 74.1172 38.8627 74.1172 40.1274C74.1172 41.392 75.0149 42.4038 76.2617 42.4038C77.1262 42.4038 77.6416 42.016 78.1736 41.3583C78.3398 41.1391 78.5892 41.0379 78.8718 41.2572L79.6864 41.8979C79.8693 42.0328 79.969 42.2858 79.836 42.505C79.171 43.6179 77.8743 44.4273 76.2285 44.4273C73.818 44.4273 71.956 42.5555 71.956 40.1274Z" fill="white"/>
<path d="M82.6567 40.1274C82.6567 41.392 83.5877 42.4207 84.8179 42.4207C86.0481 42.4207 86.9625 41.392 86.9625 40.1274C86.9625 38.8627 86.0481 37.851 84.8179 37.851C83.5877 37.851 82.6567 38.8627 82.6567 40.1274ZM80.4955 40.1105C80.4955 37.4969 82.4074 35.8275 84.5187 35.8275C85.6491 35.8275 86.5635 36.3502 86.9625 37.0584V36.4177C86.9625 36.2153 87.1287 36.0636 87.2949 36.0636H88.7579C88.9408 36.0636 89.0904 36.2153 89.0904 36.4177V43.8539C89.0904 44.0394 88.9408 44.1912 88.7579 44.1912H87.2949C87.1121 44.1912 86.9625 44.0394 86.9625 43.8539V43.1963C86.5468 43.9045 85.6325 44.4273 84.502 44.4273C82.4074 44.4273 80.4955 42.7242 80.4955 40.1105Z" fill="white"/>
<path d="M94.6906 35.9624H94.9234C95.0896 35.9624 95.3057 36.0467 95.3057 36.3839V37.8341C95.3057 38.1713 95.0397 38.2557 94.9068 38.2557H94.5078C93.4438 38.2557 92.8287 38.8121 92.8287 40.2117V43.8708C92.8287 44.0563 92.6458 44.1912 92.4796 44.1912H91.0166C90.8338 44.1912 90.6841 44.0394 90.6841 43.8539V36.4177C90.6841 36.2153 90.8338 36.0636 91.0166 36.0636H92.3965C92.5627 36.0636 92.7289 36.2153 92.7289 36.3839V37.1596C93.1446 36.4345 93.8428 35.9624 94.6906 35.9624Z" fill="white"/>
<path d="M97.8038 40.1274C97.8038 41.392 98.7348 42.4207 99.965 42.4207C101.195 42.4207 102.11 41.392 102.11 40.1274C102.11 38.8627 101.195 37.851 99.965 37.851C98.7348 37.851 97.8038 38.8627 97.8038 40.1274ZM95.6426 40.1105C95.6426 37.5137 97.5378 35.8275 99.6159 35.8275C100.763 35.8275 101.694 36.3502 102.093 37.0247V32.7248C102.093 32.5393 102.259 32.3876 102.442 32.3876H103.888C104.088 32.3876 104.237 32.5393 104.237 32.7248V43.8539C104.237 44.0394 104.088 44.1912 103.888 44.1912H102.442C102.259 44.1912 102.11 44.0394 102.11 43.8539V43.1963C101.644 43.9045 100.78 44.4273 99.6491 44.4273C97.5378 44.4273 95.6426 42.7242 95.6426 40.1105Z" fill="white"/>
<path d="M99.963 41.9512C98.8565 41.9512 98.0018 41.0259 98.0018 39.858C98.0018 38.692 98.8546 37.7816 99.963 37.7816C101.069 37.7816 101.908 38.6899 101.908 39.858C101.908 41.028 101.068 41.9512 99.963 41.9512ZM99.6139 35.3581C97.4222 35.3581 95.4406 37.1371 95.4406 39.8411C95.4406 42.5615 97.4216 44.3579 99.6471 44.3579C100.594 44.3579 101.374 44.0097 101.908 43.4836V43.5845C101.908 43.8778 102.144 44.1218 102.44 44.1218H103.886C104.193 44.1218 104.435 43.8842 104.435 43.5845V32.4554C104.435 32.1558 104.193 31.9182 103.886 31.9182H102.44C102.157 31.9182 101.891 32.1497 101.891 32.4554V36.1904C101.366 35.69 100.55 35.3581 99.6139 35.3581Z" fill="white" stroke="#FD6400" stroke-width="0.4"/>
</g>
<path d="M35.7754 27.9199H24.6227C23.9875 27.9192 23.3585 28.0438 22.7715 28.2865C22.1846 28.5293 21.6512 28.8854 21.2019 29.3346C20.7526 29.7839 20.3962 30.3173 20.1531 30.9045C19.91 31.4916 19.785 32.121 19.7852 32.7565V37.8457C19.7855 37.8543 19.7888 37.8625 19.7945 37.8689C19.8002 37.8754 19.8079 37.8797 19.8163 37.8812C19.8248 37.8826 19.8335 37.8812 19.841 37.877C19.8486 37.8728 19.8544 37.8662 19.8576 37.8582C20.3739 36.338 21.221 34.9515 22.3377 33.7986C24.5683 31.4968 27.698 30.2301 31.1345 30.2301C31.2491 30.2286 31.36 30.2709 31.4446 30.3484C31.5291 30.4259 31.581 30.5327 31.5895 30.6471C31.598 30.7615 31.5626 30.8749 31.4905 30.9641C31.4184 31.0533 31.315 31.1116 31.2014 31.1271C31.1512 31.1355 26.4475 31.8707 23.75 35.6415C22.8776 36.8766 22.2953 38.2929 22.0464 39.7848C22.0417 39.8124 22.0431 39.8406 22.0505 39.8676C22.0579 39.8946 22.0711 39.9197 22.0891 39.9411C22.1072 39.9625 22.1296 39.9797 22.155 39.9914C22.1804 40.0032 22.208 40.0094 22.236 40.0094H35.7754C35.846 40.0096 35.916 39.9958 35.9813 39.9689C36.0465 39.942 36.1059 39.9024 36.1559 39.8526C36.2058 39.8027 36.2455 39.7434 36.2726 39.6781C36.2996 39.6129 36.3136 39.5429 36.3136 39.4723V28.4584C36.3136 28.3156 36.2569 28.1786 36.1559 28.0776C36.055 27.9767 35.9181 27.9199 35.7754 27.9199Z" fill="white"/>
<defs>
<clipPath id="clip0_222_8236">
<rect width="69" height="36.5449" fill="white" transform="translate(43.3984 20.7275)"/>
</clipPath>
</defs>
</svg>
