<svg width="20" height="20" viewBox="0 0 20 20" fill="none" xmlns="http://www.w3.org/2000/svg">
<path d="M15.25 11.4437C13.75 9.95 12 9.375 10 9.375C8 9.375 6.25 9.95 4.75 11.4437C3.25 12.9375 2.5 14.725 2.5 16.7938C2.5 17.3938 2.775 17.9187 3.31875 18.3625C3.8625 18.8125 4.58126 19.1562 5.47501 19.3938C6.36251 19.6313 7.34376 19.8062 8.40626 19.9188C8.93751 19.975 9.46875 20 10 20C10.5312 20 11.0625 19.975 11.5937 19.9188C12.6562 19.8062 13.6312 19.6313 14.525 19.3938C15.4187 19.1562 16.1375 18.8125 16.6813 18.3625C17.225 17.9125 17.5 17.3875 17.5 16.7938C17.5 14.725 16.75 12.9375 15.25 11.4437ZM15.8875 17.3937C15.4813 17.725 14.9125 17.9937 14.2 18.1812C13.3813 18.4 12.4625 18.5625 11.4625 18.6688C10.975 18.725 10.4875 18.75 10 18.75C9.5125 18.75 9.025 18.725 8.5375 18.675C7.5375 18.5687 6.61874 18.4062 5.79374 18.1875C5.08124 18 4.51249 17.7313 4.11249 17.4C3.74999 17.1 3.75 16.8938 3.75 16.7938C3.75 15.0563 4.36876 13.5938 5.63126 12.3312C6.80001 11.1687 8.1875 10.625 10 10.625C11.8125 10.625 13.2 11.1687 14.3687 12.3312C15.6375 13.5938 16.25 15.0563 16.25 16.7938C16.25 16.8938 16.25 17.1 15.8875 17.3937Z" fill="#3A474E"/>
<path d="M10.0063 7.5C12.075 7.5 13.7563 5.81875 13.7563 3.75C13.7563 1.68125 12.075 0 10.0063 0C7.93751 0 6.25626 1.68125 6.25626 3.75C6.25626 5.81875 7.93751 7.5 10.0063 7.5ZM10.0063 1.25C11.3875 1.25 12.5063 2.36875 12.5063 3.75C12.5063 5.13125 11.3875 6.25 10.0063 6.25C8.62501 6.25 7.50626 5.13125 7.50626 3.75C7.50626 2.36875 8.63126 1.25 10.0063 1.25Z" fill="#3A474E"/>
</svg>
