<svg width="19" height="19" viewBox="0 0 19 19" fill="none" xmlns="http://www.w3.org/2000/svg">
<path d="M0.937996 8.15137C0.937996 4.05566 4.25147 0.742188 8.33839 0.742188C12.4341 0.742188 15.7476 4.05566 15.7476 8.15137C15.7476 9.58398 15.3257 10.9111 14.605 12.0186L18.103 15.5254C18.4458 15.877 18.6128 16.3164 18.6128 16.791C18.6128 17.793 17.8569 18.5664 16.8374 18.5664C16.3628 18.5664 15.9058 18.3994 15.563 18.0566L12.0298 14.5234C10.9575 15.1738 9.70069 15.5518 8.33839 15.5518C4.25147 15.5518 0.937996 12.2383 0.937996 8.15137ZM3.44288 8.15137C3.44288 10.8584 5.64014 13.0469 8.33839 13.0469C11.0454 13.0469 13.2427 10.8584 13.2427 8.15137C13.2427 5.44434 11.0454 3.25586 8.33839 3.25586C5.64014 3.25586 3.44288 5.44434 3.44288 8.15137Z" fill="#3A474E"/>
</svg>
