<svg width="20" height="20" viewBox="0 0 20 20" fill="none" xmlns="http://www.w3.org/2000/svg">
<path fill-rule="evenodd" clip-rule="evenodd" d="M16.8241 12.1985L15.2673 6.73033L17.5035 6.10033L19.0654 11.5678L16.8241 12.1985ZM15.4048 11.8503C15.3235 11.6991 15.2166 11.5678 15.0848 11.4572L10.7848 7.97471C10.6685 7.87971 10.511 7.85408 10.3691 7.90971C10.0248 8.04096 9.5985 8.14658 9.48725 8.12158C9.30975 8.07096 9.12225 8.14158 9.02038 8.29283C8.75163 8.70596 8.1535 9.38596 7.71725 9.46658C7.63163 9.48658 7.54475 9.46658 7.47413 9.41658C7.30163 9.29033 7.256 8.92283 7.35788 8.50408C7.58538 7.57658 8.43788 6.53846 9.87725 6.31221C9.88725 6.31221 10.9673 6.08033 13.5285 7.39096C13.6248 7.44096 13.736 7.45096 13.8423 7.42033L14.5323 7.21408L15.8354 11.7947C15.6985 11.846 15.551 11.866 15.4048 11.8503ZM14.5779 12.7422C14.5273 12.8028 14.2585 13.0853 13.9391 12.8178L13.8779 12.7678C13.8729 12.7678 13.8729 12.7622 13.8679 12.7578L12.0779 11.261C11.901 11.1147 11.6373 11.1347 11.4848 11.311C11.3379 11.4872 11.3579 11.7497 11.5354 11.9003H11.5404L13.3404 13.4028C13.4673 13.5135 13.5179 13.6347 13.4929 13.7803C13.4523 13.9722 13.3154 14.1335 13.1329 14.2041C12.991 14.2541 12.8591 14.2241 12.7273 14.1128L12.291 13.7453C12.2704 13.7153 12.2504 13.6903 12.2254 13.6697L10.7548 12.4753C10.5773 12.3241 10.3135 12.3441 10.1616 12.521C10.0091 12.6972 10.0298 12.9591 10.2073 13.1103L10.2223 13.1253L11.6879 14.3147C11.7029 14.3403 11.7229 14.3653 11.7435 14.3853C11.8648 14.4766 11.921 14.6272 11.8954 14.7785C11.8704 14.9297 11.7635 15.0603 11.6216 15.121C11.4441 15.1816 11.2566 15.076 11.1398 14.9747L9.401 13.4785C9.38038 13.4628 9.35538 13.4528 9.33475 13.4428C9.31475 13.4278 9.28913 13.4178 9.26913 13.4028C9.2435 13.3978 9.2185 13.3922 9.19288 13.3872C9.16788 13.3828 9.13725 13.3778 9.11163 13.3778C9.08663 13.3828 9.066 13.3872 9.041 13.3922C9.01038 13.3978 8.98538 13.4028 8.95475 13.4178C8.93413 13.4335 8.90913 13.4428 8.8885 13.4628C8.8685 13.4735 8.84288 13.4878 8.82288 13.5085C8.81788 13.5135 8.81788 13.5185 8.81788 13.5185C8.81288 13.5235 8.81288 13.5235 8.80725 13.5235C8.79225 13.5435 8.78225 13.5641 8.77225 13.5841C8.75663 13.6091 8.74163 13.6347 8.72663 13.6597C8.72163 13.6847 8.716 13.7103 8.71163 13.7353C8.706 13.7603 8.701 13.791 8.701 13.816L8.716 13.8916C8.72163 13.9166 8.72663 13.9416 8.73663 13.9672C8.75163 13.9922 8.76725 14.0172 8.78725 14.0372C8.79725 14.0578 8.81288 14.0778 8.82288 14.0928L9.48163 14.7278C9.71538 14.9241 9.68975 15.1666 9.5685 15.3078C9.421 15.4791 9.18288 15.4535 8.91413 15.2272C7.8085 14.3747 4.9135 11.9816 4.381 10.8122L5.466 7.01221C5.6585 6.96221 6.16038 6.88158 7.32163 6.82596C6.92663 7.28971 6.65288 7.81346 6.531 8.31283C6.34288 9.09346 6.50538 9.75908 6.96725 10.0972C7.22038 10.2835 7.54475 10.3591 7.85413 10.2985C8.59975 10.1622 9.27413 9.35596 9.5685 8.96283C9.85225 8.94783 10.1816 8.85658 10.4304 8.78158L14.5373 12.1122C14.5979 12.1585 14.6435 12.2235 14.6691 12.2935C14.6741 12.3141 14.6791 12.3341 14.6891 12.3547C14.7404 12.531 14.6135 12.7022 14.5779 12.7422ZM3.17413 12.0316L0.932878 11.4022L2.49475 5.93408L4.736 6.56408L3.17413 12.0316ZM19.9829 11.7441L18.1985 5.47533C18.1373 5.25408 17.9041 5.12283 17.681 5.18783L14.6335 6.04471C14.5273 6.07533 14.436 6.14533 14.3804 6.24158C14.3498 6.29221 14.3348 6.34721 14.3291 6.40283L13.7616 6.57408C11.0035 5.19346 9.79163 5.47033 9.70475 5.50033C9.2485 5.57096 8.80725 5.72283 8.40163 5.94908C6.99725 5.97971 6.15038 6.04971 5.6335 6.13033C5.58788 6.00471 5.48663 5.91346 5.35975 5.87346L2.31225 5.01721C2.08913 4.95096 1.861 5.08221 1.79538 5.30408L0.0153785 11.5735C-0.0458715 11.7947 0.0810035 12.0272 0.304128 12.0872L3.35163 12.9441C3.38725 12.9541 3.42788 12.9591 3.4635 12.9591C3.53413 12.9591 3.60538 12.9441 3.666 12.9091C3.76225 12.8535 3.8335 12.7622 3.86413 12.6566L4.08725 11.8753C5.31413 13.4835 8.04163 15.5997 8.39663 15.8722C8.716 16.1441 9.041 16.2497 9.33475 16.2497C9.67475 16.2497 9.99913 16.0985 10.2173 15.8416C10.3085 15.731 10.3791 15.6047 10.4304 15.4685L10.5873 15.6047C10.8716 15.8416 11.1904 15.9678 11.5054 15.9678C11.6416 15.9678 11.7735 15.9478 11.901 15.9022C12.291 15.756 12.5904 15.4285 12.6966 15.0253C12.9298 15.086 13.1785 15.071 13.4066 14.9903C13.8729 14.8185 14.2129 14.416 14.3091 13.9316C14.3191 13.8766 14.3241 13.821 14.3291 13.7653C14.6741 13.7247 14.9935 13.5541 15.2166 13.2866C15.3641 13.1153 15.4654 12.9141 15.516 12.6922C15.7035 12.6922 15.891 12.6616 16.0685 12.606L16.1341 12.8335C16.1648 12.9391 16.236 13.0297 16.3323 13.0853C16.3935 13.121 16.4641 13.1353 16.5354 13.1353C16.576 13.1353 16.611 13.1303 16.6516 13.121L19.6991 12.2635C19.9173 12.1985 20.0491 11.9666 19.9829 11.7441Z" fill="#3A474E"/>
</svg>
