<svg width="110" height="49" viewBox="0 0 110 49" fill="none" xmlns="http://www.w3.org/2000/svg">
<path d="M94.9766 49H0.501003C0.224134 49 0 48.7806 0 48.5102V14.6999C0 6.58108 6.72616 0 15.024 0H109.5C109.776 0 110 0.219369 110 0.489817V34.3001C110 42.4184 103.274 49 94.9766 49Z" fill="#FD6400"/>
<path d="M26.1415 14.5354H21.5608C18.9781 14.5354 16.883 16.6011 16.8619 19.155V15.429C16.8619 14.9171 16.4745 14.5348 16.0026 14.5348H12.1825C11.71 14.5348 11.3226 14.9171 11.3226 15.429V34.1936C11.3226 34.6609 11.7089 35.0437 12.1803 35.0437H16.0042C16.4756 35.0437 16.8619 34.6609 16.8619 34.1936L16.8635 22.5757C16.8635 22.5477 16.8651 22.5192 16.8689 22.4907C17.0588 21.2186 17.6175 20.0599 18.505 19.1512C19.7316 17.8985 21.4436 17.2081 23.3271 17.2081C23.4568 17.2081 23.5642 17.3076 23.5745 17.4366C23.5837 17.5651 23.492 17.6791 23.3635 17.6974C23.3374 17.7011 20.7585 18.1012 19.2792 20.1545C18.785 20.8433 18.4665 21.6374 18.3249 22.5332H21.7176C24.3139 22.5332 26.4182 20.4476 26.4182 17.8743V14.8096C26.4182 14.6585 26.2939 14.5354 26.1415 14.5354Z" fill="white"/>
<path d="M34.9779 17.7016C35.1917 16.6892 35.9951 16.0257 36.9672 16.0257C37.8867 16.0257 38.7378 16.6096 38.9391 17.7016H34.9779ZM36.9493 14.3019C34.474 14.3019 32.7033 16.194 32.7033 18.5641C32.7033 20.9336 34.474 22.7595 36.9986 22.7595C37.8194 22.7595 38.5062 22.5912 39.0904 22.3261C39.6931 22.0433 40.2101 21.632 40.5627 21.168C40.6653 21.0352 40.6653 20.8491 40.4781 20.7346L39.2912 20.005C39.1083 19.9077 38.9744 19.9561 38.8583 20.0889C38.6223 20.3545 38.4037 20.5351 38.1227 20.6857C37.8194 20.8362 37.4668 20.9336 37.0344 20.9336C35.9457 20.9336 35.0446 20.1862 34.9242 19.063H40.6788C40.9821 19.063 41.0667 18.8953 41.0667 18.6963V18.2984C41.0667 16.1763 39.4431 14.3019 36.9493 14.3019Z" fill="white"/>
<path d="M43.8008 22.5256C43.5664 22.5256 43.4156 22.3767 43.3489 22.1778L40.79 15.0493C40.6896 14.7837 40.8405 14.5353 41.1079 14.5353H42.7304C42.9811 14.5353 43.0814 14.6843 43.1487 14.8676L44.9714 20.354L46.6439 14.8676C46.6938 14.6843 46.811 14.5353 47.0621 14.5353H48.6511C48.919 14.5353 49.0693 14.7837 48.9858 15.0493L46.4263 22.1778C46.3764 22.3767 46.2094 22.5256 45.9918 22.5256H43.8008Z" fill="white"/>
<path d="M50.8616 17.7016C51.0802 16.6892 51.8831 16.0257 52.8509 16.0257C53.7704 16.0257 54.6264 16.6096 54.8271 17.7016H50.8616ZM52.833 14.3019C50.362 14.3019 48.587 16.194 48.587 18.5641C48.587 20.9336 50.362 22.7595 52.8867 22.7595C53.7031 22.7595 54.3899 22.5912 54.9742 22.3261C55.5768 22.0433 56.0987 21.632 56.4464 21.168C56.549 21.0352 56.549 20.8491 56.3656 20.7346L55.1749 20.005C54.9921 19.9077 54.8581 19.9561 54.742 20.0889C54.506 20.3545 54.2917 20.5351 54.0064 20.6857C53.7031 20.8362 53.3554 20.9336 52.9182 20.9336C51.8294 20.9336 50.9283 20.1862 50.8128 19.063H56.5669C56.8658 19.063 56.9504 18.8953 56.9504 18.6963V18.2984C56.9504 16.1763 55.3268 14.3019 52.833 14.3019Z" fill="white"/>
<path d="M89.1384 24.9158C88.9876 24.7669 88.9707 24.5185 89.1216 24.3196L89.6402 23.6066C89.8409 23.3415 90.1246 23.3743 90.3259 23.5233C90.6107 23.7389 90.9443 23.905 91.3457 23.905C91.8643 23.905 92.2495 23.5571 92.4334 23.0598L92.626 22.5264H91.8741C91.656 22.5264 91.5226 22.3936 91.4553 22.1952L89.0136 15.0496C88.9463 14.7845 88.9968 14.5366 89.364 14.5366H91.0875C91.2882 14.5366 91.4048 14.7017 91.4553 14.8845L93.2118 20.5865L94.8669 14.8845C94.9174 14.7017 95.0514 14.5366 95.302 14.5366H96.9582C97.2593 14.5366 97.3596 14.7517 97.2593 15.0496L94.5572 23.391C94.089 24.8164 93.086 25.7449 91.4965 25.7449C90.5434 25.7449 89.6901 25.4304 89.1384 24.9158Z" fill="white"/>
<path d="M84.1199 20.783C82.8798 20.783 81.943 19.7749 81.943 18.528C81.943 17.286 82.8798 16.2913 84.1199 16.2913C85.3557 16.2913 86.279 17.286 86.279 18.528C86.279 19.7749 85.3557 20.783 84.1199 20.783ZM88.0855 14.5358H86.6088C86.4439 14.5358 86.279 14.6858 86.279 14.8853V15.5133C85.8776 14.8186 84.9543 14.3019 83.8167 14.3019C81.6934 14.3019 79.7709 15.9461 79.7709 18.5151C79.7709 21.0836 81.6934 22.7595 83.8031 22.7595C84.9407 22.7595 85.8597 22.2423 86.279 21.5476V22.1933C86.279 22.3745 86.426 22.5251 86.6088 22.5251H88.0855C88.2683 22.5251 88.4202 22.3745 88.4202 22.1933V14.8853C88.4202 14.6858 88.2683 14.5358 88.0855 14.5358Z" fill="white"/>
<path d="M74.8945 20.7788C73.6501 20.7788 72.7132 19.7621 72.7132 18.5153C72.7132 17.2684 73.6501 16.2694 74.8945 16.2694C76.139 16.2694 77.0623 17.2684 77.0623 18.5153C77.0623 19.7621 76.139 20.7788 74.8945 20.7788ZM78.8736 11.5298H77.397C77.2321 11.5298 77.0672 11.6804 77.0623 11.875L77.0444 15.4516C76.9554 15.3054 76.8388 15.1672 76.701 15.0392C76.2138 14.586 75.4462 14.2709 74.5419 14.2709C72.4458 14.2709 70.5276 15.9377 70.5276 18.4975C70.5276 21.0794 72.4458 22.7596 74.5777 22.7596C75.7196 22.7596 76.5898 22.2424 77.0623 21.5434V22.1935C77.0623 22.3746 77.2142 22.5252 77.397 22.5252H78.8557C79.0608 22.5252 79.2078 22.3746 79.2078 22.1935V11.875C79.2034 11.6804 79.0385 11.5298 78.8736 11.5298Z" fill="white"/>
<path d="M63.2247 14.5359H61.44C60.4337 14.5359 59.6173 15.3408 59.6091 16.336V14.8837C59.6091 14.6843 59.4583 14.5359 59.2744 14.5359H57.7859C57.602 14.5359 57.4512 14.6843 57.4512 14.8837V22.1944C57.4512 22.3772 57.602 22.5262 57.7853 22.5262H59.275C59.4589 22.5262 59.6091 22.3772 59.6091 22.1944L59.6097 17.6689C59.6097 17.6576 59.6108 17.6463 59.6124 17.6355C59.6862 17.1398 59.9037 16.6882 60.2498 16.3344C60.7272 15.8462 61.3939 15.5773 62.1284 15.5773C62.1789 15.5773 62.2206 15.616 62.2244 15.666C62.2282 15.716 62.1924 15.7607 62.1425 15.7677C62.1322 15.7693 61.127 15.9252 60.5509 16.7253C60.3583 16.9936 60.2346 17.3032 60.1793 17.6517H61.5013C62.5125 17.6517 63.3322 16.8392 63.3322 15.837V14.6429C63.3322 14.5837 63.2844 14.5359 63.2247 14.5359Z" fill="white"/>
<path d="M70.4251 14.5359H68.77C68.5183 14.5359 68.3848 14.7015 68.3349 14.8837L66.6787 20.5868L64.9222 14.8837C64.8723 14.7015 64.7556 14.5359 64.5549 14.5359H64.0097V15.837C64.0097 16.493 63.7504 17.0887 63.3295 17.5339L64.9222 22.1944C64.9894 22.3934 65.1234 22.5262 65.341 22.5262H66.0934L65.9003 23.059C65.7164 23.5563 65.3317 23.9042 64.8137 23.9042C64.4117 23.9042 64.0775 23.7386 63.7927 23.5235C63.5926 23.3741 63.3078 23.3407 63.107 23.6058L62.5884 24.3188C62.4376 24.5182 62.455 24.7661 62.6053 24.9156C63.157 25.4301 64.0097 25.7447 64.9634 25.7447C66.5529 25.7447 67.5559 24.8161 68.0246 23.3902L70.7262 15.0499C70.8265 14.7509 70.7262 14.5359 70.4251 14.5359Z" fill="white"/>
<path d="M58.4705 27.0012H57.066C56.8154 27.0012 56.6976 27.1668 56.6477 27.3324L55.1934 32.436L53.8051 27.3324C53.739 27.1002 53.5882 27.0012 53.3712 27.0012H51.632C51.415 27.0012 51.281 27.1002 51.2137 27.3324L49.8266 32.436L48.4053 27.3324C48.3549 27.1502 48.2382 27.0012 47.9876 27.0012H46.4161C46.1481 27.0012 45.9978 27.1835 46.0976 27.4819L48.4221 34.6399C48.4894 34.8389 48.6397 34.9878 48.8572 34.9878H50.7293C50.9468 34.9878 51.1139 34.8389 51.1644 34.6399L52.4511 29.8509L53.739 34.6399C53.7889 34.8389 53.9565 34.9878 54.1903 34.9878H56.0125C56.2468 34.9878 56.3971 34.8389 56.4638 34.6399L58.7878 27.4819C58.8887 27.1835 58.7374 27.0012 58.4705 27.0012Z" fill="white"/>
<path d="M66.9168 27.0009H65.4456C65.278 27.0009 65.1109 27.1498 65.1109 27.3488V27.9784C64.7095 27.2821 63.79 26.7686 62.6535 26.7686C60.5302 26.7686 58.6077 28.4096 58.6077 30.9775C58.6077 33.546 60.5302 35.2192 62.6367 35.2192C63.7737 35.2192 64.6932 34.7057 65.1109 34.01V34.6568C65.1109 34.8385 65.2617 34.9875 65.4456 34.9875H66.9168C67.1007 34.9875 67.251 34.8385 67.251 34.6568V27.3488C67.251 27.1498 67.1007 27.0009 66.9168 27.0009ZM62.9546 33.2481C61.7172 33.2481 60.7809 32.2373 60.7809 30.9936C60.7809 29.7511 61.7172 28.7575 62.9546 28.7575C64.192 28.7575 65.1109 29.7511 65.1109 30.9936C65.1109 32.2373 64.192 33.2481 62.9546 33.2481Z" fill="white"/>
<path d="M86.9722 30.1655L85.6529 29.9171C84.9179 29.7849 84.6342 29.537 84.6342 29.1558C84.6342 28.7751 85.1023 28.4445 85.8368 28.4445C86.5383 28.4445 87.2234 28.759 87.7409 29.123C88.0415 29.3053 88.2921 29.3053 88.4923 29.0735L89.0271 28.4445C89.2105 28.2294 89.2441 27.9805 89.0103 27.7821C88.4923 27.3353 87.4236 26.7723 85.8867 26.7723C83.8156 26.7723 82.4794 27.8815 82.4794 29.3214C82.4794 30.6129 83.3479 31.4242 84.651 31.6882L85.9367 31.9538C86.7721 32.1194 87.2234 32.2845 87.2234 32.748C87.2234 33.162 86.8057 33.5426 85.9367 33.5426C85.0855 33.5426 84.4172 33.1792 83.8823 32.7152C83.6821 32.5496 83.4483 32.4173 83.131 32.6657L82.5125 33.162C82.1794 33.4271 82.1458 33.8072 82.7642 34.2712C83.3979 34.7508 84.434 35.2143 85.8368 35.2143C87.9579 35.2143 89.4275 34.0889 89.4275 32.5496C89.4275 31.1092 88.3919 30.4306 86.9722 30.1655Z" fill="white"/>
<path d="M46.3195 30.7622V31.1601C46.3195 31.359 46.236 31.5246 45.9349 31.5246H40.1824C40.2996 32.6516 41.2028 33.3973 42.2894 33.3973C42.7245 33.3973 43.0755 33.2978 43.3766 33.1489C43.6608 32.9994 43.8783 32.8177 44.1122 32.5521C44.2293 32.4193 44.3633 32.3698 44.5472 32.4693L45.7342 33.1984C45.9186 33.3145 45.9186 33.4968 45.8182 33.6291C45.4667 34.0931 44.9487 34.5076 44.3465 34.7893C43.7612 35.0544 43.0755 35.2206 42.2563 35.2206C39.7311 35.2206 37.9588 33.3973 37.9588 31.0273C37.9588 28.6572 39.7311 26.7678 42.2059 26.7678C44.6975 26.7678 46.3195 28.6411 46.3195 30.7622ZM42.2227 28.4916C41.2528 28.4916 40.4499 29.1546 40.2329 30.1654H44.1962C43.995 29.0718 43.1422 28.4916 42.2227 28.4916Z" fill="white"/>
<path d="M37.5732 26.9007C37.7402 26.9007 37.9578 26.9835 37.9578 27.3152V28.7406C37.9578 29.0718 37.6903 29.1546 37.5563 29.1546H37.1549C36.0851 29.1546 35.4662 29.7014 35.4662 31.0773V34.6738C35.4662 34.8561 35.2823 34.9883 35.1152 34.9883H33.6435C33.4596 34.9883 33.3093 34.8394 33.3093 34.6571V27.3486C33.3093 27.1496 33.4596 27.0002 33.6435 27.0002H35.0317C35.1987 27.0002 35.3658 27.1496 35.3658 27.3152V28.0777C35.7841 27.3647 36.4866 26.9007 37.3388 26.9007H37.5732Z" fill="white"/>
<path d="M77.2473 33.2473C76.005 33.2473 75.0649 32.2327 75.0649 30.9842C75.0649 29.7363 76.005 28.7389 77.2473 28.7389C78.489 28.7389 79.4123 29.7363 79.4123 30.9842C79.4123 32.2327 78.489 33.2473 77.2473 33.2473ZM79.7481 24.0031C79.5816 24.0031 79.408 24.1499 79.4047 24.3467V27.9233C79.0017 27.2576 78.0529 26.742 76.8947 26.742C74.7969 26.742 72.883 28.4061 72.883 30.9675C72.883 33.5467 74.7969 35.2264 76.9288 35.2264C78.0702 35.2264 78.942 34.7108 79.4123 34.0124V34.6613C79.4123 34.8441 79.5637 34.9941 79.7486 34.9941H81.2085C81.4103 34.9941 81.5605 34.8441 81.5605 34.6613V24.3472C81.5573 24.1504 81.3923 24.0036 81.2258 24.0036L79.7481 24.0031Z" fill="white"/>
<path d="M72.4929 26.9002C72.66 26.9002 72.8776 26.983 72.8776 27.3147V28.7401C72.8776 29.0713 72.6101 29.1541 72.4761 29.1541H72.0747C71.0049 29.1541 70.386 29.7009 70.386 31.0768V34.6733C70.386 34.8555 70.2021 34.9878 70.035 34.9878H68.5632C68.3793 34.9878 68.2291 34.8389 68.2291 34.6566V27.348C68.2291 27.1491 68.3793 26.9996 68.5632 26.9996H69.9509C70.1185 26.9996 70.2856 27.1491 70.2856 27.3147V28.0771C70.7038 27.3642 71.4064 26.9002 72.2586 26.9002H72.4929Z" fill="white"/>
</svg>
