<svg width="102" height="49" viewBox="0 0 102 49" fill="none" xmlns="http://www.w3.org/2000/svg">
<g clip-path="url(#clip0_323_2841)">
<path d="M87.2144 48.9998H0.492853C0.220658 48.9998 0 48.7804 0 48.5098V14.6998C0 6.58117 6.61973 -0.000244141 14.7856 -0.000244141H101.507C101.779 -0.000244141 102 0.219136 102 0.489756V34.2998C102 42.4183 95.3803 48.9998 87.2144 48.9998Z" fill="#FD6400"/>
<path d="M35.3567 12.115C33.1826 12.115 31.6274 13.7795 31.6274 15.8641C31.6274 17.9487 33.1826 19.5549 35.3998 19.5549C36.1206 19.5549 36.7238 19.4071 37.237 19.1738C37.7658 18.9249 38.2203 18.5632 38.5297 18.1548C38.6198 18.0381 38.6198 17.8748 38.4553 17.7737L37.4133 17.132C37.2527 17.0464 37.1352 17.0892 37.0333 17.2059C36.8257 17.4392 36.6337 17.5987 36.3869 17.7309C36.1206 17.8631 35.8111 17.9487 35.4311 17.9487C34.4753 17.9487 33.684 17.2914 33.5782 16.3036H38.6316C38.8979 16.3036 38.9724 16.1558 38.9724 15.9808V15.6307C38.9724 13.764 37.5465 12.115 35.3567 12.115ZM33.6253 15.1058C33.8133 14.2151 34.5184 13.6317 35.3724 13.6317C36.1793 13.6317 36.9275 14.1451 37.1038 15.1058H33.6253Z" fill="white"/>
<path d="M41.3731 19.3497C41.1675 19.3497 41.0351 19.2185 40.9765 19.0435L38.7292 12.7729C38.641 12.5394 38.7731 12.3208 39.0082 12.3208H40.433C40.6533 12.3208 40.7416 12.452 40.8003 12.6126L42.4012 17.4394L43.8701 12.6126C43.9138 12.452 44.0169 12.3208 44.2373 12.3208H45.6328C45.868 12.3208 46.0001 12.5394 45.9266 12.7729L43.6789 19.0435C43.6349 19.2185 43.4882 19.3497 43.2972 19.3497H41.3731Z" fill="white"/>
<path d="M49.3054 12.115C47.1352 12.115 45.5762 13.7795 45.5762 15.8641C45.5762 17.9487 47.1352 19.5549 49.3525 19.5549C50.0693 19.5549 50.6726 19.4071 51.1857 19.1738C51.7146 18.9249 52.1729 18.5632 52.4785 18.1548C52.5685 18.0381 52.5685 17.8748 52.4079 17.7737L51.362 17.132C51.2014 17.0464 51.0839 17.0892 50.982 17.2059C50.7744 17.4392 50.5864 17.5987 50.3357 17.7309C50.0693 17.8631 49.7638 17.9487 49.3799 17.9487C48.424 17.9487 47.6328 17.2914 47.5309 16.3036H52.5842C52.8467 16.3036 52.9211 16.1558 52.9211 15.9808V15.6307C52.9211 13.764 51.4952 12.115 49.3054 12.115ZM47.574 15.1058C47.7659 14.2151 48.4711 13.6317 49.3211 13.6317C50.1281 13.6317 50.8802 14.1451 51.0565 15.1058H47.574Z" fill="white"/>
<path d="M81.189 21.4515C81.0566 21.3203 81.0417 21.1019 81.1741 20.9269L81.6297 20.2995C81.8057 20.0665 82.0553 20.0956 82.2316 20.2267C82.4816 20.4164 82.7751 20.5623 83.1275 20.5623C83.5829 20.5623 83.9211 20.2561 84.0825 19.8185L84.2519 19.3495H83.5911C83.3997 19.3495 83.2828 19.2329 83.2236 19.0581L81.0793 12.7727C81.0204 12.5393 81.0646 12.3208 81.3874 12.3208H82.9006C83.0769 12.3208 83.1794 12.4663 83.2236 12.6268L84.7661 17.6433L86.2202 12.6268C86.2642 12.4663 86.3816 12.3208 86.6019 12.3208H88.0563C88.3207 12.3208 88.4088 12.5101 88.3207 12.7727L85.9478 20.1099C85.5366 21.3642 84.6554 22.1807 83.2596 22.1807C82.4226 22.1807 81.6736 21.9041 81.189 21.4515Z" fill="white"/>
<path d="M80.2638 12.3211H78.9671C78.8222 12.3211 78.6773 12.4533 78.6773 12.6284V13.1806C78.3247 12.57 77.5138 12.115 76.5149 12.115C74.6503 12.115 72.9619 13.5617 72.9619 15.8213C72.9619 18.0809 74.6503 19.5549 76.5032 19.5549C77.5021 19.5549 78.309 19.0999 78.6773 18.4893V19.0571C78.6773 19.2166 78.8065 19.3488 78.9671 19.3488H80.2638C80.4244 19.3488 80.5576 19.2166 80.5576 19.0571V12.6284C80.5576 12.4533 80.4244 12.3211 80.2638 12.3211ZM76.7813 17.8165C75.6923 17.8165 74.8696 16.9297 74.8696 15.833C74.8696 14.7402 75.6923 13.8651 76.7813 13.8651C77.8664 13.8651 78.6773 14.7402 78.6773 15.833C78.6773 16.9297 77.8664 17.8165 76.7813 17.8165Z" fill="white"/>
<path d="M72.174 9.67651H70.8774C70.7324 9.67651 70.5875 9.80875 70.5836 9.97988L70.5679 13.1262C70.4894 12.9977 70.3871 12.876 70.2663 12.7635C69.8384 12.365 69.1645 12.0878 68.3703 12.0878C66.5292 12.0878 64.8447 13.554 64.8447 15.8058C64.8447 18.077 66.5292 19.5549 68.4017 19.5549C69.4045 19.5549 70.1684 19.0999 70.5836 18.4854V19.0571C70.5836 19.2166 70.7168 19.3488 70.8774 19.3488H72.1584C72.3385 19.3488 72.4678 19.2166 72.4678 19.0571V16.4125V9.98377V9.97988C72.4639 9.80875 72.319 9.67651 72.174 9.67651ZM68.6798 17.8126C67.5868 17.8126 66.7642 16.9181 66.7642 15.8213C66.7642 14.7246 67.5868 13.8457 68.6798 13.8457C69.7727 13.8457 70.5836 14.7246 70.5836 15.8213C70.5836 16.9181 69.7727 17.8126 68.6798 17.8126Z" fill="white"/>
<path d="M58.4316 12.3209H56.8643C55.9806 12.3209 55.2638 13.0288 55.2565 13.9043V12.6271C55.2565 12.4517 55.124 12.3208 54.9625 12.3208H53.6553C53.4938 12.3208 53.3613 12.4517 53.3613 12.6271V19.0583C53.3613 19.2186 53.4934 19.3497 53.6548 19.3497H54.963C55.1244 19.3497 55.2565 19.2186 55.2565 19.0583L55.2569 15.0766C55.2569 15.0669 55.2576 15.0571 55.2591 15.0475C55.3238 14.6114 55.515 14.2143 55.8188 13.9029C56.2384 13.4735 56.8242 13.2371 57.4686 13.2371C57.5131 13.2371 57.5498 13.271 57.5532 13.3151C57.5564 13.3593 57.525 13.3983 57.4812 13.4045C57.472 13.4059 56.5897 13.5431 56.0837 14.2468C55.9145 14.4827 55.8057 14.7551 55.7569 15.062H56.9179C57.8061 15.062 58.5262 14.3472 58.5262 13.4653V12.4148C58.5262 12.363 58.4838 12.3209 58.4316 12.3209Z" fill="white"/>
<path d="M64.755 12.3208H63.3013C63.0806 12.3208 62.9632 12.4663 62.9192 12.6268L61.4648 17.6433L59.9226 12.6268C59.8784 12.4663 59.7759 12.3208 59.5996 12.3208H59.1211V13.4653C59.1211 14.0426 58.893 14.5669 58.5237 14.9582L59.9226 19.0581C59.9815 19.2328 60.0991 19.3495 60.2901 19.3495H60.9509L60.7812 19.8185C60.6198 20.2561 60.2819 20.5623 59.8268 20.5623C59.4739 20.5623 59.1803 20.4163 58.9303 20.2267C58.7546 20.0956 58.5047 20.0665 58.3284 20.2995L57.8728 20.9269C57.7405 21.1019 57.7556 21.3203 57.8877 21.4515C58.3723 21.9041 59.1213 22.1807 59.9586 22.1807C61.3544 22.1807 62.2356 21.3642 62.6467 20.1099L65.0195 12.7727C65.1075 12.5101 65.0195 12.3208 64.755 12.3208Z" fill="white"/>
<path d="M32.2666 35.6887V35.1278C32.2666 34.2573 32.9058 33.8809 33.5375 33.8809C33.8645 33.8809 34.2807 33.9989 34.526 34.2203C34.5929 34.2794 34.6003 34.3827 34.5408 34.4712L34.2584 34.8549C34.1767 34.9803 34.0503 34.9213 33.976 34.8696C33.8422 34.781 33.7159 34.7516 33.6267 34.7516C33.4186 34.7516 33.2254 34.8991 33.2254 35.2091V35.6887H33.9314C34.0131 35.6887 34.0875 35.7551 34.0875 35.8436V36.3307C34.0875 36.4118 34.0131 36.4855 33.9314 36.4855H33.2254V39.0902C33.2254 39.1715 33.1585 39.2452 33.0767 39.2452H32.4227C32.3409 39.2452 32.2666 39.1715 32.2666 39.0902V36.4855H31.7835C31.6943 36.4855 31.6274 36.4118 31.6274 36.3307V35.8436C31.6274 35.7551 31.6943 35.6887 31.7835 35.6887H32.2666Z" fill="white"/>
<path d="M36.3166 35.6443C36.3909 35.6443 36.4875 35.6812 36.4875 35.8287V36.4633C36.4875 36.6108 36.3686 36.6478 36.3092 36.6478H36.1308C35.6551 36.6478 35.3802 36.8913 35.3802 37.5036V39.105C35.3802 39.1861 35.2984 39.2451 35.2241 39.2451H34.57C34.4883 39.2451 34.4214 39.1787 34.4214 39.0976V35.8435C34.4214 35.755 34.4883 35.6886 34.57 35.6886H35.1869C35.2612 35.6886 35.3355 35.755 35.3355 35.8287V36.1682C35.5213 35.8508 35.8335 35.6443 36.2126 35.6443H36.3166Z" fill="white"/>
<path d="M38.4864 35.5854C39.5567 35.5854 40.4113 36.4119 40.4113 37.4744C40.4113 38.5296 39.5567 39.3486 38.4864 39.3486C37.4162 39.3486 36.5615 38.5296 36.5615 37.4744C36.5615 36.4119 37.4162 35.5854 38.4864 35.5854ZM38.4864 38.4632C39.0364 38.4632 39.4452 38.0204 39.4452 37.467C39.4452 36.9135 39.0364 36.4709 38.4864 36.4709C37.9365 36.4709 37.5277 36.9135 37.5277 37.467C37.5277 38.0204 37.9365 38.4632 38.4864 38.4632Z" fill="white"/>
<path d="M41.823 39.1052C41.823 39.1863 41.7413 39.2453 41.6669 39.2453H41.0129C40.9311 39.2453 40.8643 39.1789 40.8643 39.0978V35.8436C40.8643 35.7552 40.9311 35.6888 41.0129 35.6888H41.6669C41.7413 35.6888 41.823 35.7552 41.823 35.8289V36.1094C42.0311 35.8142 42.4547 35.5854 42.9378 35.5854C43.473 35.5854 43.8817 35.8363 44.0824 36.2127C44.4168 35.7625 44.8925 35.5854 45.3533 35.5854C46.4012 35.5854 46.8843 36.3232 46.8843 37.0908V39.1052C46.8843 39.1863 46.81 39.2453 46.7282 39.2453H46.0816C45.9999 39.2453 45.9255 39.1863 45.9255 39.1052V37.3194C45.9255 36.8398 45.6803 36.4635 45.16 36.4635C44.6398 36.4635 44.3574 36.8398 44.3574 37.3194V39.1052C44.3574 39.1863 44.2756 39.2453 44.2013 39.2453H43.5547C43.4804 39.2453 43.3986 39.1863 43.3986 39.1052V37.3194C43.3986 36.8398 43.1534 36.4635 42.6331 36.4635C42.1129 36.4635 41.823 36.8398 41.823 37.3194V39.1052Z" fill="white"/>
<path d="M52.4242 35.5633L51.4877 39.0902C51.458 39.2009 51.354 39.2453 51.2871 39.2453H50.2094C50.1351 39.2453 50.0385 39.2009 50.0087 39.0902L48.7527 34.3162C48.7156 34.1613 48.8047 34.0801 48.9162 34.0801H49.6892C49.7709 34.0801 49.8304 34.154 49.8527 34.2351L50.7817 38.0647L51.7999 34.2204C51.8222 34.1393 51.8594 34.0801 51.9708 34.0801H52.8627C52.9444 34.0801 53.0113 34.1466 53.0336 34.2204L54.0518 38.0352L54.9809 34.2351C54.9957 34.154 55.0552 34.0801 55.1443 34.0801H55.8727C55.9916 34.0801 56.0734 34.1393 56.0288 34.3162L54.7802 39.0902C54.7505 39.2009 54.6167 39.2453 54.5795 39.2453H53.5539C53.4795 39.2453 53.3829 39.2009 53.3532 39.0902L52.4242 35.5633Z" fill="white"/>
<path d="M57.5695 35.5854C58.6397 35.5854 59.4944 36.4119 59.4944 37.4744C59.4944 38.5296 58.6397 39.3486 57.5695 39.3486C56.4992 39.3486 55.6445 38.5296 55.6445 37.4744C55.6445 36.4119 56.4992 35.5854 57.5695 35.5854ZM57.5695 38.4632C58.1194 38.4632 58.5282 38.0204 58.5282 37.467C58.5282 36.9135 58.1194 36.4709 57.5695 36.4709C57.0195 36.4709 56.6107 36.9135 56.6107 37.467C56.6107 38.0204 57.0195 38.4632 57.5695 38.4632Z" fill="white"/>
<path d="M61.6867 35.5854C62.7569 35.5854 63.6116 36.4119 63.6116 37.4744C63.6116 38.5296 62.7569 39.3486 61.6867 39.3486C60.6164 39.3486 59.7617 38.5296 59.7617 37.4744C59.7617 36.4119 60.6164 35.5854 61.6867 35.5854ZM61.6867 38.4632C62.2366 38.4632 62.6454 38.0204 62.6454 37.467C62.6454 36.9135 62.2366 36.4709 61.6867 36.4709C61.1367 36.4709 60.7279 36.9135 60.7279 37.467C60.7279 38.0204 61.1367 38.4632 61.6867 38.4632Z" fill="white"/>
<path d="M64.0566 38.3598V34.2351C64.0566 34.154 64.1236 34.0801 64.2127 34.0801H64.8593C64.9485 34.0801 65.0154 34.154 65.0154 34.2351V38.1754C65.0154 38.3451 65.1046 38.4558 65.283 38.4558H65.4985C65.5728 38.4558 65.6472 38.4926 65.6472 38.5959V39.0608C65.6472 39.2158 65.5283 39.2453 65.4539 39.2453H64.9782C64.3391 39.2453 64.0566 38.8984 64.0566 38.3598Z" fill="white"/>
<path d="M67.6166 39.2452H66.7842C66.6875 39.2452 66.6206 39.1788 66.5909 39.0902L65.5578 35.9026C65.5133 35.7698 65.5801 35.6887 65.699 35.6887H66.3977C66.5092 35.6887 66.5612 35.7551 66.5835 35.8362L67.2152 38.1089L67.8321 35.8362C67.8618 35.7329 67.9213 35.6887 68.0179 35.6887H68.7908C68.8874 35.6887 68.9544 35.7329 68.9841 35.8362L69.6009 38.1089L70.2475 35.8362C70.2698 35.7625 70.3219 35.6887 70.4333 35.6887H71.0576C71.1765 35.6887 71.2435 35.7698 71.1988 35.9026L70.1658 39.0902C70.136 39.1788 70.0691 39.2452 69.9651 39.2452H69.155C69.051 39.2452 68.9766 39.1788 68.9544 39.0902L68.3821 36.9578L67.8098 39.0902C67.7875 39.1788 67.7132 39.2452 67.6166 39.2452Z" fill="white"/>
<path d="M73.1828 35.5854C74.253 35.5854 75.1077 36.4119 75.1077 37.4744C75.1077 38.5296 74.253 39.3486 73.1828 39.3486C72.1125 39.3486 71.2578 38.5296 71.2578 37.4744C71.2578 36.4119 72.1125 35.5854 73.1828 35.5854ZM73.1828 38.4632C73.7327 38.4632 74.1415 38.0204 74.1415 37.467C74.1415 36.9135 73.7327 36.4709 73.1828 36.4709C72.6328 36.4709 72.224 36.9135 72.224 37.467C72.224 38.0204 72.6328 38.4632 73.1828 38.4632Z" fill="white"/>
<path d="M77.4557 35.6443C77.5301 35.6443 77.6267 35.6812 77.6267 35.8287V36.4633C77.6267 36.6108 77.5078 36.6478 77.4483 36.6478H77.2699C76.7943 36.6478 76.5193 36.8913 76.5193 37.5036V39.105C76.5193 39.1861 76.4375 39.2451 76.3632 39.2451H75.7092C75.6275 39.2451 75.5605 39.1787 75.5605 39.0976V35.8435C75.5605 35.755 75.6275 35.6886 75.7092 35.6886H76.326C76.4004 35.6886 76.4747 35.755 76.4747 35.8287V36.1682C76.6605 35.8508 76.9727 35.6443 77.3517 35.6443H77.4557Z" fill="white"/>
<path d="M80.8189 38.7213C80.8784 38.8099 80.8635 38.8984 80.7966 38.9648C80.5662 39.1936 80.1946 39.319 79.7858 39.319C79.1913 39.319 78.5967 38.9944 78.5967 38.1974V36.4855H78.1062C78.0244 36.4855 77.9575 36.4118 77.9575 36.3307V35.8436C77.9575 35.7551 78.0244 35.6887 78.1062 35.6887H78.5967V34.6999C78.5967 34.6115 78.6636 34.5449 78.7527 34.5449H79.4068C79.4885 34.5449 79.5554 34.6115 79.5554 34.6999V35.6887H80.5959C80.6777 35.6887 80.752 35.7551 80.752 35.8436V36.3307C80.752 36.4118 80.6777 36.4855 80.5959 36.4855H79.5554V37.9835C79.5554 38.3451 79.7932 38.4409 79.9642 38.4409C80.0534 38.4409 80.1797 38.4114 80.3061 38.3302C80.4175 38.2638 80.529 38.2638 80.5959 38.3598L80.8189 38.7213Z" fill="white"/>
<path d="M83.8877 37.3857C83.8877 36.825 83.5682 36.4635 83.0182 36.4635C82.4757 36.4635 82.1189 36.8398 82.1189 37.3857V39.1051C82.1189 39.1862 82.0371 39.2453 81.9628 39.2453H81.3088C81.2271 39.2453 81.1602 39.1789 81.1602 39.0978V34.2277C81.1602 34.1466 81.2271 34.0801 81.3088 34.0801H81.9628C82.0371 34.0801 82.1189 34.1393 82.1189 34.2204V36.1093C82.327 35.8215 82.7358 35.5854 83.3081 35.5854C84.2594 35.5854 84.8465 36.2495 84.8465 37.1275V39.1051C84.8465 39.1862 84.7722 39.2453 84.6904 39.2453H84.0438C83.9621 39.2453 83.8877 39.1862 83.8877 39.1051V37.3857Z" fill="white"/>
<path d="M88.2278 36.0356C88.3318 36.1241 88.3169 36.2348 88.2352 36.3308L87.9973 36.611C87.9082 36.7144 87.7967 36.7144 87.6629 36.6333C87.4325 36.4709 87.1278 36.3308 86.8157 36.3308C86.4886 36.3308 86.2805 36.4783 86.2805 36.648C86.2805 36.8177 86.4069 36.9284 86.7339 36.9874L87.321 37.0981C87.9528 37.2162 88.4135 37.5187 88.4135 38.1607C88.4135 38.8468 87.7595 39.3486 86.8157 39.3486C86.1914 39.3486 85.7306 39.1419 85.4481 38.9281C85.1731 38.7214 85.188 38.5516 85.3367 38.4336L85.6117 38.2122C85.7529 38.1016 85.8569 38.1607 85.9461 38.2344C86.1839 38.4409 86.4812 38.6033 86.8602 38.6033C87.2467 38.6033 87.4325 38.4336 87.4325 38.2491C87.4325 38.0426 87.2319 37.9687 86.8602 37.895L86.288 37.7769C85.7082 37.6588 85.3218 37.2973 85.3218 36.7217C85.3218 36.0798 85.9163 35.5854 86.8379 35.5854C87.5217 35.5854 87.9973 35.8363 88.2278 36.0356Z" fill="white"/>
<path d="M31.4062 22.0152C31.4062 21.371 31.9371 20.8293 32.6007 20.8293C33.2495 20.8293 33.7804 21.371 33.7804 22.0152C33.7804 22.6593 33.2495 23.201 32.6007 23.201C31.9371 23.201 31.4062 22.6593 31.4062 22.0152Z" fill="white"/>
<path d="M31.9518 31.1803C31.7748 31.1803 31.6421 31.034 31.6421 30.8729V24.431C31.6421 24.2553 31.7748 24.1235 31.9518 24.1235H33.2347C33.4117 24.1235 33.5444 24.2553 33.5444 24.431V30.8729C33.5444 31.034 33.4117 31.1803 33.2347 31.1803H31.9518Z" fill="white"/>
<path d="M39.9295 27.4908C39.9295 26.3781 39.2954 25.6607 38.2042 25.6607C37.1277 25.6607 36.4199 26.4074 36.4199 27.4908V30.902C36.4199 31.0631 36.2576 31.1802 36.1102 31.1802H34.8125C34.6503 31.1802 34.5176 31.0485 34.5176 30.8874V24.4309C34.5176 24.2552 34.6503 24.1234 34.8125 24.1234H36.1102C36.2576 24.1234 36.4199 24.2552 36.4199 24.4016V24.9579C36.8328 24.387 37.6439 23.9185 38.7793 23.9185C40.6668 23.9185 41.8318 25.2362 41.8318 26.9784V30.902C41.8318 31.0631 41.6844 31.1802 41.5222 31.1802H40.2392C40.077 31.1802 39.9295 31.0631 39.9295 30.902V27.4908Z" fill="white"/>
<path d="M48.2464 24.8116C48.4528 24.9873 48.4234 25.2069 48.2611 25.3971L47.7893 25.9535C47.6123 26.1585 47.3911 26.1585 47.1257 25.9974C46.6685 25.6753 46.064 25.3971 45.4446 25.3971C44.7957 25.3971 44.3829 25.69 44.3829 26.0267C44.3829 26.3635 44.6335 26.5831 45.2823 26.7002L46.4473 26.9198C47.7008 27.154 48.6151 27.7543 48.6151 29.028C48.6151 30.3896 47.3173 31.3852 45.4446 31.3852C44.2059 31.3852 43.2916 30.9752 42.7312 30.5507C42.1856 30.1407 42.2151 29.804 42.51 29.5698L43.0556 29.1305C43.3359 28.9109 43.5422 29.028 43.7192 29.1745C44.1911 29.5844 44.7809 29.9065 45.533 29.9065C46.2999 29.9065 46.6685 29.5698 46.6685 29.2037C46.6685 28.7938 46.2704 28.6474 45.533 28.5009L44.3976 28.2667C43.2474 28.0325 42.4805 27.3151 42.4805 26.1731C42.4805 24.8994 43.6603 23.9185 45.4888 23.9185C46.8455 23.9185 47.7893 24.4163 48.2464 24.8116Z" fill="white"/>
<path d="M51.0039 28.0619C51.0039 29.0867 51.5201 29.7748 52.5965 29.7748C53.6435 29.7748 54.2334 29.0721 54.2334 28.0911V24.4017C54.2334 24.2553 54.3809 24.1235 54.5284 24.1235H55.826C56.003 24.1235 56.1357 24.2553 56.1357 24.431V30.8875C56.1357 31.0486 56.003 31.1803 55.826 31.1803H54.5284C54.3809 31.1803 54.2334 31.0632 54.2334 30.9021V30.3458C53.7911 30.9461 53.1422 31.3853 52.0215 31.3853C50.2077 31.3853 49.1016 30.1701 49.1016 28.3839V24.4017C49.1016 24.2553 49.249 24.1235 49.4112 24.1235H50.6942C50.8565 24.1235 51.0039 24.2553 51.0039 24.4017V28.0619Z" fill="white"/>
<path d="M60.8693 24.0356C61.0167 24.0356 61.2084 24.1089 61.2084 24.4017V25.6608C61.2084 25.9536 60.9725 26.0267 60.8544 26.0267H60.5006C59.5568 26.0267 59.0112 26.5099 59.0112 27.7251V30.9021C59.0112 31.0632 58.8489 31.1803 58.7015 31.1803H57.4038C57.2416 31.1803 57.1089 31.0485 57.1089 30.8874V24.431C57.1089 24.2552 57.2416 24.1235 57.4038 24.1235H58.6277C58.7753 24.1235 58.9227 24.2552 58.9227 24.4017V25.0751C59.2914 24.4456 59.9106 24.0356 60.6628 24.0356H60.8693Z" fill="white"/>
<path d="M64.6439 23.9185C65.6467 23.9185 66.4578 24.3724 66.8116 24.9873V24.4309C66.8116 24.2552 66.9591 24.1234 67.1066 24.1234H68.4043C68.5665 24.1234 68.6992 24.2552 68.6992 24.4309V30.8874C68.6992 31.0485 68.5665 31.1802 68.4043 31.1802H67.1066C66.9443 31.1802 66.8116 31.0485 66.8116 30.8874V30.3164C66.443 30.9314 65.632 31.3852 64.6291 31.3852C62.7712 31.3852 61.0752 29.9065 61.0752 27.6372C61.0752 25.3679 62.7712 23.9185 64.6439 23.9185ZM64.9094 29.6429C66.0006 29.6429 66.8116 28.7499 66.8116 27.6518C66.8116 26.5538 66.0006 25.6753 64.9094 25.6753C63.8182 25.6753 62.9923 26.5538 62.9923 27.6518C62.9923 28.7499 63.8182 29.6429 64.9094 29.6429Z" fill="white"/>
<path d="M75.0843 27.4908C75.0843 26.3781 74.4502 25.6607 73.359 25.6607C72.2825 25.6607 71.5747 26.4074 71.5747 27.4908V30.902C71.5747 31.0631 71.4124 31.1802 71.265 31.1802H69.9673C69.8051 31.1802 69.6724 31.0485 69.6724 30.8874V24.4309C69.6724 24.2552 69.8051 24.1234 69.9673 24.1234H71.265C71.4124 24.1234 71.5747 24.2552 71.5747 24.4016V24.9579C71.9876 24.387 72.7987 23.9185 73.934 23.9185C75.8216 23.9185 76.9866 25.2362 76.9866 26.9784V30.902C76.9866 31.0631 76.8392 31.1802 76.677 31.1802H75.394C75.2318 31.1802 75.0843 31.0631 75.0843 30.902V27.4908Z" fill="white"/>
<path d="M81.3222 23.9185C82.782 23.9185 83.9322 24.6212 84.5221 25.5875C84.6401 25.7778 84.5516 25.9974 84.3895 26.1145L83.6669 26.6709C83.4161 26.8613 83.1949 26.7734 83.0475 26.5831C82.5755 26.012 82.1184 25.6753 81.3517 25.6753C80.2456 25.6753 79.4494 26.5538 79.4494 27.6518C79.4494 28.7499 80.2456 29.6283 81.3517 29.6283C82.1184 29.6283 82.5755 29.2916 83.0475 28.7205C83.1949 28.5303 83.4161 28.4425 83.6669 28.6328L84.3895 29.1891C84.5516 29.3062 84.6401 29.5258 84.5221 29.7162C83.9322 30.6824 82.782 31.3852 81.3222 31.3852C79.1839 31.3852 77.5322 29.76 77.5322 27.6518C77.5322 25.5436 79.1839 23.9185 81.3222 23.9185Z" fill="white"/>
<path d="M92.0428 27.4468V27.7983C92.0428 27.9739 91.969 28.1204 91.7035 28.1204H86.6308C86.734 29.1159 87.5304 29.7746 88.4889 29.7746C88.8722 29.7746 89.1819 29.6869 89.4474 29.5551C89.698 29.4233 89.8897 29.2623 90.0962 29.028C90.1994 28.9109 90.3174 28.867 90.4797 28.9549L91.5267 29.599C91.6888 29.7015 91.6888 29.8625 91.6003 29.9796C91.2907 30.3896 90.8335 30.7556 90.3027 31.0045C89.7865 31.2388 89.1819 31.3852 88.4594 31.3852C86.2326 31.3852 84.6694 29.7746 84.6694 27.6811C84.6694 25.5875 86.2326 23.9185 88.4151 23.9185C90.6123 23.9185 92.0428 25.5729 92.0428 27.4468ZM88.4298 25.4411C87.5745 25.4411 86.8667 26.0267 86.675 26.9198H90.17C89.993 25.9535 89.2409 25.4411 88.4298 25.4411Z" fill="white"/>
<path d="M14.4798 12.3188C11.8676 12.3188 9.74783 14.4174 9.74023 17.0108L9.74027 21.2281C9.73553 23.1948 10.2361 24.974 11.2394 26.5272C11.6639 25.7656 12.1861 25.0589 12.8046 24.4251C14.8762 22.3058 17.7672 21.1377 20.9481 21.1377C21.1686 21.1377 21.3494 21.3067 21.3661 21.5236C21.383 21.7405 21.2275 21.9345 21.0111 21.9658C20.9649 21.972 16.6095 22.65 14.1114 26.123C13.6227 26.805 13.236 27.5494 12.9511 28.3535C12.9223 28.4347 12.9457 28.5261 13.01 28.5839C13.0519 28.6217 13.0943 28.6592 13.1371 28.6965C14.4527 29.8424 15.93 30.7407 17.5127 31.473L17.5949 31.5108C17.782 31.5969 17.9977 31.5969 18.1848 31.5109L18.267 31.473C19.8497 30.7407 21.327 29.8424 22.6426 28.6965C24.7093 26.8963 26.0272 24.6154 26.0272 22.0413L26.0272 13.2472C26.0303 12.7354 25.6132 12.3189 25.0976 12.3189L14.4922 12.3188" fill="white"/>
</g>
<defs>
<clipPath id="clip0_323_2841">
<rect width="102" height="49" fill="white"/>
</clipPath>
</defs>
</svg>
