<svg width="10" height="6" viewBox="0 0 10 6" fill="none" xmlns="http://www.w3.org/2000/svg">
<path d="M4.99987 5.70822C4.90254 5.70822 4.80521 5.69089 4.70787 5.65622C4.61054 5.62156 4.52054 5.55556 4.43787 5.45822L0.749874 1.79222C0.62454 1.65289 0.56554 1.48956 0.572874 1.30222C0.57954 1.11489 0.64554 0.958558 0.770874 0.833224C0.92354 0.694558 1.08321 0.628558 1.24987 0.635224C1.41654 0.642558 1.56921 0.708558 1.70787 0.833224L4.99987 4.14622L8.31187 0.854224C8.43721 0.715558 8.58321 0.646224 8.74987 0.646224C8.91654 0.646224 9.07621 0.715558 9.22887 0.854224C9.36821 0.992891 9.43787 1.15256 9.43787 1.33322C9.43787 1.51389 9.36821 1.66689 9.22887 1.79222L5.56187 5.45822C5.47921 5.55556 5.38921 5.62156 5.29187 5.65622C5.19454 5.69089 5.09721 5.70822 4.99987 5.70822Z" fill="#3A474E"/>
</svg>
