<svg width="16" height="17" viewBox="0 0 16 17" fill="none" xmlns="http://www.w3.org/2000/svg">
<path d="M15 12.5H5.5C5.27 12.5 5.075 12.29 5.015 12.085L5.81 10.5H14.5C14.785 10.5 15.015 10.275 15.015 10L16 3C16 2.725 15.77 2.5 15.485 2.5H3.03L2.97501 2.34C2.36501 0.52 0.595 0.5 0.5 0.5C0.225 0.5 0 0.725 0 1C0 1.275 0.225 1.5 0.5 1.5C0.515 1.5 1.64499 1.515 2.02499 2.66L4.73 10.42L4.05 11.78C4.01 11.855 3.995 11.94 4 12.02C4.025 12.735 4.635 13.5 5.5 13.5H6.5H13H15C15.275 13.5 15.5 13.275 15.5 13C15.5 12.725 15.275 12.5 15 12.5Z" fill="#3A474E"/>
<path d="M5 15C5 15.825 5.675 16.5 6.5 16.5C7.325 16.5 8 15.825 8 15C8 14.175 7.325 13.5 6.5 13.5C5.675 13.5 5 14.175 5 15ZM6.5 14C7.05 14 7.5 14.45 7.5 15C7.5 15.55 7.05 16 6.5 16C5.95 16 5.5 15.55 5.5 15C5.5 14.45 5.95 14 6.5 14Z" fill="#3A474E"/>
<path d="M11.5 15C11.5 15.825 12.175 16.5 13 16.5C13.825 16.5 14.5 15.825 14.5 15C14.5 14.175 13.825 13.5 13 13.5C12.175 13.5 11.5 14.175 11.5 15ZM13 14C13.55 14 14 14.45 14 15C14 15.55 13.55 16 13 16C12.45 16 12 15.55 12 15C12 14.45 12.45 14 13 14Z" fill="#3A474E"/>
</svg>
