<svg width="16" height="23" viewBox="0 0 16 23" fill="none" xmlns="http://www.w3.org/2000/svg">
<path d="M15.1416 0.686086H10.5609C7.9782 0.686086 5.88315 2.75181 5.862 5.30574V1.57969C5.862 1.06783 5.47467 0.685547 5.00271 0.685547H1.18258C0.710083 0.685547 0.322754 1.06783 0.322754 1.57969V20.3444C0.322754 20.8116 0.708998 21.1944 1.18041 21.1944H5.00434C5.47575 21.1944 5.862 20.8116 5.862 20.3444L5.86362 8.7264C5.86362 8.69844 5.86525 8.66994 5.86905 8.64145C6.05892 7.36932 6.61767 6.21064 7.50516 5.30198C8.73171 4.04921 10.4438 3.35884 12.3273 3.35884C12.4569 3.35884 12.5643 3.45831 12.5746 3.58735C12.5838 3.71586 12.4922 3.82984 12.3636 3.84812C12.3376 3.85188 9.75862 4.25191 8.27928 6.30527C7.78508 6.99403 7.46665 7.78817 7.32506 8.68392H10.7177C13.314 8.68392 15.4183 6.5983 15.4183 4.02502V0.960297C15.4183 0.809212 15.2941 0.686086 15.1416 0.686086Z" fill="#FD6400"/>
</svg>
