<svg width="133" height="70" viewBox="0 0 133 70" fill="none" xmlns="http://www.w3.org/2000/svg">
<path d="M0 20C0 8.9543 8.9543 0 20 0H133V50C133 61.0457 124.046 70 113 70H0V20Z" fill="#FD6400"/>
<path fill-rule="evenodd" clip-rule="evenodd" d="M72.1277 38.7988H70.5935C70.3201 38.7988 70.1921 38.9697 70.1371 39.14L68.5486 44.3988L67.0333 39.14C66.9603 38.9007 66.7955 38.7988 66.5591 38.7988H64.6595C64.4225 38.7988 64.2766 38.9007 64.2031 39.14L62.6881 44.3988L61.1359 39.14C61.081 38.9522 60.9532 38.7988 60.6794 38.7988H58.9637C58.6709 38.7988 58.5068 38.9866 58.616 39.2939L61.154 46.6696C61.2277 46.8746 61.3915 47.0282 61.6293 47.0282H63.6737C63.9112 47.0282 64.0939 46.8746 64.1488 46.6696L65.5544 41.7352L66.9603 46.6696C67.0152 46.8746 67.1979 47.0282 67.4535 47.0282H69.4434C69.6991 47.0282 69.8635 46.8746 69.9363 46.6696L72.4744 39.2939C72.5842 38.9866 72.4196 38.7988 72.1277 38.7988Z" fill="white"/>
<path fill-rule="evenodd" clip-rule="evenodd" d="M76.6503 45.5937C75.2914 45.5937 74.2625 44.5336 74.2625 43.2298C74.2625 41.9264 75.2914 40.8841 76.6503 40.8841C78.0096 40.8841 79.0196 41.9264 79.0196 43.2298C79.0196 44.5336 78.0096 45.5937 76.6503 45.5937ZM81.0034 39.0422H79.3873C79.2033 39.0422 79.0196 39.1981 79.0196 39.4072V40.0671C78.5786 39.337 77.5686 38.7988 76.3201 38.7988C73.9871 38.7988 71.875 40.5195 71.875 43.2126C71.875 45.9065 73.9871 47.6612 76.3015 47.6612C77.5504 47.6612 78.5604 47.1227 79.0196 46.3932V47.071C79.0196 47.2617 79.1853 47.4182 79.3873 47.4182H81.0034C81.2054 47.4182 81.3704 47.2617 81.3704 47.071V39.4072C81.3704 39.1981 81.2054 39.0422 81.0034 39.0422Z" fill="white"/>
<path fill-rule="evenodd" clip-rule="evenodd" d="M86.7012 38.7988H86.4779C85.6651 38.7988 84.9955 39.2711 84.5969 39.9962V39.2204C84.5969 39.0517 84.4373 38.9002 84.2777 38.9002H82.9551C82.7798 38.9002 82.6367 39.0517 82.6367 39.2544V46.6912C82.6367 46.8767 82.7798 47.0282 82.9551 47.0282H84.3579C84.5174 47.0282 84.6927 46.8934 84.6927 46.7079V43.0486C84.6927 41.649 85.2824 41.0923 86.3026 41.0923H86.6854C86.8128 41.0923 87.0679 41.008 87.0679 40.6707V39.2204C87.0679 38.8829 86.8607 38.7988 86.7012 38.7988Z" fill="white"/>
<path fill-rule="evenodd" clip-rule="evenodd" d="M91.8419 45.5392C90.4825 45.5392 89.454 44.4516 89.454 43.1141C89.454 41.7769 90.4825 40.7075 91.8419 40.7075C93.2011 40.7075 94.2109 41.7769 94.2109 43.1141C94.2109 44.4516 93.2011 45.5392 91.8419 45.5392ZM96.5166 35.8342C96.5034 35.8085 96.4873 35.7846 96.4691 35.7629C96.4599 35.7522 96.452 35.7411 96.442 35.7318C96.4143 35.7052 96.3825 35.6844 96.3484 35.6689C96.342 35.6658 96.3364 35.6623 96.3298 35.6598C96.3035 35.6498 96.2757 35.6443 96.2468 35.6432C96.229 35.6405 96.213 35.6328 96.1944 35.6328H94.5783C94.3962 35.6328 94.2156 35.7903 94.212 36.0011V36.4437C94.2116 36.4456 94.2109 36.4467 94.2109 36.4483L94.1927 39.8341C93.7517 39.1203 92.7233 38.5682 91.4561 38.5682C89.1604 38.5682 87.0664 40.3511 87.0664 43.0964C87.0664 45.8601 89.1604 47.6603 91.4931 47.6603C92.7421 47.6603 93.6965 47.1078 94.2109 46.3594V47.0548C94.2109 47.2505 94.3766 47.411 94.5786 47.411H96.1764C96.3972 47.411 96.5618 47.2505 96.5618 47.0548V36.006C96.5618 35.9628 96.5522 35.9189 96.5361 35.877C96.5308 35.8619 96.5237 35.8484 96.5166 35.8342Z" fill="white"/>
<path fill-rule="evenodd" clip-rule="evenodd" d="M52.7622 42.3609C52.9929 41.3008 53.8435 40.6058 54.8711 40.6058C55.8465 40.6058 56.75 41.2142 56.9631 42.3609H52.7622ZM54.8535 38.7988C53.7465 38.7988 52.7753 39.1557 52.0189 39.7511V40.2998C52.0189 40.2998 52.1334 42.0256 50.3883 42.7289C50.367 42.905 50.3516 43.0826 50.3516 43.2648C50.3516 45.7498 52.2307 47.6612 54.9069 47.6612C55.7757 47.6612 56.5022 47.4873 57.1223 47.2095C57.7604 46.9143 58.3101 46.4798 58.6824 45.9931C58.7891 45.8542 58.7891 45.6631 58.5942 45.5414L57.3354 44.7769C57.1399 44.6725 56.9986 44.7247 56.8741 44.8636C56.6263 45.1414 56.3962 45.3331 56.0947 45.4892C55.7757 45.6459 55.4034 45.7498 54.9426 45.7498C53.7898 45.7498 52.8331 44.9681 52.7086 43.786H58.8065C59.1255 43.786 59.2139 43.6124 59.2139 43.4037V42.9872C59.2139 40.7625 57.4946 38.7988 54.8535 38.7988Z" fill="white"/>
<path fill-rule="evenodd" clip-rule="evenodd" d="M102.183 42.3609L100.782 42.1003C100.001 41.9614 99.6997 41.7009 99.6997 41.3008C99.6997 40.9014 100.197 40.5539 100.977 40.5539C101.722 40.5539 102.45 40.8841 102.999 41.2664C103.319 41.4575 103.586 41.4575 103.798 41.2142L104.366 40.5539C104.561 40.328 104.597 40.0671 104.348 39.8589C103.798 39.3893 102.662 38.7988 101.03 38.7988C98.83 38.7988 97.411 39.9633 97.411 41.4747C97.411 42.8304 98.3331 43.6823 99.7171 43.9595L101.083 44.238C101.97 44.4119 102.45 44.5853 102.45 45.072C102.45 45.5065 102.006 45.9065 101.083 45.9065C100.179 45.9065 99.4687 45.5242 98.9009 45.0375C98.6884 44.8636 98.4397 44.7247 98.103 44.9853L97.446 45.5065C97.0918 45.7848 97.0561 46.1843 97.7131 46.671C98.3864 47.1745 99.487 47.6612 100.977 47.6612C103.23 47.6612 104.792 46.4798 104.792 44.8636C104.792 43.3515 103.691 42.6392 102.183 42.3609Z" fill="white"/>
<path fill-rule="evenodd" clip-rule="evenodd" d="M48.5413 27.3122C47.5133 27.3122 46.6621 28.0072 46.4317 29.0672H50.6331C50.4202 27.9202 49.5163 27.3122 48.5413 27.3122ZM52.8839 29.6928V30.11C52.8839 30.3182 52.7955 30.4923 52.4763 30.4923H46.3788C46.5028 31.6736 47.4598 32.4556 48.6124 32.4556C49.0731 32.4556 49.4452 32.3513 49.7644 32.1951C50.0657 32.0388 50.296 31.8476 50.5444 31.5695C50.6682 31.4304 50.8101 31.3784 51.005 31.4825L52.2637 32.2472C52.4587 32.3686 52.4587 32.5597 52.3525 32.6988C51.98 33.1854 51.4306 33.6199 50.7924 33.9151C50.1719 34.1933 49.4452 34.3673 48.5768 34.3673C45.9001 34.3673 44.0215 32.4556 44.0215 29.9709C44.0215 27.4857 45.9001 25.5049 48.5233 25.5049C51.1645 25.5049 52.8839 27.4686 52.8839 29.6928Z" fill="white"/>
<path fill-rule="evenodd" clip-rule="evenodd" d="M55.5177 33.7352C55.2662 33.7352 55.1046 33.5816 55.0325 33.3766L52.2835 26.0351C52.1759 25.7618 52.3375 25.5059 52.6249 25.5059H54.3677C54.6372 25.5059 54.7453 25.6595 54.817 25.8473L56.7753 31.4988L58.5719 25.8473C58.6259 25.6595 58.7518 25.5059 59.0212 25.5059H60.7282C61.0158 25.5059 61.1775 25.7618 61.0875 26.0351L58.3383 33.3766C58.2845 33.5816 58.105 33.7352 57.8712 33.7352H55.5177Z" fill="white"/>
<path fill-rule="evenodd" clip-rule="evenodd" d="M65.6332 27.3122C64.6048 27.3122 63.754 28.0072 63.5239 29.0672H67.7248C67.512 27.9202 66.6082 27.3122 65.6332 27.3122ZM69.9757 29.6928V30.11C69.9757 30.3182 69.8873 30.4923 69.5682 30.4923H63.4703C63.5947 31.6736 64.552 32.4556 65.7039 32.4556C66.165 32.4556 66.5371 32.3513 66.8562 32.1951C67.1576 32.0388 67.388 31.8476 67.6362 31.5695C67.7601 31.4304 67.9019 31.3784 68.0969 31.4825L69.3556 32.2472C69.5505 32.3686 69.5505 32.5597 69.4443 32.6988C69.0719 33.1854 68.5225 33.6199 67.8843 33.9151C67.2638 34.1933 66.5371 34.3673 65.6687 34.3673C62.992 34.3673 61.1133 32.4556 61.1133 29.9709C61.1133 27.4857 62.992 25.5049 65.6156 25.5049C68.2564 25.5049 69.9757 27.4686 69.9757 29.6928Z" fill="white"/>
<path fill-rule="evenodd" clip-rule="evenodd" d="M74.6741 25.5059C74.8334 25.5059 75.0406 25.5903 75.0406 25.9275V27.3776C75.0406 27.7149 74.7854 27.7993 74.6582 27.7993H74.2755C73.2554 27.7993 72.6657 28.3557 72.6657 29.7555V33.4148C72.6657 33.6006 72.4903 33.7352 72.3309 33.7352H70.928C70.7526 33.7352 70.6094 33.5836 70.6094 33.398V25.9613C70.6094 25.759 70.7526 25.6073 70.928 25.6073H72.2511C72.4107 25.6073 72.5698 25.759 72.5698 25.9275V26.7034C72.9684 25.978 73.6381 25.5059 74.451 25.5059H74.6741Z" fill="white"/>
<path fill-rule="evenodd" clip-rule="evenodd" d="M75.8339 36.644C75.6733 36.4839 75.6554 36.2173 75.8161 36.0035L76.3691 35.2388C76.5831 34.9541 76.8867 34.9899 77.1003 35.1499C77.4038 35.3812 77.7606 35.5593 78.1889 35.5593C78.7419 35.5593 79.1521 35.1855 79.3483 34.6518L79.5544 34.08H78.7516C78.5195 34.08 78.3769 33.9377 78.3057 33.7243L75.7008 26.0572C75.6292 25.7725 75.6827 25.5059 76.0757 25.5059H77.9131C78.127 25.5059 78.2517 25.6834 78.3057 25.8793L80.179 31.9988L81.9448 25.8793C81.9986 25.6834 82.141 25.5059 82.4088 25.5059H84.1748C84.4961 25.5059 84.6031 25.7369 84.4961 26.0572L81.614 35.0076C81.1147 36.5374 80.0444 37.5334 78.3494 37.5334C77.3323 37.5334 76.4225 37.1957 75.8339 36.644Z" fill="white"/>
<path fill-rule="evenodd" clip-rule="evenodd" d="M104.32 36.644C104.16 36.4839 104.142 36.2173 104.302 36.0035L104.855 35.2388C105.069 34.9541 105.373 34.9899 105.587 35.1499C105.89 35.3812 106.247 35.5593 106.675 35.5593C107.228 35.5593 107.638 35.1855 107.835 34.6518L108.04 34.08H107.238C107.005 34.08 106.863 33.9377 106.792 33.7243L104.187 26.0572C104.116 25.7725 104.169 25.5059 104.562 25.5059H106.399C106.613 25.5059 106.738 25.6834 106.792 25.8793L108.665 31.9988L110.431 25.8793C110.485 25.6834 110.627 25.5059 110.895 25.5059H112.661C112.982 25.5059 113.089 25.7369 112.982 26.0572L110.1 35.0076C109.601 36.5374 108.53 37.5334 106.836 37.5334C105.819 37.5334 104.909 37.1957 104.32 36.644Z" fill="white"/>
<path fill-rule="evenodd" clip-rule="evenodd" d="M99.1208 32.3004C100.389 32.3004 101.332 31.2404 101.332 29.9371C101.332 28.6337 100.389 27.5914 99.1208 27.5914C97.8521 27.5914 96.8921 28.6337 96.8921 29.9371C96.8921 31.2404 97.8521 32.3004 99.1208 32.3004ZM98.8123 25.5059C99.9778 25.5059 100.921 26.0448 101.332 26.7746V26.1142C101.332 25.9058 101.503 25.7494 101.675 25.7494H103.184C103.372 25.7494 103.526 25.9058 103.526 26.1142V33.7775C103.526 33.9687 103.372 34.125 103.184 34.125H101.675C101.486 34.125 101.332 33.9687 101.332 33.7775V33.0998C100.903 33.8296 99.9608 34.3682 98.795 34.3682C96.6352 34.3682 94.6641 32.6133 94.6641 29.9198C94.6641 27.2262 96.6352 25.5059 98.8123 25.5059Z" fill="white"/>
<path fill-rule="evenodd" clip-rule="evenodd" d="M50.8685 38.799H48.9476C47.8643 38.799 46.9858 39.6279 46.977 40.6528V39.1574C46.977 38.9522 46.8145 38.7988 46.6165 38.7988H45.8155H45.0145C44.8165 38.7988 44.6542 38.9522 44.6542 39.1574V46.687C44.6542 46.8746 44.8159 47.0282 45.0137 47.0282H45.8155H46.6172C46.8151 47.0282 46.9768 46.8746 46.977 46.687L46.9775 42.0253C46.9775 42.014 46.9783 42.0025 46.9801 41.9913C47.0594 41.4807 47.2937 41.0156 47.6661 40.6512C48.1804 40.1485 48.8985 39.8715 49.6883 39.8715C49.7427 39.8715 49.7878 39.9113 49.792 39.963C49.7959 40.0146 49.7574 40.0604 49.7037 40.0677C49.6925 40.0693 48.611 40.23 47.9909 41.0538C47.7833 41.3301 47.6501 41.6489 47.5903 42.0082H49.0133C50.1019 42.0082 50.9844 41.1713 50.9844 40.1389V38.9089C50.9844 38.8482 50.9326 38.799 50.8685 38.799Z" fill="white"/>
<path fill-rule="evenodd" clip-rule="evenodd" d="M89.3106 32.2462C87.9513 32.2462 86.9227 31.1587 86.9227 29.8211C86.9227 28.4839 87.9513 27.4146 89.3106 27.4146C90.6696 27.4146 91.6796 28.4839 91.6796 29.8211C91.6796 31.1587 90.6696 32.2462 89.3106 32.2462ZM93.9853 22.5412C93.9722 22.5155 93.956 22.4916 93.9378 22.47C93.9286 22.4592 93.9207 22.4481 93.9108 22.4388C93.883 22.4122 93.8513 22.3914 93.8171 22.3759C93.8107 22.3728 93.8051 22.3694 93.7985 22.3668C93.7723 22.3568 93.7445 22.3513 93.7156 22.3502C93.6977 22.3475 93.6818 22.3398 93.6632 22.3398H92.047C91.8649 22.3398 91.6843 22.4973 91.6807 22.7081V23.1508C91.6804 23.1526 91.6796 23.1537 91.6796 23.1553L91.6614 26.5411C91.2204 25.8274 90.192 25.2752 88.9249 25.2752C86.6291 25.2752 84.5352 27.0581 84.5352 29.8034C84.5352 32.5671 86.6291 34.3674 88.9618 34.3674C90.2108 34.3674 91.1652 33.8148 91.6796 33.0664V33.7618C91.6796 33.9575 91.8454 34.1181 92.0474 34.1181H93.6452C93.8659 34.1181 94.0306 33.9575 94.0306 33.7618V22.7131C94.0306 22.6699 94.021 22.6259 94.0049 22.584C93.9996 22.5689 93.9925 22.5554 93.9853 22.5412Z" fill="white"/>
<path fill-rule="evenodd" clip-rule="evenodd" d="M37.6911 23.272H32.2153C29.1273 23.272 26.6231 25.6349 26.5979 28.5564V24.2938C26.5979 23.7087 26.1348 23.2715 25.5703 23.2715H23.287H21.0036C20.4392 23.2715 19.9766 23.7087 19.9766 24.2938V45.7575C19.9766 46.2922 20.4376 46.73 21.0015 46.73H23.287H25.5724C26.1363 46.73 26.5974 46.2922 26.5979 45.7575L26.5995 32.4689C26.5995 32.4366 26.6016 32.4038 26.6069 32.3719C26.8329 30.9164 27.5007 29.5907 28.5624 28.552C30.0285 27.1188 32.0753 26.3293 34.3266 26.3293C34.4819 26.3293 34.6104 26.4428 34.6225 26.59C34.6335 26.7373 34.5239 26.8676 34.3707 26.8885C34.3387 26.893 31.2559 27.3511 29.4882 29.6996C28.8965 30.4871 28.5167 31.3959 28.3463 32.4202H32.4026C35.5058 32.4202 38.0216 30.0344 38.0216 27.0914V23.5854C38.0216 23.4123 37.8736 23.272 37.6911 23.272Z" fill="white"/>
</svg>
