<svg width="7" height="12" viewBox="0 0 7 12" fill="none" xmlns="http://www.w3.org/2000/svg">
<path d="M4.60005 5.9998L0.700049 2.0998C0.516715 1.91647 0.425049 1.68314 0.425049 1.3998C0.425049 1.11647 0.516715 0.883138 0.700049 0.699805C0.883382 0.516471 1.11672 0.424805 1.40005 0.424805C1.68338 0.424805 1.91672 0.516471 2.10005 0.699805L6.70005 5.2998C6.80005 5.3998 6.87088 5.50814 6.91255 5.6248C6.95422 5.74147 6.97505 5.86647 6.97505 5.9998C6.97505 6.13314 6.95422 6.25814 6.91255 6.3748C6.87088 6.49147 6.80005 6.5998 6.70005 6.6998L2.10005 11.2998C1.91672 11.4831 1.68338 11.5748 1.40005 11.5748C1.11672 11.5748 0.883382 11.4831 0.700049 11.2998C0.516715 11.1165 0.425049 10.8831 0.425049 10.5998C0.425049 10.3165 0.516715 10.0831 0.700049 9.89981L4.60005 5.9998Z" fill="#B1B1B1"/>
</svg>
