<svg width="20" height="20" viewBox="0 0 20 20" fill="none" xmlns="http://www.w3.org/2000/svg">
<path d="M11.768 9.99844L17.1345 4.63304C17.6218 4.14585 17.6218 3.35259 17.1345 2.8654C16.6472 2.3782 15.8538 2.3782 15.3665 2.8654L10 8.23079L4.63349 2.8654C4.14619 2.3782 3.35277 2.3782 2.86547 2.8654C2.37818 3.35259 2.37818 4.14585 2.86547 4.63304L8.23199 9.99844L2.86547 15.3638C2.37818 15.851 2.37818 16.6443 2.86547 17.1315C3.10912 17.3751 3.42774 17.5 3.74636 17.5C4.06498 17.5 4.38359 17.3751 4.62723 17.1315L9.99376 11.7661L15.3603 17.1315C15.6039 17.3751 15.9225 17.5 16.2412 17.5C16.5598 17.5 16.8784 17.3751 17.122 17.1315C17.6093 16.6443 17.6093 15.851 17.122 15.3638L11.768 9.99844Z" fill="#3A474E"/>
</svg>
