<svg width="20" height="20" viewBox="0 0 20 20" fill="none" xmlns="http://www.w3.org/2000/svg">
<path d="M9.375 13.75C9.03125 13.75 8.75 14.0312 8.75 14.375V18.125C8.75 18.4625 8.5375 18.75 8.28125 18.75H1.71875C1.4625 18.75 1.25 18.4625 1.25 18.125V1.875C1.25 1.5375 1.4625 1.25 1.71875 1.25H8.28125C8.5375 1.25 8.75 1.5375 8.75 1.875V5.625C8.75 5.96875 9.03125 6.25 9.375 6.25C9.71875 6.25 10 5.96875 10 5.625V1.875C10 0.84375 9.23125 0 8.28125 0H1.71875C0.76875 0 0 0.84375 0 1.875V18.125C0 19.1562 0.76875 20 1.71875 20H8.28125C9.23125 20 10 19.1562 10 18.125V14.375C10 14.0312 9.71875 13.75 9.375 13.75Z" fill="#D44500"/>
<path d="M19.6875 9.16875L14.6875 3.54375C14.2313 3.025 13.4375 2.98125 12.925 3.4375C12.4062 3.89375 12.3625 4.6875 12.8188 5.2L15.9687 8.74375H6.25C5.5625 8.74375 5 9.30625 5 9.99375C5 10.6812 5.5625 11.2437 6.25 11.2437H15.9687L12.8188 14.7875C12.3625 15.3062 12.4062 16.0938 12.925 16.55C13.4437 17.0062 14.2313 16.9625 14.6875 16.4438L19.6875 10.8187C19.9 10.5812 20 10.2875 20 9.9875C20 9.6875 19.8937 9.40625 19.6875 9.16875Z" fill="#D44500"/>
</svg>
