<svg width="133" height="70" viewBox="0 0 133 70" fill="none" xmlns="http://www.w3.org/2000/svg">
<path d="M0 20C0 8.9543 8.9543 0 20 0H133V50C133 61.0457 124.046 70 113 70H0V20Z" fill="#FD6400"/>
<g clip-path="url(#clip0_222_8178)">
<path fill-rule="evenodd" clip-rule="evenodd" d="M51.3908 22.412C50.3534 22.412 49.4926 23.1149 49.2604 24.1832H53.5025C53.2858 23.0251 52.3754 22.412 51.3877 22.412M55.7722 24.8149V25.236C55.7722 25.4466 55.6824 25.62 55.3604 25.62H49.2078C49.3347 26.8121 50.2977 27.6048 51.462 27.6048C51.9264 27.6048 52.3042 27.4995 52.6262 27.3416C52.9297 27.1837 53.1619 26.9917 53.4158 26.7099C53.5428 26.5675 53.6852 26.5148 53.8803 26.6201L55.153 27.3942C55.3511 27.5181 55.3511 27.707 55.2428 27.8494C54.8681 28.3386 54.3138 28.7783 53.6698 29.0787C53.0443 29.3605 52.3073 29.5339 51.4341 29.5339C48.7309 29.5339 46.8359 27.6017 46.8359 25.0936C46.8359 22.5854 48.7278 20.582 51.3753 20.582C54.0227 20.582 55.7784 22.5669 55.7784 24.8118" fill="white"/>
<path fill-rule="evenodd" clip-rule="evenodd" d="M58.4351 28.8957C58.1812 28.8957 58.0201 28.7409 57.9458 28.5334L55.1683 21.1205C55.0599 20.8418 55.224 20.5879 55.512 20.5879H57.2708C57.5433 20.5879 57.6517 20.7427 57.7229 20.9316L59.7015 26.6415L61.516 20.9316C61.5718 20.7396 61.6987 20.5879 61.9681 20.5879H63.6928C63.9839 20.5879 64.1449 20.848 64.0551 21.1205L61.2807 28.5334C61.225 28.7409 61.0423 28.8957 60.8101 28.8957H58.4351Z" fill="white"/>
<path fill-rule="evenodd" clip-rule="evenodd" d="M68.6478 22.412C67.6105 22.412 66.7496 23.1149 66.5205 24.1832H70.7626C70.5459 23.0251 69.6355 22.412 68.6478 22.412ZM73.0323 24.8149V25.236C73.0323 25.4466 72.9425 25.62 72.6205 25.62H66.4617C66.5886 26.8121 67.5547 27.6048 68.7159 27.6048C69.1804 27.6048 69.5581 27.4995 69.8802 27.3416C70.1836 27.1837 70.4158 26.9917 70.6697 26.7099C70.7967 26.5675 70.9391 26.5148 71.1342 26.6201L72.4069 27.3942C72.605 27.5181 72.605 27.707 72.4967 27.8494C72.122 28.3386 71.5677 28.7783 70.9237 29.0787C70.2982 29.3605 69.5612 29.5339 68.688 29.5339C65.9848 29.5339 64.0898 27.6017 64.0898 25.0936C64.0898 22.5854 65.9879 20.582 68.6354 20.582C71.2828 20.582 73.0385 22.5669 73.0385 24.8118" fill="white"/>
<path fill-rule="evenodd" clip-rule="evenodd" d="M107.716 31.8313C107.552 31.6703 107.533 31.4009 107.697 31.1841L108.255 30.41C108.471 30.122 108.778 30.1561 108.995 30.3202C109.298 30.5555 109.66 30.732 110.094 30.732C110.651 30.732 111.066 30.3543 111.264 29.8186L111.472 29.2426H110.661C110.425 29.2426 110.283 29.0971 110.212 28.8835L107.58 21.1423C107.508 20.8544 107.561 20.585 107.957 20.585H109.812C110.029 20.585 110.153 20.7646 110.208 20.9596L112.1 27.1402L113.884 20.9596C113.94 20.7615 114.082 20.585 114.352 20.585H116.135C116.457 20.585 116.565 20.8203 116.457 21.1423L113.546 30.1809C113.042 31.7229 111.961 32.7324 110.249 32.7324C109.224 32.7324 108.301 32.3917 107.707 31.8313" fill="white"/>
<path fill-rule="evenodd" clip-rule="evenodd" d="M102.468 27.4467C103.75 27.4467 104.7 26.3784 104.7 25.0593C104.7 23.7402 103.75 22.6905 102.468 22.6905C101.186 22.6905 100.217 23.7433 100.217 25.0593C100.217 26.3753 101.186 27.4467 102.468 27.4467ZM102.158 20.585C103.335 20.585 104.286 21.1299 104.704 21.8669V21.2012C104.704 20.9906 104.877 20.8327 105.047 20.8327H106.571C106.763 20.8327 106.914 20.9906 106.914 21.2012V28.9392C106.914 29.1343 106.756 29.2891 106.571 29.2891H105.047C104.855 29.2891 104.704 29.1312 104.704 28.9392V28.2549C104.27 28.9918 103.316 29.5368 102.14 29.5368C99.9598 29.5368 97.9688 27.7656 97.9688 25.0439C97.9688 22.3221 99.9598 20.585 102.158 20.585Z" fill="white"/>
<path fill-rule="evenodd" clip-rule="evenodd" d="M92.5594 27.391C91.1846 27.391 90.1473 26.2949 90.1473 24.9417C90.1473 23.5886 91.1846 22.511 92.5594 22.511C93.9342 22.511 94.953 23.5917 94.953 24.9417C94.953 26.2918 93.9342 27.391 92.5594 27.391ZM97.2815 17.5938C97.2691 17.5691 97.2505 17.5443 97.232 17.5226C97.2227 17.5102 97.2134 17.501 97.2041 17.4917C97.1762 17.4638 97.1422 17.4421 97.1081 17.4266L97.0895 17.4173C97.0616 17.4081 97.0338 17.4019 97.0059 17.4019C96.9873 17.4019 96.9719 17.3926 96.9533 17.3926H95.3214C95.1357 17.3926 94.9561 17.5536 94.953 17.7642V18.21L94.9344 21.6316C94.4885 20.9102 93.4481 20.3528 92.1723 20.3528C89.8531 20.3528 87.7382 22.1518 87.7382 24.9232C87.7382 27.6945 89.8531 29.5307 92.2095 29.5307C93.4698 29.5307 94.4328 28.9733 94.953 28.2178V28.9207C94.953 29.1189 95.1202 29.2799 95.3245 29.2799H96.9378C97.1607 29.2799 97.3248 29.1158 97.3248 28.9207V17.7642C97.3248 17.7208 97.3156 17.6744 97.3001 17.6341C97.2939 17.6186 97.2877 17.6062 97.2815 17.5908" fill="white"/>
<path d="M87.3707 20.5879H85.5871C85.3146 20.5879 85.1753 20.7675 85.1195 20.9626L83.336 27.1431L81.444 20.9626C81.3883 20.7644 81.2614 20.5879 81.0477 20.5879H80.6823C80.7009 20.6529 80.7164 20.721 80.7164 20.7923V22.0339C80.7164 22.808 80.351 23.5017 79.772 23.963L81.444 28.8895C81.5153 29.1062 81.6608 29.2487 81.893 29.2487H82.7043L82.4937 29.8246C82.2956 30.3634 81.8806 30.7381 81.3233 30.7381C80.8929 30.7381 80.5306 30.5585 80.224 30.3262C80.0073 30.1652 79.7007 30.1281 79.484 30.416L78.9266 31.1902C78.7625 31.4069 78.7811 31.6732 78.9452 31.8373C79.5397 32.3947 80.4563 32.7384 81.4874 32.7384C83.1997 32.7384 84.2773 31.7351 84.7851 30.1869L87.6958 21.1483C87.8042 20.8263 87.6958 20.591 87.3738 20.591L87.3707 20.5879Z" fill="white"/>
<path fill-rule="evenodd" clip-rule="evenodd" d="M79.9843 20.6781H78.0428C76.9498 20.6781 76.0611 21.5172 76.0518 22.5514V21.0404C76.0518 20.8329 75.8877 20.6781 75.6895 20.6781H74.0732C73.8719 20.6781 73.7109 20.8329 73.7109 21.0404V28.6421C73.7109 28.831 73.875 28.9859 74.0732 28.9859H75.6926C75.8939 28.9859 76.0549 28.831 76.0549 28.6421V23.9355C76.0549 23.9355 76.0549 23.9139 76.0549 23.9015C76.1354 23.3875 76.3707 22.9168 76.7485 22.5483C77.2687 22.0405 77.9933 21.7587 78.7922 21.7587C78.8479 21.7587 78.8943 21.799 78.8974 21.8516C78.9005 21.9043 78.8634 21.9507 78.8076 21.9569C78.7953 21.9569 77.7053 22.121 77.0798 22.9509C76.8693 23.2326 76.7361 23.5516 76.6773 23.9139H78.114C79.2133 23.9139 80.1051 23.0685 80.1051 22.025V20.7833C80.1051 20.7214 80.0524 20.6719 79.9874 20.6719" fill="white"/>
<path d="M46.6777 38.6655C46.6777 37.3619 47.1112 36.2657 47.9813 35.3801C48.8483 34.4946 49.9351 34.0518 51.2418 34.0518C52.5486 34.0518 53.5642 34.4667 54.4033 35.2996C55.2425 36.1326 55.6605 37.1575 55.6605 38.3806V38.811C55.6605 38.9442 55.6264 39.0432 55.5614 39.1083C55.4964 39.1733 55.3911 39.2074 55.2456 39.2074H49.0681C49.127 39.805 49.3716 40.2942 49.7958 40.672C50.22 41.0497 50.7309 41.2386 51.3316 41.2386C51.5484 41.2386 51.7497 41.217 51.9416 41.1767C52.1336 41.1333 52.3194 41.0652 52.499 40.9692C52.6414 40.898 52.7777 40.8113 52.9015 40.7091C53.0285 40.607 53.1555 40.48 53.2886 40.3221C53.3598 40.2385 53.4341 40.1889 53.5146 40.1796C53.5921 40.1673 53.6726 40.1858 53.7562 40.2323L55.0319 41.0219C55.1279 41.0807 55.1805 41.155 55.1929 41.2386C55.2053 41.3222 55.1805 41.4058 55.1217 41.4894C54.9297 41.7403 54.7006 41.9756 54.4312 42.1892C54.1618 42.406 53.8645 42.5918 53.5425 42.7466C53.1957 42.9014 52.8365 43.0191 52.4649 43.0965C52.0934 43.1739 51.7032 43.2142 51.2976 43.2142C49.9692 43.2142 48.8669 42.7838 47.9937 41.9198C47.1205 41.059 46.6839 39.9753 46.6839 38.6686L46.6777 38.6655ZM49.1208 37.7303H53.3784C53.2824 37.1792 53.0409 36.7395 52.6507 36.4113C52.2606 36.083 51.7992 35.9189 51.2604 35.9189C50.7216 35.9189 50.2758 36.0861 49.8856 36.4205C49.4954 36.755 49.2415 37.1916 49.1208 37.7303Z" fill="white"/>
<path d="M59.8224 40.1728L58.1348 42.65C58.0636 42.7583 57.9893 42.8358 57.9119 42.8822C57.8345 42.9286 57.7292 42.9534 57.596 42.9534H55.8713C55.7382 42.9534 55.6484 42.9039 55.6019 42.8017C55.5524 42.6995 55.5648 42.5942 55.6391 42.489L58.5126 38.4852L55.6577 34.7664C55.5741 34.6704 55.5555 34.5682 55.605 34.4598C55.6515 34.3515 55.7413 34.2988 55.8744 34.2988H57.8871C57.9955 34.2988 58.0915 34.3236 58.1751 34.37C58.2587 34.4196 58.3423 34.497 58.4259 34.6023L60.2218 36.9184L61.8196 34.6023C61.8784 34.4939 61.9528 34.4165 62.0364 34.37C62.12 34.3236 62.2283 34.2988 62.3584 34.2988H64.0119C64.142 34.2988 64.2317 34.3515 64.2813 34.4598C64.3277 34.5682 64.3123 34.6704 64.2287 34.7664L61.5162 38.5905L64.5321 42.489C64.6033 42.5973 64.6157 42.7026 64.5693 42.8017C64.5228 42.9039 64.433 42.9534 64.2999 42.9534H62.2717C62.1633 42.9534 62.0673 42.9286 61.9837 42.8822C61.9001 42.8358 61.8165 42.7552 61.7329 42.65L59.8286 40.1728H59.8224Z" fill="white"/>
<path d="M70.2223 40.7307C70.3647 40.6471 70.501 40.6099 70.6279 40.6223C70.7549 40.6347 70.854 40.6935 70.9252 40.8019L71.464 41.6813C71.5352 41.7897 71.5661 41.8949 71.5538 41.9971C71.5414 42.0993 71.4949 42.1922 71.4113 42.2758C71.1357 42.5514 70.7858 42.765 70.3616 42.9137C69.9374 43.0623 69.4729 43.1397 68.9713 43.1397C68.1105 43.1397 67.4138 42.8982 66.8874 42.412C66.361 41.9259 66.0978 41.2602 66.0978 40.4086V36.2408H64.9119C64.8159 36.2408 64.7323 36.2037 64.661 36.1231C64.5898 36.0457 64.5527 35.959 64.5527 35.863V34.6771C64.5527 34.5687 64.5898 34.4789 64.661 34.4077C64.7323 34.3365 64.8159 34.2993 64.9119 34.2993H66.0978V31.8934C66.0978 31.785 66.135 31.6952 66.2062 31.624C66.2774 31.5528 66.3672 31.5156 66.4756 31.5156H68.0548C68.1508 31.5156 68.2344 31.5528 68.3056 31.624C68.3768 31.6952 68.414 31.785 68.414 31.8934V34.2993H70.9283C71.0366 34.2993 71.1264 34.3365 71.1977 34.4077C71.2689 34.4789 71.306 34.5687 71.306 34.6771V35.863C71.306 35.959 71.2658 36.0457 71.1884 36.1231C71.111 36.2006 71.0243 36.2408 70.9283 36.2408H68.414V39.8853C68.414 40.2445 68.5037 40.5201 68.6833 40.7121C68.8629 40.9041 69.1014 41.0001 69.4017 41.0001C69.5349 41.0001 69.6711 40.9753 69.8135 40.9288C69.956 40.8824 70.0953 40.8143 70.2254 40.7307H70.2223Z" fill="white"/>
<path d="M76.6139 34.1934H76.8647C76.9948 34.1934 77.097 34.2336 77.1713 34.311C77.2456 34.3884 77.2797 34.4999 77.2797 34.6423V36.1875C77.2797 36.3299 77.2363 36.4414 77.1527 36.5188C77.0691 36.5962 76.9669 36.6365 76.8462 36.6365H76.4158C75.8058 36.6365 75.3506 36.8068 75.0502 37.1474C74.7499 37.488 74.6012 38.0113 74.6012 38.7204V42.6188C74.6012 42.7148 74.561 42.7953 74.4836 42.8603C74.4062 42.9254 74.3195 42.9594 74.2235 42.9594H72.6443C72.5483 42.9594 72.4647 42.9223 72.3935 42.851C72.3222 42.7798 72.2851 42.6962 72.2851 42.6002V34.6795C72.2851 34.5711 72.3222 34.4813 72.3935 34.4101C72.4647 34.3389 72.5483 34.3017 72.6443 34.3017H74.1337C74.2297 34.3017 74.3133 34.3389 74.3845 34.4101C74.4557 34.4813 74.4929 34.5587 74.4929 34.6423V35.4691C74.7313 35.0635 75.0347 34.7476 75.4001 34.5278C75.7655 34.3079 76.168 34.1965 76.6139 34.1965V34.1934Z" fill="white"/>
<path d="M81.8073 43.2101C80.5966 43.2101 79.5748 42.7735 78.7356 41.9003C77.8965 41.0271 77.4785 39.9309 77.4785 38.615C77.4785 37.299 77.8965 36.209 78.7356 35.3451C79.5748 34.4843 80.6028 34.0508 81.8259 34.0508C82.4111 34.0508 82.9406 34.1715 83.4144 34.41C83.8881 34.6484 84.238 34.9673 84.4641 35.3606V34.6794C84.4641 34.571 84.5012 34.4812 84.5724 34.41C84.6437 34.3388 84.7273 34.3016 84.8232 34.3016H86.4024C86.4984 34.3016 86.582 34.3388 86.6533 34.41C86.7245 34.4812 86.7616 34.571 86.7616 34.6794V42.6001C86.7616 42.6961 86.7245 42.7797 86.6533 42.8509C86.582 42.9221 86.4984 42.9593 86.4024 42.9593H84.8232C84.7273 42.9593 84.6437 42.9221 84.5724 42.8509C84.5012 42.7797 84.4641 42.6961 84.4641 42.6001V41.9003C84.2256 42.2966 83.8664 42.6125 83.3865 42.8509C82.9065 43.0893 82.3801 43.2101 81.8073 43.2101ZM82.1479 36.2059C81.4884 36.2059 80.9341 36.4381 80.4851 36.9057C80.0361 37.3733 79.8132 37.9461 79.8132 38.6304C79.8132 39.3148 80.0392 39.8907 80.4851 40.3645C80.9341 40.8382 81.4884 41.0735 82.1479 41.0735C82.8075 41.0735 83.3555 40.8382 83.8014 40.3645C84.2442 39.8907 84.4672 39.3148 84.4672 38.6304C84.4672 37.9461 84.2442 37.3733 83.8014 36.9057C83.3586 36.4381 82.8075 36.2059 82.1479 36.2059Z" fill="white"/>
<path d="M46.9213 47.9794H47.3456V47.484C47.3456 47.1465 47.4477 46.8771 47.6552 46.682C47.8596 46.4839 48.129 46.3848 48.4572 46.3848C48.612 46.3848 48.773 46.4126 48.9309 46.4653C49.092 46.521 49.222 46.5922 49.3211 46.682C49.3521 46.7068 49.3675 46.7409 49.3706 46.7842C49.3706 46.8245 49.3613 46.8647 49.3335 46.905L49.0858 47.2425C49.061 47.2858 49.0238 47.3075 48.9805 47.3106C48.9371 47.3106 48.8907 47.2951 48.838 47.2549C48.7854 47.2208 48.7328 47.1929 48.6832 47.1775C48.6306 47.1589 48.581 47.1527 48.5346 47.1527C48.4293 47.1527 48.3457 47.1898 48.2807 47.2642C48.2157 47.3385 48.1847 47.4345 48.1847 47.5583V47.9794H48.804C48.8442 47.9794 48.8752 47.9918 48.9 48.0197C48.9247 48.0476 48.9402 48.0785 48.9402 48.1157V48.5461C48.9402 48.5802 48.9247 48.6111 48.8969 48.639C48.869 48.6669 48.838 48.6823 48.804 48.6823H48.1847V50.9768C48.1847 51.0109 48.1723 51.0418 48.1444 51.0697C48.1197 51.0976 48.0887 51.1131 48.0546 51.1131H47.4818C47.4477 51.1131 47.4168 51.0976 47.3889 51.0697C47.361 51.0418 47.3456 51.0109 47.3456 50.9768V48.6823H46.9213C46.8811 48.6823 46.8501 48.6699 46.8254 48.6421C46.8006 48.6142 46.7851 48.5832 46.7851 48.5461V48.1157C46.7851 48.0754 46.7975 48.0445 46.8254 48.0197C46.8532 47.9949 46.8842 47.9794 46.9213 47.9794Z" fill="white"/>
<path d="M50.8941 47.9395H50.9839C51.0303 47.9395 51.0675 47.9549 51.0953 47.9828C51.1232 48.0107 51.1356 48.0509 51.1356 48.1036V48.664C51.1356 48.7167 51.1201 48.7569 51.0891 48.7848C51.0582 48.8127 51.021 48.8281 50.9777 48.8281H50.8228C50.603 48.8281 50.4358 48.8901 50.3274 49.0139C50.219 49.1378 50.1633 49.3267 50.1633 49.5837V50.9957C50.1633 51.0297 50.1478 51.0607 50.1199 51.0824C50.0921 51.1071 50.0611 51.1195 50.0271 51.1195H49.4542C49.4201 51.1195 49.3892 51.1071 49.3644 51.0793C49.3396 51.0514 49.3242 51.0235 49.3242 50.9895V48.1221C49.3242 48.0819 49.3365 48.0509 49.3644 48.0262C49.3923 48.0014 49.4201 47.9859 49.4542 47.9859H49.993C50.0271 47.9859 50.058 47.9983 50.0828 48.0262C50.1076 48.054 50.123 48.0819 50.123 48.1098V48.4101C50.2097 48.2615 50.3181 48.15 50.4513 48.0695C50.5844 47.989 50.7299 47.9487 50.891 47.9487L50.8941 47.9395Z" fill="white"/>
<path d="M52.9811 51.2029C52.5073 51.2029 52.111 51.0449 51.7859 50.726C51.4607 50.4071 51.2966 50.0169 51.2966 49.5524C51.2966 49.088 51.4576 48.6947 51.7859 48.3727C52.111 48.0507 52.5104 47.8896 52.9811 47.8896C53.4518 47.8896 53.8512 48.0507 54.1763 48.3727C54.5015 48.6947 54.6625 49.088 54.6625 49.5524C54.6625 50.0169 54.5015 50.4071 54.1763 50.726C53.8512 51.0449 53.4518 51.2029 52.9811 51.2029ZM52.9811 48.6669C52.7427 48.6669 52.5445 48.7505 52.3835 48.9208C52.2225 49.0911 52.142 49.2985 52.142 49.5463C52.142 49.794 52.2225 50.0014 52.3835 50.1717C52.5445 50.342 52.7427 50.4256 52.9811 50.4256C53.2195 50.4256 53.4177 50.342 53.5787 50.1717C53.7397 50.0014 53.8202 49.794 53.8202 49.5463C53.8202 49.2985 53.7397 49.0911 53.5787 48.9208C53.4177 48.7505 53.2195 48.6669 52.9811 48.6669Z" fill="white"/>
<path d="M56.7061 48.6608C56.4894 48.6608 56.316 48.729 56.189 48.8683C56.0621 49.0076 55.997 49.1903 55.997 49.4133V50.9863C55.997 51.0203 55.9816 51.0513 55.9537 51.073C55.9258 51.0977 55.8949 51.1101 55.8608 51.1101H55.2879C55.2539 51.1101 55.2229 51.0977 55.1982 51.0699C55.1734 51.042 55.1579 51.0141 55.1579 50.9801V48.1128C55.1579 48.0725 55.1703 48.0415 55.1982 48.0168C55.226 47.992 55.2539 47.9765 55.2879 47.9765H55.8608C55.8949 47.9765 55.9258 47.9889 55.9537 48.0168C55.9816 48.0415 55.997 48.0725 55.997 48.1004V48.3481C56.093 48.2087 56.2293 48.0973 56.4058 48.0137C56.5823 47.9301 56.7712 47.8867 56.9724 47.8867C57.1985 47.8867 57.3997 47.9363 57.5731 48.0323C57.7465 48.1282 57.8828 48.2645 57.9726 48.4379C58.1057 48.2614 58.2698 48.122 58.4587 48.0292C58.6507 47.9332 58.8582 47.8867 59.0842 47.8867C59.496 47.8867 59.8212 48.0106 60.0627 48.2583C60.3042 48.506 60.425 48.8249 60.425 49.2151V50.9894C60.425 51.0234 60.4126 51.0544 60.3847 51.0761C60.3599 51.1008 60.3259 51.1132 60.2887 51.1132H59.7221C59.6818 51.1132 59.6509 51.1008 59.6261 51.0761C59.6013 51.0513 59.5858 51.0234 59.5858 50.9894V49.4164C59.5858 49.181 59.527 48.9983 59.4062 48.8621C59.2855 48.729 59.1245 48.6608 58.9139 48.6608C58.7033 48.6608 58.5299 48.729 58.403 48.8683C58.276 49.0076 58.211 49.1903 58.211 49.4133V50.9863C58.211 51.0203 58.1955 51.0513 58.1677 51.073C58.1398 51.0977 58.1088 51.1101 58.0748 51.1101H57.5081C57.474 51.1101 57.4431 51.0977 57.4152 51.073C57.3873 51.0482 57.3719 51.0203 57.3719 50.9863V49.4133C57.3719 49.1779 57.313 48.9952 57.1923 48.859C57.0715 48.7259 56.9105 48.6577 56.6999 48.6577L56.7061 48.6608Z" fill="white"/>
<path d="M62.6889 46.5605H65.8938C65.934 46.5605 65.965 46.576 65.9897 46.6039C66.0145 46.6318 66.03 46.6658 66.03 46.7061V47.2263C66.03 47.2665 66.0176 47.2975 65.9897 47.3223C65.9619 47.347 65.9309 47.3625 65.8938 47.3625H63.4228V48.437H64.7109C64.7512 48.437 64.7821 48.4525 64.8069 48.4804C64.8317 48.5082 64.8471 48.5423 64.8471 48.5825V49.078C64.8471 49.1182 64.8348 49.1492 64.8069 49.1801C64.7821 49.208 64.7481 49.2235 64.7109 49.2235H63.4228V50.3227H65.934C65.9743 50.3227 66.0052 50.3351 66.0362 50.363C66.0641 50.3878 66.0795 50.4218 66.0795 50.459V50.9792C66.0795 51.0194 66.0641 51.0504 66.0362 51.0814C66.0083 51.1123 65.9743 51.1247 65.934 51.1247H62.6889C62.6487 51.1247 62.6177 51.1092 62.5929 51.0814C62.5682 51.0535 62.5527 51.0194 62.5527 50.9792V46.7061C62.5527 46.6658 62.5651 46.6349 62.5929 46.607C62.6208 46.5791 62.6518 46.5667 62.6889 46.5667V46.5605Z" fill="white"/>
<path d="M68.1731 51.1133H67.3216C67.2783 51.1133 67.2411 51.1009 67.2101 51.0761C67.1792 51.0513 67.1575 51.0173 67.1451 50.9739L66.1512 48.1778C66.1295 48.1252 66.1326 48.0787 66.1573 48.0385C66.1821 47.9982 66.2224 47.9766 66.275 47.9766H66.9067C66.9469 47.9766 66.9779 47.9859 67.0027 48.0044C67.0275 48.023 67.0491 48.0571 67.0677 48.1066L67.7768 50.2587L68.427 48.1066C68.4394 48.0633 68.458 48.0323 68.4859 48.0106C68.5106 47.9889 68.5478 47.9797 68.5912 47.9797H69.2104C69.2631 47.9797 69.3002 48.0013 69.3281 48.0416C69.3529 48.0818 69.3591 48.1283 69.3405 48.1809L68.3465 50.977C68.3372 51.0173 68.3187 51.0482 68.2846 51.073C68.2505 51.0978 68.2165 51.1133 68.1762 51.1133H68.1731Z" fill="white"/>
<path d="M69.4796 49.5586C69.4796 49.0849 69.6375 48.6885 69.9503 48.3696C70.263 48.0507 70.6593 47.8896 71.13 47.8896C71.6007 47.8896 71.9722 48.0414 72.2757 48.3417C72.5792 48.6421 72.7309 49.0137 72.7309 49.4565V49.6113C72.7309 49.6577 72.7185 49.6949 72.6937 49.7197C72.6689 49.7444 72.6318 49.7568 72.5792 49.7568H70.3435C70.3652 49.9736 70.4519 50.1501 70.6067 50.2863C70.7615 50.4225 70.9473 50.4907 71.1641 50.4907C71.2415 50.4907 71.3158 50.4845 71.3839 50.469C71.452 50.4535 71.5202 50.4287 71.5852 50.3947C71.6378 50.3699 71.6874 50.3358 71.7307 50.3018C71.7772 50.2646 71.8236 50.2182 71.8701 50.1624C71.8948 50.1315 71.9227 50.116 71.9506 50.1098C71.9784 50.1067 72.0094 50.1098 72.0373 50.1284L72.4986 50.4133C72.5327 50.4349 72.5513 50.4597 72.5575 50.4907C72.5606 50.5216 72.5544 50.5526 72.5327 50.5805C72.4646 50.6703 72.381 50.757 72.2819 50.8344C72.1828 50.9118 72.0775 50.9799 71.9599 51.0356C71.8329 51.0914 71.7029 51.1347 71.5697 51.1626C71.4366 51.1905 71.2941 51.206 71.1455 51.206C70.6655 51.206 70.2661 51.0511 69.9503 50.7384C69.6344 50.4256 69.4765 50.0355 69.4765 49.5617L69.4796 49.5586ZM70.3652 49.2211H71.9072C71.8732 49.023 71.7834 48.8619 71.644 48.7443C71.5047 48.6266 71.3344 48.5647 71.1393 48.5647C70.9442 48.5647 70.7832 48.6266 70.6408 48.7474C70.4983 48.8681 70.4085 49.026 70.3652 49.2211Z" fill="white"/>
<path d="M74.7456 47.9395H74.8354C74.8819 47.9395 74.919 47.9549 74.9469 47.9828C74.9748 48.0107 74.9871 48.0509 74.9871 48.1036V48.664C74.9871 48.7167 74.9717 48.7569 74.9407 48.7848C74.9097 48.8127 74.8726 48.8281 74.8292 48.8281H74.6744C74.4546 48.8281 74.2873 48.8901 74.179 49.0139C74.0706 49.1378 74.0149 49.3267 74.0149 49.5837V50.9957C74.0149 51.0297 73.9994 51.0607 73.9715 51.0824C73.9436 51.1071 73.9127 51.1195 73.8786 51.1195H73.3058C73.2717 51.1195 73.2407 51.1071 73.216 51.0793C73.1912 51.0514 73.1757 51.0235 73.1757 50.9895V48.1221C73.1757 48.0819 73.1881 48.0509 73.216 48.0262C73.2438 48.0014 73.2717 47.9859 73.3058 47.9859H73.8446C73.8786 47.9859 73.9096 47.9983 73.9344 48.0262C73.9591 48.054 73.9746 48.0819 73.9746 48.1098V48.4101C74.0613 48.2615 74.1697 48.15 74.3028 48.0695C74.436 47.989 74.5815 47.9487 74.7425 47.9487L74.7456 47.9395Z" fill="white"/>
<path d="M76.0598 52.6093C75.8771 52.6093 75.7068 52.5815 75.5458 52.5257C75.3848 52.47 75.2516 52.3895 75.1432 52.2842C75.1123 52.2532 75.0968 52.2161 75.0937 52.1727C75.0937 52.1294 75.1061 52.0891 75.137 52.0489L75.3383 51.7702C75.3724 51.7237 75.4157 51.6959 75.4622 51.6928C75.5086 51.6897 75.5582 51.7021 75.6046 51.7392C75.6696 51.7919 75.7347 51.829 75.7997 51.8538C75.8647 51.8786 75.9328 51.891 76.001 51.891C76.0969 51.891 76.1805 51.8631 76.2549 51.8043C76.3292 51.7454 76.3849 51.6649 76.4252 51.5596L76.58 51.1168H76.2858C76.2456 51.1168 76.2146 51.1076 76.1836 51.0859C76.1558 51.0642 76.1341 51.0332 76.1217 50.9899L75.1711 48.1876C75.1525 48.1226 75.1556 48.073 75.1804 48.039C75.2052 48.0049 75.2454 47.9863 75.3073 47.9863H75.9762C76.0102 47.9863 76.0412 47.9987 76.0629 48.0235C76.0877 48.0483 76.1062 48.0823 76.1186 48.1257L76.8029 50.3613L77.447 48.1257C77.4594 48.0823 77.4811 48.0483 77.5089 48.0235C77.5368 47.9987 77.574 47.9863 77.6173 47.9863H78.2614C78.3171 47.9863 78.3574 48.0049 78.379 48.0421C78.4007 48.0792 78.4007 48.1288 78.379 48.1876L77.2488 51.6928C77.1497 51.9931 76.998 52.2192 76.7967 52.3802C76.5955 52.5381 76.3478 52.6186 76.0598 52.6186V52.6093Z" fill="white"/>
<path d="M80.1097 51.2029C79.6731 51.2029 79.3015 51.045 78.9981 50.7292C78.6946 50.4133 78.5429 50.017 78.5429 49.5401C78.5429 49.0633 78.6946 48.6731 78.995 48.3604C79.2953 48.0477 79.6638 47.8897 80.0973 47.8897C80.311 47.8897 80.503 47.9331 80.6795 48.0167C80.856 48.1003 80.9829 48.2118 81.0665 48.3511V46.6945C81.0665 46.6604 81.082 46.6295 81.1099 46.6047C81.1377 46.5799 81.1687 46.5645 81.2028 46.5645H81.7694C81.8097 46.5645 81.8406 46.5768 81.8654 46.6047C81.8902 46.6326 81.9057 46.6604 81.9057 46.6945V50.9862C81.9057 51.0203 81.8933 51.0512 81.8654 51.076C81.8375 51.1008 81.8066 51.1162 81.7694 51.1162H81.2028C81.1687 51.1162 81.1377 51.1039 81.113 51.076C81.0882 51.0481 81.0727 51.0203 81.0727 50.9862V50.7323C80.9736 50.8809 80.8374 50.9955 80.6702 51.0791C80.4999 51.1627 80.3141 51.206 80.1097 51.206V51.2029ZM80.2336 48.6669C79.9951 48.6669 79.7939 48.7506 79.6329 48.9209C79.4718 49.0912 79.3882 49.2986 79.3882 49.5463C79.3882 49.7941 79.4687 50.0015 79.6329 50.1749C79.7939 50.3452 79.9951 50.4319 80.2336 50.4319C80.472 50.4319 80.6702 50.3452 80.8312 50.1749C80.9922 50.0046 81.0727 49.7941 81.0727 49.5463C81.0727 49.2986 80.9922 49.0912 80.8312 48.9209C80.6702 48.7506 80.472 48.6669 80.2336 48.6669Z" fill="white"/>
<path d="M83.973 51.2029C83.5364 51.2029 83.1648 51.0449 82.8614 50.7291C82.5579 50.4133 82.4062 50.0169 82.4062 49.5401C82.4062 49.0632 82.5579 48.67 82.8614 48.3572C83.1648 48.0445 83.5364 47.8896 83.9792 47.8896C84.1928 47.8896 84.3848 47.933 84.5551 48.0197C84.7254 48.1064 84.8524 48.221 84.936 48.3634V48.1157C84.936 48.0754 84.9484 48.0445 84.9762 48.0197C85.0041 47.9949 85.032 47.9794 85.066 47.9794H85.6389C85.6729 47.9794 85.7039 47.9918 85.7287 48.0197C85.7535 48.0476 85.7689 48.0785 85.7689 48.1157V50.983C85.7689 51.0171 85.7566 51.048 85.7287 51.0728C85.7008 51.0976 85.6729 51.1131 85.6389 51.1131H85.066C85.032 51.1131 85.001 51.1007 84.9762 51.0728C84.9515 51.0449 84.936 51.0171 84.936 50.983V50.7291C84.8493 50.8715 84.7192 50.9861 84.5458 51.0728C84.3724 51.1595 84.1805 51.2029 83.973 51.2029ZM84.0969 48.6669C83.8584 48.6669 83.6572 48.7505 83.4961 48.9208C83.3351 49.0911 83.2515 49.2985 83.2515 49.5463C83.2515 49.794 83.332 50.0014 83.4961 50.1748C83.6572 50.3451 83.8584 50.4318 84.0969 50.4318C84.3353 50.4318 84.5335 50.3451 84.6945 50.1748C84.8555 50.0045 84.936 49.794 84.936 49.5463C84.936 49.2985 84.8555 49.0911 84.6945 48.9208C84.5335 48.7505 84.3353 48.6669 84.0969 48.6669Z" fill="white"/>
<path d="M87.0793 52.6084C86.8966 52.6084 86.7263 52.5805 86.5653 52.5248C86.4043 52.469 86.2711 52.3885 86.1628 52.2832C86.1318 52.2523 86.1163 52.2151 86.1132 52.1718C86.1132 52.1284 86.1256 52.0882 86.1566 52.0479L86.3578 51.7692C86.3919 51.7228 86.4352 51.6949 86.4817 51.6918C86.5281 51.6887 86.5777 51.7011 86.6241 51.7383C86.6892 51.7909 86.7542 51.8281 86.8192 51.8528C86.8842 51.8776 86.9524 51.89 87.0205 51.89C87.1165 51.89 87.2001 51.8621 87.2744 51.8033C87.3487 51.7444 87.4044 51.6639 87.4447 51.5587L87.5995 51.1159H87.3054C87.2651 51.1159 87.2341 51.1066 87.2032 51.0849C87.1753 51.0632 87.1536 51.0323 87.1412 50.9889L86.1906 48.1866C86.1721 48.1216 86.1751 48.0721 86.1999 48.038C86.2247 48.0039 86.2649 47.9854 86.3269 47.9854H86.9957C87.0298 47.9854 87.0607 47.9977 87.0824 48.0225C87.1072 48.0473 87.1258 48.0813 87.1381 48.1247L87.8225 50.3603L88.4665 48.1247C88.4789 48.0813 88.5006 48.0473 88.5285 48.0225C88.5563 47.9977 88.5935 47.9854 88.6368 47.9854H89.2809C89.3366 47.9854 89.3769 48.0039 89.3986 48.0411C89.4202 48.0782 89.4202 48.1278 89.3986 48.1866L88.2683 51.6918C88.1693 51.9922 88.0175 52.2182 87.8163 52.3792C87.615 52.5371 87.3673 52.6176 87.0793 52.6176V52.6084Z" fill="white"/>
<path d="M92.1017 49.3702V50.971C92.1017 51.0113 92.0893 51.0423 92.0615 51.0732C92.0367 51.1011 92.0026 51.1166 91.9624 51.1166H91.3648C91.3245 51.1166 91.2935 51.1011 91.2688 51.0732C91.244 51.0454 91.2285 51.0113 91.2285 50.971V46.6979C91.2285 46.6577 91.2409 46.6267 91.2688 46.5988C91.2966 46.571 91.3276 46.5586 91.3648 46.5586H93.3682C93.8357 46.5586 94.2166 46.6855 94.5077 46.9426C94.7987 47.1996 94.9443 47.5278 94.9443 47.9303C94.9443 48.2245 94.8607 48.4908 94.6934 48.7261C94.5262 48.9614 94.2971 49.1256 93.9998 49.2184L95.0588 50.9277C95.0836 50.9679 95.0867 51.0082 95.0681 51.0485C95.0495 51.0887 95.0124 51.1104 94.9597 51.1104H94.2971C94.2414 51.1104 94.1949 51.1011 94.164 51.0794C94.133 51.0577 94.0989 51.0206 94.0711 50.9679L93.1081 49.3671H92.1017V49.3702ZM92.1017 48.6611H93.2722C93.4982 48.6611 93.6809 48.5992 93.8172 48.4722C93.9565 48.3452 94.0246 48.1811 94.0246 47.9768C94.0246 47.7724 93.9565 47.6238 93.8203 47.5061C93.684 47.3884 93.5044 47.3265 93.2846 47.3265H92.1017V48.6611Z" fill="white"/>
<path d="M95.288 49.5586C95.288 49.0849 95.4459 48.6885 95.7587 48.3696C96.0714 48.0507 96.4678 47.8896 96.9384 47.8896C97.4091 47.8896 97.7807 48.0414 98.0841 48.3417C98.3876 48.6421 98.5393 49.0137 98.5393 49.4565V49.6113C98.5393 49.6577 98.5269 49.6949 98.5021 49.7197C98.4774 49.7444 98.4402 49.7568 98.3876 49.7568H96.1519C96.1736 49.9736 96.2603 50.1501 96.4151 50.2863C96.5699 50.4225 96.7557 50.4907 96.9725 50.4907C97.0499 50.4907 97.1242 50.4845 97.1923 50.469C97.2605 50.4535 97.3286 50.4287 97.3936 50.3947C97.4462 50.3699 97.4958 50.3358 97.5391 50.3018C97.5856 50.2646 97.632 50.2182 97.6785 50.1624C97.7032 50.1315 97.7311 50.116 97.759 50.1098C97.7868 50.1067 97.8178 50.1098 97.8457 50.1284L98.3071 50.4133C98.3411 50.4349 98.3597 50.4597 98.3659 50.4907C98.369 50.5216 98.3628 50.5526 98.3411 50.5805C98.273 50.6703 98.1894 50.757 98.0903 50.8344C97.9912 50.9118 97.8859 50.9799 97.7683 51.0356C97.6413 51.0914 97.5113 51.1347 97.3781 51.1626C97.245 51.1905 97.1025 51.206 96.9539 51.206C96.4739 51.206 96.0745 51.0511 95.7587 50.7384C95.4428 50.4256 95.2849 50.0355 95.2849 49.5617L95.288 49.5586ZM96.1736 49.2211H97.7156C97.6816 49.023 97.5918 48.8619 97.4524 48.7443C97.3131 48.6266 97.1428 48.5647 96.9477 48.5647C96.7526 48.5647 96.5916 48.6266 96.4492 48.7474C96.3067 48.8681 96.2169 49.026 96.1736 49.2211Z" fill="white"/>
<path d="M101.113 49.0975L100.612 50.977C100.602 51.0173 100.584 51.0482 100.55 51.073C100.516 51.0978 100.482 51.1133 100.441 51.1133H99.7136C99.6734 51.1133 99.6393 51.1009 99.6083 51.0761C99.5774 51.0513 99.5557 51.0173 99.5433 50.9739L98.6391 48.1654C98.6206 48.1097 98.6237 48.0633 98.6453 48.0292C98.667 47.9951 98.7073 47.9766 98.763 47.9766H99.373C99.4164 47.9766 99.4504 47.989 99.4783 48.0075C99.5031 48.0292 99.5247 48.0633 99.5371 48.1035L100.091 50.1069L100.63 48.1035C100.643 48.0602 100.661 48.0292 100.689 48.0075C100.714 47.9859 100.751 47.9766 100.794 47.9766H101.469C101.513 47.9766 101.547 47.989 101.578 48.0075C101.606 48.0292 101.627 48.0633 101.64 48.1035L102.178 50.1069L102.745 48.1035C102.757 48.0602 102.779 48.0292 102.807 48.0075C102.835 47.9859 102.869 47.9766 102.909 47.9766H103.454C103.51 47.9766 103.55 47.9951 103.572 48.0292C103.593 48.0633 103.597 48.1097 103.578 48.1654L102.674 50.9739C102.661 51.0173 102.64 51.0513 102.609 51.0761C102.578 51.1009 102.541 51.1133 102.497 51.1133H101.788C101.745 51.1133 101.708 51.1009 101.674 51.0761C101.643 51.0513 101.621 51.0173 101.612 50.9739L101.11 49.0944L101.113 49.0975Z" fill="white"/>
<path d="M105.299 51.2029C104.863 51.2029 104.491 51.0449 104.188 50.7291C103.884 50.4133 103.732 50.0169 103.732 49.5401C103.732 49.0632 103.884 48.67 104.188 48.3572C104.491 48.0445 104.863 47.8896 105.305 47.8896C105.519 47.8896 105.711 47.933 105.881 48.0197C106.052 48.1064 106.179 48.221 106.262 48.3634V48.1157C106.262 48.0754 106.275 48.0445 106.302 48.0197C106.33 47.9949 106.358 47.9794 106.392 47.9794H106.965C106.999 47.9794 107.03 47.9918 107.055 48.0197C107.08 48.0476 107.095 48.0785 107.095 48.1157V50.983C107.095 51.0171 107.083 51.048 107.055 51.0728C107.027 51.0976 106.999 51.1131 106.965 51.1131H106.392C106.358 51.1131 106.327 51.1007 106.302 51.0728C106.278 51.0449 106.262 51.0171 106.262 50.983V50.7291C106.176 50.8715 106.045 50.9861 105.872 51.0728C105.699 51.1595 105.507 51.2029 105.299 51.2029ZM105.423 48.6669C105.185 48.6669 104.983 48.7505 104.822 48.9208C104.661 49.0911 104.578 49.2985 104.578 49.5463C104.578 49.794 104.658 50.0014 104.822 50.1748C104.983 50.3451 105.185 50.4318 105.423 50.4318C105.662 50.4318 105.86 50.3451 106.021 50.1748C106.182 50.0045 106.262 49.794 106.262 49.5463C106.262 49.2985 106.182 49.0911 106.021 48.9208C105.86 48.7505 105.662 48.6669 105.423 48.6669Z" fill="white"/>
<path d="M109.318 47.9395H109.408C109.454 47.9395 109.491 47.9549 109.519 47.9828C109.547 48.0107 109.559 48.0509 109.559 48.1036V48.664C109.559 48.7167 109.544 48.7569 109.513 48.7848C109.482 48.8127 109.445 48.8281 109.402 48.8281H109.247C109.027 48.8281 108.86 48.8901 108.751 49.0139C108.643 49.1378 108.587 49.3267 108.587 49.5837V50.9957C108.587 51.0297 108.572 51.0607 108.544 51.0824C108.516 51.1071 108.485 51.1195 108.451 51.1195H107.878C107.844 51.1195 107.813 51.1071 107.788 51.0793C107.764 51.0514 107.748 51.0235 107.748 50.9895V48.1221C107.748 48.0819 107.76 48.0509 107.788 48.0262C107.816 48.0014 107.844 47.9859 107.878 47.9859H108.417C108.451 47.9859 108.482 47.9983 108.507 48.0262C108.531 48.054 108.547 48.0819 108.547 48.1098V48.4101C108.634 48.2615 108.742 48.15 108.875 48.0695C109.008 47.989 109.154 47.9487 109.315 47.9487L109.318 47.9395Z" fill="white"/>
<path d="M111.291 51.2029C110.855 51.2029 110.483 51.045 110.18 50.7292C109.876 50.4133 109.725 50.017 109.725 49.5401C109.725 49.0633 109.876 48.6731 110.177 48.3604C110.477 48.0477 110.846 47.8897 111.279 47.8897C111.493 47.8897 111.685 47.9331 111.861 48.0167C112.038 48.1003 112.165 48.2118 112.248 48.3511V46.6945C112.248 46.6604 112.264 46.6295 112.292 46.6047C112.319 46.5799 112.35 46.5645 112.384 46.5645H112.951C112.991 46.5645 113.022 46.5768 113.047 46.6047C113.072 46.6326 113.087 46.6604 113.087 46.6945V50.9862C113.087 51.0203 113.075 51.0512 113.047 51.076C113.019 51.1008 112.988 51.1162 112.951 51.1162H112.384C112.35 51.1162 112.319 51.1039 112.295 51.076C112.27 51.0481 112.254 51.0203 112.254 50.9862V50.7323C112.155 50.8809 112.019 50.9955 111.852 51.0791C111.682 51.1627 111.496 51.206 111.291 51.206V51.2029ZM111.415 48.6669C111.177 48.6669 110.976 48.7506 110.815 48.9209C110.654 49.0912 110.57 49.2986 110.57 49.5463C110.57 49.7941 110.65 50.0015 110.815 50.1749C110.976 50.3452 111.177 50.4319 111.415 50.4319C111.654 50.4319 111.852 50.3452 112.013 50.1749C112.174 50.0046 112.254 49.7941 112.254 49.5463C112.254 49.2986 112.174 49.0912 112.013 48.9209C111.852 48.7506 111.654 48.6669 111.415 48.6669Z" fill="white"/>
<path d="M113.637 48.8898C113.637 48.5987 113.761 48.3603 114.008 48.1714C114.256 47.9825 114.575 47.8896 114.965 47.8896C115.207 47.8896 115.436 47.9268 115.652 47.998C115.869 48.0692 116.043 48.1652 116.182 48.286C116.225 48.3201 116.247 48.3603 116.247 48.4068C116.247 48.4532 116.228 48.4997 116.188 48.5461L115.981 48.7938C115.94 48.8372 115.897 48.8619 115.851 48.865C115.804 48.8681 115.748 48.8526 115.69 48.8124C115.569 48.7257 115.445 48.6607 115.315 48.6142C115.188 48.5678 115.064 48.5461 114.947 48.5461C114.813 48.5461 114.702 48.574 114.612 48.6266C114.522 48.6823 114.479 48.7474 114.479 48.8248C114.479 48.9022 114.51 48.9672 114.572 49.0137C114.634 49.0601 114.736 49.0973 114.875 49.1251L115.389 49.2211C115.705 49.2831 115.944 49.3914 116.105 49.5463C116.266 49.7011 116.346 49.9054 116.346 50.1563C116.346 50.4597 116.216 50.7105 115.953 50.9087C115.69 51.1069 115.355 51.206 114.95 51.206C114.72 51.206 114.501 51.175 114.296 51.11C114.089 51.0449 113.909 50.9551 113.754 50.8375C113.646 50.7539 113.584 50.6765 113.569 50.6021C113.553 50.5278 113.581 50.4628 113.655 50.4009L113.897 50.2058C113.943 50.1655 113.99 50.147 114.036 50.1501C114.083 50.1501 114.132 50.1779 114.188 50.2244C114.315 50.3328 114.442 50.4133 114.575 50.469C114.708 50.5247 114.844 50.5495 114.987 50.5495C115.138 50.5495 115.259 50.5216 115.352 50.4628C115.445 50.404 115.488 50.3297 115.488 50.2399C115.488 50.1624 115.454 50.1005 115.383 50.0541C115.312 50.0076 115.182 49.9674 114.987 49.9271L114.485 49.8218C114.216 49.7661 114.008 49.6577 113.86 49.4967C113.711 49.3357 113.64 49.1344 113.64 48.8929L113.637 48.8898Z" fill="white"/>
<path d="M36.9459 24.1923C36.9149 24.1954 34.0724 24.632 32.4406 26.8676C31.8956 27.617 31.5457 28.4809 31.3878 29.4563H35.1283C37.9925 29.4563 40.3117 27.1866 40.3117 24.3843V21.0463C40.3117 20.8822 40.1755 20.749 40.0083 20.749H34.958C32.1092 20.749 29.7993 22.997 29.7745 25.7777V28.7781L28.762 27.4993L24.0213 21.5355C23.5475 20.9348 23.1667 20.749 22.6 20.749H17.2865C16.6239 20.749 16.2895 21.4426 16.7168 21.9504L24.2566 31.5216L16.6672 41.8359C16.2864 42.3901 16.5712 43.0373 17.2834 43.0373H21.8352C22.4049 43.0373 22.8323 42.898 23.2596 42.2508L27.7185 35.869L32.744 42.2508C33.2178 42.8515 33.6451 43.0373 34.1684 43.0373H39.5283C40.2405 43.0373 40.5254 42.3901 40.1445 41.8359L32.1774 31.8003L29.8798 28.9082C30.1492 27.7222 30.7282 26.6447 31.589 25.7746C32.9422 24.4121 34.8279 23.6597 36.9056 23.6597C37.0512 23.6597 37.1688 23.7681 37.1781 23.9074C37.1905 24.0467 37.0883 24.1706 36.9459 24.1923Z" fill="white"/>
</g>
<defs>
<clipPath id="clip0_222_8178">
<rect width="100" height="35.216" fill="white" transform="translate(16.5 17.3926)"/>
</clipPath>
</defs>
</svg>
