<svg width="133" height="70" viewBox="0 0 133 70" fill="none" xmlns="http://www.w3.org/2000/svg">
<path d="M0 20C0 8.9543 8.9543 0 20 0H133V50C133 61.0457 124.046 70 113 70H0V20Z" fill="#FD6400"/>
<g clip-path="url(#clip0_222_8276)">
<path fill-rule="evenodd" clip-rule="evenodd" d="M51.0033 25.6855C49.9772 25.6855 49.13 26.3806 48.8973 27.4366H53.0884C52.8766 26.2911 51.9758 25.6855 51.0003 25.6855M55.3317 28.06V28.4776C55.3317 28.6835 55.2422 28.8594 54.923 28.8594H48.8466C48.9719 30.0377 49.9235 30.8193 51.0749 30.8193C51.5343 30.8193 51.9042 30.7149 52.2263 30.5598C52.5276 30.4046 52.7543 30.2137 53.0049 29.9363C53.1302 29.7961 53.2704 29.7454 53.4643 29.8468L54.7201 30.6105C54.914 30.7328 54.914 30.9207 54.8096 31.0609C54.4397 31.5442 53.8909 31.9797 53.2555 32.275C52.638 32.5524 51.9102 32.7254 51.0451 32.7254C48.3753 32.7224 46.502 30.8133 46.502 28.3374C46.502 25.8615 48.3693 23.8838 50.9854 23.8838C53.6015 23.8838 55.3346 25.8436 55.3346 28.063" fill="white"/>
<path fill-rule="evenodd" clip-rule="evenodd" d="M57.9642 32.09C57.7136 32.09 57.5526 31.9379 57.481 31.7321L54.7366 24.4088C54.6292 24.1344 54.7903 23.8838 55.0767 23.8838H56.8128C57.0812 23.8838 57.1886 24.0359 57.2602 24.2239L59.2141 29.8617L61.0069 24.2239C61.0606 24.0359 61.1859 23.8838 61.4543 23.8838H63.1576C63.444 23.8838 63.6051 24.1403 63.5156 24.4088L60.7742 31.7291C60.7205 31.9319 60.5385 32.0871 60.3089 32.0871H57.9642V32.09Z" fill="white"/>
<path fill-rule="evenodd" clip-rule="evenodd" d="M68.0491 25.6855C67.023 25.6855 66.1758 26.3805 65.9461 27.4365H70.1373C69.9255 26.291 69.0246 25.6855 68.0491 25.6855ZM72.3805 28.0599V28.4776C72.3805 28.6834 72.291 28.8594 71.9718 28.8594H65.8894C66.0147 30.0377 66.9693 30.8192 68.1178 30.8192C68.5771 30.8192 68.947 30.7148 69.2692 30.5597C69.5705 30.4046 69.7972 30.2137 70.0478 29.9363C70.173 29.7961 70.3132 29.7453 70.5071 29.8468L71.763 30.6104C71.9569 30.7327 71.9569 30.9207 71.8525 31.0609C71.4826 31.5441 70.9337 31.9796 70.2983 32.2749C69.6809 32.5524 68.953 32.7254 68.0879 32.7254C65.4181 32.7254 63.5448 30.8163 63.5448 28.3404C63.5448 25.8645 65.4181 23.8867 68.0372 23.8867C70.6563 23.8867 72.3864 25.8466 72.3864 28.0659" fill="white"/>
<path fill-rule="evenodd" clip-rule="evenodd" d="M106.637 34.9896C106.476 34.8315 106.458 34.563 106.62 34.3512L107.171 33.5876C107.383 33.3042 107.687 33.337 107.902 33.4981C108.204 33.7308 108.559 33.9068 108.988 33.9068C109.54 33.9068 109.949 33.5339 110.145 33.0029L110.348 32.4331H109.549C109.316 32.4331 109.176 32.29 109.104 32.0782L106.506 24.4327C106.438 24.1493 106.488 23.8809 106.879 23.8809H108.711C108.922 23.8809 109.048 24.0569 109.104 24.2508L110.972 30.354L112.735 24.2508C112.788 24.0569 112.929 23.8809 113.197 23.8809H114.96C115.279 23.8809 115.387 24.1135 115.279 24.4327L112.404 33.3609C111.905 34.8852 110.838 35.8815 109.149 35.8815C108.135 35.8815 107.225 35.5444 106.637 34.9926" fill="white"/>
<path fill-rule="evenodd" clip-rule="evenodd" d="M101.449 30.6583C102.713 30.6583 103.656 29.6023 103.656 28.2987C103.656 26.9951 102.716 25.96 101.449 25.96C100.181 25.96 99.2233 27.0011 99.2233 28.2987C99.2233 29.5963 100.181 30.6583 101.449 30.6583ZM101.141 23.8809C102.305 23.8809 103.244 24.4208 103.656 25.1457V24.4894C103.656 24.2836 103.826 24.1255 103.996 24.1255H105.503C105.69 24.1255 105.843 24.2806 105.843 24.4894V32.1319C105.843 32.3228 105.687 32.4779 105.503 32.4779H103.996C103.808 32.4779 103.656 32.3228 103.656 32.1319V31.4577C103.226 32.1856 102.287 32.7225 101.123 32.7225C98.9697 32.7225 97.0039 30.9715 97.0039 28.2868C97.0039 25.6021 98.9697 23.8838 101.141 23.8838" fill="white"/>
<path fill-rule="evenodd" clip-rule="evenodd" d="M91.6652 30.6042C90.3079 30.6042 89.2818 29.5214 89.2818 28.185C89.2818 26.8486 90.3079 25.7837 91.6652 25.7837C93.0225 25.7837 94.0307 26.8516 94.0307 28.185C94.0307 29.5184 93.0225 30.6042 91.6652 30.6042ZM96.3306 20.9244C96.3187 20.9005 96.3008 20.8766 96.2829 20.8558C96.2739 20.8438 96.265 20.8349 96.256 20.8259C96.2292 20.7991 96.1964 20.7782 96.1606 20.7633L96.1427 20.7543C96.1158 20.7454 96.089 20.7394 96.0592 20.7394C96.0413 20.7394 96.0263 20.7305 96.0084 20.7305H94.3946C94.2127 20.7305 94.0337 20.8886 94.0307 21.0974V21.5389L94.0128 24.9186C93.5713 24.2057 92.5452 23.6568 91.2834 23.6568C88.9924 23.6568 86.9043 25.4347 86.9043 28.1731C86.9043 30.9115 88.9924 32.7252 91.3192 32.7252C92.5631 32.7252 93.5146 32.1733 94.0307 31.4275V32.1226C94.0307 32.3165 94.1948 32.4776 94.3976 32.4776H95.9905C96.2083 32.4776 96.3754 32.3165 96.3754 32.1226V21.0944C96.3754 21.0526 96.3664 21.0049 96.3515 20.9661C96.3455 20.9512 96.3396 20.9393 96.3336 20.9244" fill="white"/>
<path fill-rule="evenodd" clip-rule="evenodd" d="M79.2436 23.9698H77.3255C76.2457 23.9698 75.3687 24.7961 75.3597 25.8192V24.3277C75.3597 24.1249 75.1987 23.9698 75.0018 23.9698H73.4029C73.206 23.9698 73.0449 24.1219 73.0449 24.3277V31.836C73.0449 32.0209 73.206 32.176 73.4029 32.176H75.0048C75.2016 32.176 75.3627 32.0239 75.3627 31.836V27.1855C75.3627 27.1855 75.3627 27.1646 75.3657 27.1527C75.4462 26.6455 75.6789 26.1802 76.0488 25.8163C76.5619 25.3151 77.2778 25.0377 78.0653 25.0377C78.119 25.0377 78.1667 25.0765 78.1697 25.1302C78.1727 25.1809 78.1369 25.2286 78.0802 25.2346C78.0683 25.2346 76.9914 25.3957 76.374 26.216C76.1681 26.4934 76.0339 26.8096 75.9742 27.1676H77.3912C78.477 27.1676 79.357 26.3353 79.357 25.3032V24.0772C79.357 24.0175 79.3063 23.9668 79.2406 23.9668" fill="white"/>
<path fill-rule="evenodd" clip-rule="evenodd" d="M50.9147 25.7481C49.8856 25.7481 49.0354 26.4431 48.8027 27.5021H53.0028C52.788 26.3536 51.8872 25.7481 50.9087 25.7481M55.249 28.1285V28.5461C55.249 28.755 55.1595 28.928 54.8404 28.928H48.752C48.8773 30.1092 49.8319 30.8938 50.9863 30.8938C51.4457 30.8938 51.8186 30.7894 52.1407 30.6343C52.442 30.4791 52.6717 30.2852 52.9223 30.0078C53.0476 29.8676 53.1878 29.8169 53.3817 29.9183L54.6405 30.685C54.8344 30.8073 54.8344 30.9952 54.73 31.1354C54.3571 31.6216 53.8082 32.0571 53.1699 32.3525C52.5494 32.6299 51.8215 32.8029 50.9535 32.8029C48.2777 32.8029 46.3984 30.8908 46.3984 28.4059C46.3984 25.9211 48.2718 23.9434 50.8968 23.9434C53.5219 23.9434 55.258 25.9092 55.258 28.1315" fill="white"/>
<path fill-rule="evenodd" clip-rule="evenodd" d="M57.8911 32.1705C57.6405 32.1705 57.4794 32.0184 57.4049 31.8096L54.6545 24.4714C54.5471 24.1969 54.7082 23.9434 54.9976 23.9434H56.7397C57.0081 23.9434 57.1185 24.0955 57.1871 24.2864L59.1469 29.9392L60.9427 24.2864C60.9964 24.0985 61.1217 23.9434 61.3902 23.9434H63.0994C63.3858 23.9434 63.5469 24.1999 63.4604 24.4714L60.713 31.8125C60.6593 32.0184 60.4774 32.1735 60.2477 32.1735H57.8941L57.8911 32.1705Z" fill="white"/>
<path fill-rule="evenodd" clip-rule="evenodd" d="M68.0036 25.7481C66.9745 25.7481 66.1243 26.4432 65.8946 27.5021H70.0947C69.8799 26.3537 68.9791 25.7481 68.0007 25.7481H68.0036ZM72.3439 28.1286V28.5462C72.3439 28.755 72.2544 28.928 71.9352 28.928H65.838C65.9633 30.1093 66.9208 30.8938 68.0722 30.8938C68.5316 30.8938 68.9045 30.7894 69.2267 30.6343C69.528 30.4792 69.7576 30.2853 70.0082 30.0079C70.1335 29.8677 70.2737 29.817 70.4676 29.9184L71.7264 30.685C71.9203 30.8073 71.9203 30.9952 71.8159 31.1354C71.443 31.6217 70.8942 32.0572 70.2558 32.3525C69.6353 32.6299 68.9075 32.803 68.0394 32.803C65.3637 32.803 63.4844 30.8908 63.4844 28.406C63.4844 25.9211 65.3637 23.9404 67.9887 23.9404C70.6138 23.9404 72.3499 25.9062 72.3499 28.1286" fill="white"/>
<path fill-rule="evenodd" clip-rule="evenodd" d="M106.693 35.079C106.532 34.9209 106.514 34.6525 106.675 34.4377L107.227 33.6711C107.442 33.3877 107.746 33.4205 107.958 33.5816C108.259 33.8142 108.617 33.9902 109.047 33.9902C109.599 33.9902 110.01 33.6144 110.207 33.0834L110.413 32.5137H109.611C109.378 32.5137 109.235 32.3705 109.166 32.1557L106.562 24.4894C106.49 24.206 106.544 23.9375 106.938 23.9375H108.775C108.99 23.9375 109.116 24.1135 109.169 24.3104L111.043 30.4315L112.809 24.3104C112.862 24.1165 113.002 23.9375 113.271 23.9375H115.037C115.356 23.9375 115.463 24.1702 115.356 24.4894L112.471 33.4414C111.97 34.9687 110.899 35.968 109.208 35.968C108.191 35.968 107.281 35.6279 106.69 35.0761" fill="white"/>
<path fill-rule="evenodd" clip-rule="evenodd" d="M101.494 30.7387C102.762 30.7387 103.707 29.6797 103.707 28.3731C103.707 27.0666 102.764 26.0285 101.494 26.0285C100.223 26.0285 99.2624 27.0725 99.2624 28.3731C99.2624 29.6737 100.223 30.7387 101.494 30.7387ZM101.186 23.9434C102.353 23.9434 103.295 24.4833 103.707 25.2111V24.5519C103.707 24.3431 103.877 24.185 104.05 24.185H105.56C105.748 24.185 105.903 24.3401 105.903 24.5519V32.2152C105.903 32.4062 105.748 32.5643 105.56 32.5643H104.05C103.862 32.5643 103.707 32.4091 103.707 32.2152V31.5381C103.278 32.266 102.335 32.8059 101.169 32.8059C99.0089 32.8059 97.0371 31.0519 97.0371 28.3582C97.0371 25.6646 99.0089 23.9434 101.186 23.9434Z" fill="white"/>
<path fill-rule="evenodd" clip-rule="evenodd" d="M91.683 30.6819C90.3227 30.6819 89.2936 29.596 89.2936 28.2567C89.2936 26.9173 90.3227 25.8494 91.683 25.8494C93.0432 25.8494 94.0545 26.9203 94.0545 28.2567C94.0545 29.5931 93.0432 30.6819 91.683 30.6819ZM96.3603 20.9781C96.3484 20.9543 96.3305 20.9304 96.3126 20.9065C96.3037 20.8946 96.2947 20.8857 96.2858 20.8767C96.2589 20.8499 96.2261 20.829 96.1903 20.8141L96.1724 20.8051C96.1456 20.7962 96.1187 20.7902 96.0889 20.7902C96.071 20.7902 96.0561 20.7812 96.0382 20.7812H94.4214C94.2394 20.7812 94.0574 20.9393 94.0545 21.1511V21.5926L94.0366 24.9813C93.5951 24.2684 92.5659 23.7165 91.3011 23.7165C89.0042 23.7165 86.9102 25.4974 86.9102 28.2447C86.9102 30.9921 89.0042 32.8087 91.3369 32.8087C92.5838 32.8087 93.5384 32.2569 94.0545 31.5082V32.2032C94.0545 32.3971 94.2185 32.5612 94.4244 32.5612H96.0233C96.244 32.5612 96.4081 32.4001 96.4081 32.2032V21.1482C96.4081 21.1064 96.3991 21.0587 96.3842 21.0199C96.3782 21.005 96.3723 20.993 96.3663 20.9781" fill="white"/>
<path fill-rule="evenodd" clip-rule="evenodd" d="M79.2303 24.0332H77.3092C76.2264 24.0332 75.3464 24.8625 75.3374 25.8886V24.3941C75.3374 24.1883 75.1764 24.0332 74.9765 24.0332H73.3746C73.1777 24.0332 73.0137 24.1853 73.0137 24.3941V31.9233C73.0137 32.1082 73.1748 32.2663 73.3746 32.2663H74.9795C75.1764 32.2663 75.3404 32.1142 75.3404 31.9233V27.2608C75.3404 27.2608 75.3404 27.2399 75.3434 27.228C75.4239 26.7179 75.6566 26.2526 76.0295 25.8886C76.5456 25.3845 77.2615 25.1071 78.052 25.1071C78.1057 25.1071 78.1534 25.1459 78.1564 25.1996C78.1594 25.2503 78.1236 25.298 78.0669 25.304C78.055 25.304 76.9751 25.465 76.3546 26.2884C76.1458 26.5658 76.0116 26.882 75.9549 27.2429H77.3778C78.4666 27.2429 79.3496 26.4077 79.3496 25.3726V24.1436C79.3496 24.0839 79.2989 24.0332 79.2332 24.0332" fill="white"/>
<path d="M86.6389 24.003H84.8384C84.5642 24.003 84.421 24.179 84.3662 24.3729L82.5657 30.4758L80.6585 24.3729C80.6037 24.179 80.4757 24.003 80.2564 24.003H79.8877C79.906 24.0656 79.9212 24.1342 79.9212 24.2028V25.4288C79.9212 26.1924 79.5526 26.8784 78.9677 27.3348L80.6555 32.1999C80.7255 32.4116 80.8718 32.5548 81.1094 32.5548H81.9259L81.7157 33.1245C81.5176 33.6585 81.0972 34.0283 80.5336 34.0283C80.0979 34.0283 79.7354 33.8523 79.4247 33.6197C79.2083 33.4616 78.8976 33.4258 78.6782 33.7092L78.1146 34.4728C77.9501 34.6846 77.9684 34.95 78.1329 35.1111C78.7331 35.6629 79.6592 36 80.6981 36C82.4255 36 83.5132 35.0067 84.0219 33.4795L86.9588 24.5518C87.0685 24.2327 86.9588 24 86.6328 24H86.6389V24.003Z" fill="white"/>
<path d="M46.4612 51.0037H46.9796V50.3931C46.9796 49.974 47.1065 49.6438 47.3602 49.3995C47.6139 49.1553 47.9421 49.0332 48.3475 49.0332C48.5405 49.0332 48.7336 49.0665 48.9321 49.1331C49.1279 49.1997 49.2879 49.2913 49.412 49.4023C49.4478 49.4356 49.4699 49.4772 49.4726 49.5272C49.4754 49.5772 49.4616 49.6271 49.4285 49.6771L49.1251 50.0961C49.0921 50.1489 49.0507 50.1766 48.9983 50.1794C48.9459 50.1822 48.8852 50.16 48.8218 50.11C48.7584 50.0684 48.6949 50.0351 48.6288 50.0129C48.5653 49.9907 48.5047 49.9796 48.444 49.9796C48.3171 49.9796 48.2123 50.024 48.1324 50.1156C48.0524 50.2071 48.011 50.3265 48.011 50.4791V51.0009H48.7694C48.8163 51.0009 48.8577 51.0175 48.8907 51.0481C48.9238 51.0786 48.9376 51.1202 48.9376 51.1702V51.7003C48.9376 51.7447 48.9211 51.7807 48.8852 51.8168C48.8494 51.8529 48.8108 51.8695 48.7694 51.8695H48.011V54.7114C48.011 54.7531 47.9945 54.7919 47.9641 54.828C47.9311 54.8641 47.8952 54.8807 47.8511 54.8807H47.1479C47.1037 54.8807 47.0679 54.8641 47.032 54.828C46.9962 54.7919 46.9796 54.7531 46.9796 54.7114V51.8695H46.4612C46.4143 51.8695 46.3729 51.8529 46.3398 51.8224C46.3068 51.7918 46.293 51.7502 46.293 51.7003V51.1702C46.293 51.123 46.3095 51.0814 46.3398 51.0481C46.3729 51.0148 46.4116 51.0009 46.4612 51.0009V51.0037Z" fill="white"/>
<path d="M51.4276 50.9561H51.5407C51.5986 50.9561 51.6455 50.9727 51.6758 51.0088C51.7089 51.0449 51.7227 51.092 51.7227 51.1586V51.8497C51.7227 51.9135 51.7034 51.9635 51.6676 51.9996C51.629 52.0356 51.5848 52.0523 51.5324 52.0523H51.3394C51.0664 52.0523 50.8651 52.13 50.7327 52.2826C50.6003 52.4353 50.5314 52.6712 50.5314 52.9876V54.7332C50.5314 54.7748 50.5148 54.8137 50.479 54.8415C50.4431 54.872 50.4045 54.8859 50.3632 54.8859H49.6599C49.6158 54.8859 49.58 54.8692 49.5469 54.8387C49.5138 54.8054 49.5 54.7693 49.5 54.7249V51.1753C49.5 51.1281 49.5165 51.0865 49.5469 51.0532C49.58 51.0199 49.6158 51.006 49.6599 51.006H50.3246C50.3659 51.006 50.4045 51.0227 50.4376 51.0532C50.4707 51.0865 50.4845 51.1198 50.4845 51.1586V51.5278C50.5921 51.3446 50.7244 51.2058 50.8871 51.1059C51.0498 51.006 51.2291 50.9561 51.4276 50.9561Z" fill="white"/>
<path d="M54.075 54.9974C53.4931 54.9974 53.0022 54.8003 52.6023 54.4062C52.2025 54.0122 52.0039 53.5265 52.0039 52.9548C52.0039 52.3831 52.2052 51.8946 52.6023 51.495C53.0022 51.0953 53.4931 50.8955 54.075 50.8955C54.6568 50.8955 55.1477 51.0953 55.5476 51.495C55.9475 51.8946 56.146 52.3831 56.146 52.9548C56.146 53.5265 55.9447 54.0122 55.5476 54.4062C55.1477 54.8003 54.6568 54.9974 54.075 54.9974ZM54.075 51.8585C53.7826 51.8585 53.5372 51.964 53.3386 52.1721C53.1401 52.3803 53.0436 52.6384 53.0436 52.9437C53.0436 53.2489 53.1428 53.507 53.3386 53.7152C53.5344 53.9233 53.7799 54.0288 54.075 54.0288C54.37 54.0288 54.6127 53.9233 54.8113 53.7152C55.0071 53.507 55.1063 53.2489 55.1063 52.9437C55.1063 52.6384 55.0071 52.3803 54.8113 52.1721C54.6127 51.964 54.37 51.8585 54.075 51.8585Z" fill="white"/>
<path d="M58.7376 51.8499C58.4701 51.8499 58.2578 51.9359 58.1006 52.108C57.9434 52.2801 57.8634 52.5049 57.8634 52.7852V54.7334C57.8634 54.775 57.8469 54.8139 57.811 54.8417C57.7752 54.8722 57.7366 54.8861 57.6952 54.8861H56.992C56.9479 54.8861 56.912 54.8694 56.8789 54.8389C56.8458 54.8056 56.832 54.7695 56.832 54.7251V51.1755C56.832 51.1283 56.8486 51.0867 56.8789 51.0534C56.912 51.0201 56.9479 51.0062 56.992 51.0062H57.6952C57.7366 51.0062 57.7752 51.0229 57.811 51.0534C57.8469 51.0867 57.8634 51.12 57.8634 51.1589V51.4641C57.982 51.2921 58.1475 51.1533 58.3681 51.0506C58.5859 50.9452 58.8176 50.8924 59.063 50.8924C59.3388 50.8924 59.587 50.9535 59.8021 51.0728C60.0172 51.1922 60.1827 51.3614 60.293 51.5751C60.4584 51.3559 60.657 51.1866 60.8914 51.0673C61.1258 50.9507 61.3823 50.8896 61.658 50.8896C62.1655 50.8896 62.5653 51.0423 62.8604 51.3476C63.1555 51.6529 63.3044 52.0469 63.3044 52.5298V54.7279C63.3044 54.7695 63.2879 54.8083 63.2575 54.8361C63.2244 54.8666 63.1858 54.8805 63.1362 54.8805H62.4412C62.3944 54.8805 62.353 54.8666 62.3199 54.8361C62.2868 54.8056 62.273 54.7695 62.273 54.7279V52.7796C62.273 52.491 62.1986 52.2606 62.0524 52.0941C61.9062 51.9276 61.7049 51.8443 61.4485 51.8443C61.192 51.8443 60.9769 51.9304 60.8197 52.1024C60.6625 52.2745 60.5825 52.4993 60.5825 52.7796V54.7279C60.5825 54.7695 60.566 54.8083 60.5301 54.8361C60.4943 54.8666 60.4557 54.8805 60.4143 54.8805H59.7194C59.6752 54.8805 59.6394 54.8666 59.6035 54.8361C59.5677 54.8056 59.5511 54.7695 59.5511 54.7279V52.7796C59.5511 52.491 59.4767 52.2606 59.3305 52.0941C59.1844 51.9276 58.9831 51.8443 58.7266 51.8443L58.7376 51.8499Z" fill="white"/>
<path d="M70.4713 54.7144L69.473 50.8678L68.4664 54.7144C68.4498 54.7616 68.4223 54.8032 68.3837 54.8365C68.3423 54.8698 68.3009 54.8837 68.2513 54.8837H67.0903C67.0434 54.8837 66.9993 54.8698 66.9579 54.8393C66.9165 54.8087 66.889 54.7671 66.8752 54.7144L65.5239 49.5079C65.5074 49.433 65.5156 49.372 65.5487 49.322C65.5818 49.2748 65.6314 49.2498 65.7004 49.2498H66.5332C66.5718 49.2498 66.6049 49.2665 66.638 49.297C66.6711 49.3303 66.6932 49.3692 66.7097 49.4191L67.708 53.5959L68.8028 49.4025C68.8194 49.3498 68.8414 49.3109 68.8718 49.2859C68.9021 49.2609 68.9407 49.2498 68.9876 49.2498H69.9473C69.9887 49.2498 70.0273 49.2637 70.0631 49.2942C70.099 49.3248 70.121 49.3609 70.1321 49.4025L71.2269 53.5626L72.2252 49.4164C72.2362 49.3692 72.2583 49.3276 72.2886 49.2942C72.3217 49.2609 72.3575 49.2471 72.4017 49.2471H73.1849C73.2593 49.2471 73.3117 49.2693 73.342 49.3109C73.3724 49.3525 73.3751 49.4191 73.3531 49.5052L72.0101 54.7116C71.999 54.7588 71.9687 54.8004 71.9218 54.8337C71.8749 54.867 71.8308 54.8809 71.795 54.8809H70.6919C70.645 54.8809 70.6009 54.867 70.5595 54.8365C70.5181 54.806 70.4906 54.7643 70.4768 54.7116H70.4713V54.7144Z" fill="white"/>
<path d="M75.5086 54.9974C74.9267 54.9974 74.4358 54.8003 74.0359 54.4062C73.6361 54.0122 73.4375 53.5265 73.4375 52.9548C73.4375 52.3831 73.6388 51.8946 74.0359 51.495C74.4358 51.0953 74.9267 50.8955 75.5086 50.8955C76.0904 50.8955 76.5813 51.0953 76.9812 51.495C77.381 51.8946 77.5796 52.3831 77.5796 52.9548C77.5796 53.5265 77.3783 54.0122 76.9812 54.4062C76.5813 54.8003 76.0904 54.9974 75.5086 54.9974ZM75.5086 51.8585C75.2162 51.8585 74.9708 51.964 74.7722 52.1721C74.5737 52.3803 74.4772 52.6384 74.4772 52.9437C74.4772 53.2489 74.5764 53.507 74.7722 53.7152C74.968 53.9233 75.2135 54.0288 75.5086 54.0288C75.8036 54.0288 76.0463 53.9233 76.2449 53.7152C76.4407 53.507 76.5399 53.2489 76.5399 52.9437C76.5399 52.6384 76.4407 52.3803 76.2449 52.1721C76.0463 51.964 75.8036 51.8585 75.5086 51.8585Z" fill="white"/>
<path d="M80.1394 54.9974C79.5575 54.9974 79.0667 54.8003 78.6668 54.4062C78.2669 54.0122 78.0684 53.5265 78.0684 52.9548C78.0684 52.3831 78.2697 51.8946 78.6668 51.495C79.0667 51.0953 79.5575 50.8955 80.1394 50.8955C80.7213 50.8955 81.2122 51.0953 81.612 51.495C82.0119 51.8946 82.2105 52.3831 82.2105 52.9548C82.2105 53.5265 82.0091 54.0122 81.612 54.4062C81.2122 54.8003 80.7213 54.9974 80.1394 54.9974ZM80.1394 51.8585C79.8471 51.8585 79.6017 51.964 79.4031 52.1721C79.2045 52.3803 79.108 52.6384 79.108 52.9437C79.108 53.2489 79.2073 53.507 79.4031 53.7152C79.5989 53.9233 79.8443 54.0288 80.1394 54.0288C80.4345 54.0288 80.6772 53.9233 80.8757 53.7152C81.0715 53.507 81.1708 53.2489 81.1708 52.9437C81.1708 52.6384 81.0715 52.3803 80.8757 52.1721C80.6772 51.964 80.4345 51.8585 80.1394 51.8585Z" fill="white"/>
<path d="M84.3936 54.8838H83.8807C83.5552 54.8838 83.3098 54.8033 83.1416 54.6396C82.9734 54.4759 82.8906 54.2372 82.8906 53.918V49.4193C82.8906 49.3721 82.9072 49.3305 82.9375 49.2972C82.9706 49.2639 83.0092 49.25 83.0588 49.25H83.7538C83.8007 49.25 83.842 49.2667 83.8751 49.2972C83.9082 49.3305 83.922 49.3693 83.922 49.4193V53.7182C83.922 53.8153 83.9468 53.8903 83.9992 53.943C84.0489 53.9957 84.1206 54.0235 84.2116 54.0235H84.4432C84.4901 54.0235 84.5287 54.0374 84.559 54.0651C84.5894 54.0929 84.6032 54.1289 84.6032 54.1789V54.6868C84.6032 54.7506 84.5839 54.8006 84.548 54.8366C84.5094 54.8727 84.4598 54.8894 84.3963 54.8894V54.8838H84.3936Z" fill="white"/>
<path d="M87.7451 52.3888L87.1302 54.7145C87.1191 54.7616 87.0943 54.8033 87.0529 54.8366C87.0116 54.8699 86.9702 54.8838 86.9206 54.8838H86.0243C85.9774 54.8838 85.9333 54.8699 85.8975 54.8393C85.8588 54.8088 85.834 54.7672 85.8175 54.7145L84.7061 51.237C84.6841 51.1676 84.6868 51.1121 84.7144 51.0677C84.742 51.0261 84.7888 51.0039 84.8578 51.0039H85.6106C85.663 51.0039 85.7072 51.0178 85.7375 51.0455C85.7706 51.0733 85.7927 51.1121 85.8092 51.1676L86.4876 53.646L87.1522 51.1676C87.1688 51.1149 87.1936 51.0733 87.2239 51.0455C87.257 51.0178 87.2984 51.0039 87.3508 51.0039H88.1836C88.236 51.0039 88.2801 51.0178 88.316 51.0455C88.3518 51.0733 88.3766 51.1121 88.3932 51.1676L89.0578 53.646L89.7527 51.1676C89.7693 51.1149 89.7941 51.0733 89.83 51.0455C89.8658 51.0178 89.9072 51.0039 89.9541 51.0039H90.6269C90.6959 51.0039 90.7428 51.0261 90.7703 51.0677C90.7979 51.1121 90.8007 51.1676 90.7786 51.237L89.6673 54.7145C89.6507 54.7672 89.6231 54.8088 89.5873 54.8393C89.5487 54.8699 89.5046 54.8838 89.4522 54.8838H88.5807C88.5283 54.8838 88.4814 54.8699 88.4401 54.8393C88.3987 54.8088 88.3739 54.7672 88.3629 54.7145L87.7479 52.3888H87.7451Z" fill="white"/>
<path d="M93.1101 54.9974C92.5282 54.9974 92.0374 54.8003 91.6375 54.4062C91.2376 54.0122 91.0391 53.5265 91.0391 52.9548C91.0391 52.3831 91.2404 51.8946 91.6375 51.495C92.0374 51.0953 92.5282 50.8955 93.1101 50.8955C93.692 50.8955 94.1829 51.0953 94.5827 51.495C94.9826 51.8946 95.1812 52.3831 95.1812 52.9548C95.1812 53.5265 94.9799 54.0122 94.5827 54.4062C94.1829 54.8003 93.692 54.9974 93.1101 54.9974ZM93.1101 51.8585C92.8178 51.8585 92.5724 51.964 92.3738 52.1721C92.1752 52.3803 92.0787 52.6384 92.0787 52.9437C92.0787 53.2489 92.178 53.507 92.3738 53.7152C92.5696 53.9233 92.815 54.0288 93.1101 54.0288C93.4052 54.0288 93.6479 53.9233 93.8464 53.7152C94.0422 53.507 94.1415 53.2489 94.1415 52.9437C94.1415 52.6384 94.0422 52.3803 93.8464 52.1721C93.6479 51.964 93.4052 51.8585 93.1101 51.8585Z" fill="white"/>
<path d="M97.7948 50.957H97.9079C97.9658 50.957 98.0127 50.9737 98.043 51.0098C98.0761 51.0458 98.0899 51.093 98.0899 51.1596V51.8507C98.0899 51.9145 98.0706 51.9645 98.0348 52.0005C97.9962 52.0366 97.952 52.0533 97.8996 52.0533H97.7066C97.4336 52.0533 97.2323 52.131 97.0999 52.2836C96.9675 52.4363 96.8986 52.6722 96.8986 52.9885V54.7342C96.8986 54.7758 96.882 54.8147 96.8462 54.8424C96.8103 54.873 96.7717 54.8868 96.7304 54.8868H96.0271C95.983 54.8868 95.9472 54.8702 95.9141 54.8397C95.881 54.8063 95.8672 54.7703 95.8672 54.7259V51.1763C95.8672 51.1291 95.8837 51.0875 95.9141 51.0542C95.9472 51.0209 95.983 51.007 96.0271 51.007H96.6918C96.7331 51.007 96.7717 51.0236 96.8048 51.0542C96.8379 51.0875 96.8517 51.1208 96.8517 51.1596V51.5287C96.9592 51.3456 97.0916 51.2068 97.2543 51.1069C97.417 51.007 97.5963 50.957 97.7948 50.957Z" fill="white"/>
<path d="M100.876 53.8866C100.939 53.8505 101 53.8339 101.055 53.8394C101.11 53.845 101.154 53.8727 101.187 53.9199L101.427 54.314C101.46 54.3612 101.471 54.4084 101.469 54.4555C101.463 54.5 101.441 54.5416 101.405 54.5804C101.284 54.7025 101.127 54.7997 100.936 54.8663C100.746 54.9329 100.539 54.9662 100.316 54.9662C99.9325 54.9662 99.6237 54.858 99.3893 54.6415C99.1549 54.425 99.0363 54.1253 99.0363 53.7451V51.8773H98.5096C98.4682 51.8773 98.4296 51.8607 98.3965 51.8246C98.3634 51.7885 98.3496 51.7496 98.3496 51.708V51.1779C98.3496 51.1308 98.3662 51.0891 98.3965 51.0558C98.4268 51.0225 98.4654 51.0086 98.5096 51.0086H99.0363V49.9291C99.0363 49.8819 99.0528 49.8403 99.0832 49.8069C99.1135 49.7736 99.1549 49.7598 99.2045 49.7598H99.9077C99.9491 49.7598 99.9877 49.7764 100.021 49.8069C100.054 49.8403 100.068 49.8791 100.068 49.9291V51.0086H101.187C101.234 51.0086 101.276 51.0253 101.306 51.0558C101.336 51.0864 101.353 51.128 101.353 51.1779V51.708C101.353 51.7524 101.336 51.7885 101.3 51.8246C101.265 51.8607 101.226 51.8773 101.185 51.8773H100.065V53.512C100.065 53.6729 100.106 53.795 100.186 53.8811C100.266 53.9671 100.374 54.0087 100.506 54.0087C100.564 54.0087 100.627 53.9976 100.691 53.9754C100.754 53.9532 100.815 53.9255 100.876 53.8866Z" fill="white"/>
<path d="M104.93 54.7312V52.8551C104.93 52.5443 104.848 52.2973 104.682 52.1196C104.517 51.9392 104.288 51.8504 103.995 51.8504C103.703 51.8504 103.474 51.942 103.295 52.128C103.116 52.3139 103.027 52.5554 103.027 52.8551V54.7312C103.027 54.7728 103.011 54.8117 102.975 54.8394C102.939 54.8699 102.901 54.8838 102.859 54.8838H102.156C102.112 54.8838 102.076 54.8672 102.043 54.8366C102.01 54.8033 101.996 54.7673 101.996 54.7229V49.411C101.996 49.3693 102.013 49.3305 102.043 49.2972C102.076 49.2639 102.112 49.25 102.156 49.25H102.859C102.901 49.25 102.939 49.2639 102.975 49.2944C103.011 49.3249 103.027 49.361 103.027 49.4026V51.4619C103.154 51.2843 103.331 51.1455 103.554 51.0428C103.778 50.9401 104.029 50.8902 104.307 50.8902C104.803 50.8902 105.203 51.0456 105.507 51.3564C105.81 51.6673 105.962 52.0725 105.962 52.572V54.7284C105.962 54.77 105.945 54.8089 105.915 54.8366C105.882 54.8672 105.843 54.8811 105.793 54.8811H105.099C105.052 54.8811 105.01 54.8672 104.977 54.8366C104.944 54.8061 104.93 54.77 104.93 54.7284V54.7312Z" fill="white"/>
<path d="M106.681 52.1304C106.681 51.7723 106.833 51.4754 107.136 51.2423C107.439 51.0091 107.831 50.8926 108.311 50.8926C108.609 50.8926 108.89 50.937 109.155 51.0258C109.419 51.1146 109.634 51.2339 109.805 51.3838C109.858 51.4282 109.885 51.4754 109.885 51.5337C109.885 51.5919 109.861 51.6475 109.814 51.7057L109.557 52.011C109.51 52.0637 109.455 52.0943 109.397 52.0998C109.339 52.1054 109.273 52.0832 109.196 52.036C109.047 51.9278 108.893 51.8473 108.735 51.7918C108.578 51.7363 108.427 51.7085 108.283 51.7085C108.118 51.7085 107.98 51.7418 107.872 51.8084C107.762 51.875 107.709 51.9583 107.709 52.0526C107.709 52.147 107.748 52.2275 107.825 52.2858C107.903 52.3441 108.027 52.3912 108.198 52.4218L108.829 52.5439C109.218 52.6188 109.51 52.752 109.709 52.9463C109.905 53.1406 110.004 53.3903 110.004 53.7039C110.004 54.0786 109.844 54.3894 109.521 54.6337C109.199 54.8779 108.788 55 108.286 55C108.005 55 107.734 54.9611 107.483 54.8807C107.232 54.8002 107.006 54.6864 106.816 54.5421C106.684 54.4394 106.606 54.345 106.587 54.2534C106.568 54.1619 106.604 54.0786 106.695 54.0037L106.99 53.7622C107.048 53.715 107.106 53.6901 107.161 53.6928C107.216 53.6956 107.279 53.7261 107.348 53.7844C107.503 53.9176 107.663 54.0203 107.825 54.0869C107.988 54.1535 108.156 54.1868 108.333 54.1868C108.52 54.1868 108.669 54.1508 108.779 54.0786C108.893 54.0064 108.948 53.9149 108.948 53.8011C108.948 53.7039 108.904 53.629 108.821 53.5707C108.735 53.5152 108.573 53.4625 108.333 53.4125L107.718 53.2849C107.387 53.2155 107.13 53.0823 106.951 52.8825C106.769 52.6854 106.678 52.4356 106.678 52.1331H106.681V52.1304Z" fill="white"/>
<path d="M49.0576 42.5995V46.7887C49.0576 46.9792 48.8735 47.1176 48.7061 47.1176H47.2332C47.0491 47.1176 46.8984 46.9618 46.8984 46.7714V39.1373C46.8984 38.9296 47.0491 38.7738 47.2332 38.7738H48.7061C48.8735 38.7738 49.0576 38.9296 49.0576 39.1027V39.7605C49.5263 39.0681 50.4803 38.5314 51.5683 38.5314C52.7734 38.5314 53.694 39.12 54.1459 40.0029C54.8991 38.9469 55.9703 38.5314 57.008 38.5314C59.3681 38.5314 60.456 40.2625 60.456 42.0629V46.7887C60.456 46.9792 60.2886 47.1176 60.1045 47.1176H58.6483C58.4642 47.1176 58.2968 46.9792 58.2968 46.7887V42.5995C58.2968 41.4743 57.7445 40.5914 56.5729 40.5914C55.4012 40.5914 54.7652 41.4743 54.7652 42.5995V46.7887C54.7652 46.9792 54.5811 47.1176 54.4137 47.1176H52.9575C52.7901 47.1176 52.606 46.9792 52.606 46.7887V42.5995C52.606 41.4743 52.0537 40.5914 50.882 40.5914C49.7104 40.5914 49.0576 41.4743 49.0576 42.5995Z" fill="white"/>
<path d="M64.0215 42.9457C64.0215 44.244 64.9588 45.3 66.1974 45.3C67.436 45.3 68.3566 44.244 68.3566 42.9457C68.3566 41.6474 67.436 40.6087 66.1974 40.6087C64.9588 40.6087 64.0215 41.6474 64.0215 42.9457ZM61.8456 42.9284C61.8456 40.2452 63.7705 38.5314 65.8961 38.5314C67.0343 38.5314 67.9549 39.0681 68.3566 39.7951V39.1373C68.3566 38.9296 68.524 38.7738 68.6913 38.7738H70.1643C70.3484 38.7738 70.499 38.9296 70.499 39.1373V46.7714C70.499 46.9618 70.3484 47.1176 70.1643 47.1176H68.6913C68.5072 47.1176 68.3566 46.9618 68.3566 46.7714V46.0963C67.9381 46.8234 67.0176 47.36 65.8794 47.36C63.7705 47.36 61.8456 45.6116 61.8456 42.9284Z" fill="white"/>
<path d="M75.8797 38.6699H76.1141C76.2814 38.6699 76.499 38.7565 76.499 39.1027V40.5914C76.499 40.9376 76.2312 41.0242 76.0973 41.0242H75.6956C74.6244 41.0242 74.0051 41.5955 74.0051 43.0323V46.7887C74.0051 46.9792 73.821 47.1176 73.6536 47.1176H72.1807C71.9966 47.1176 71.8459 46.9618 71.8459 46.7714V39.1373C71.8459 38.9296 71.9966 38.7738 72.1807 38.7738H73.5699C73.7373 38.7738 73.9047 38.9296 73.9047 39.1027V39.899C74.3231 39.1546 75.0261 38.6699 75.8797 38.6699Z" fill="white"/>
<path d="M79.6399 46.7714C79.6399 46.9618 79.4893 47.1176 79.2884 47.1176H77.8323C77.6314 47.1176 77.4808 46.9618 77.4808 46.7714V35.3462C77.4808 35.1558 77.6314 35 77.8323 35H79.2884C79.4893 35 79.6399 35.1558 79.6399 35.3462V41.7859H80.2592L82.3012 39.0334C82.4351 38.843 82.5858 38.7738 82.7532 38.7738H84.3935C84.7115 38.7738 84.7952 39.0508 84.6111 39.3104L82.1171 42.4437L85.0295 46.5637C85.1969 46.8234 85.0797 47.1176 84.745 47.1176H83.0544C82.8536 47.1176 82.6862 47.0311 82.5523 46.8234L80.3094 43.517H79.6399V46.7714Z" fill="white"/>
<path d="M89.258 38.5314C91.7519 38.5314 93.3755 40.4876 93.3755 42.7034V43.1188C93.3755 43.3266 93.2918 43.4997 92.9905 43.4997H87.2327C87.3499 44.6768 88.2537 45.4558 89.3417 45.4558C89.7769 45.4558 90.1284 45.3519 90.4296 45.1961C90.7142 45.0403 90.9318 44.8499 91.1661 44.5729C91.2833 44.4345 91.4172 44.3825 91.6013 44.4864L92.7897 45.2481C92.9738 45.3692 92.9738 45.5597 92.8733 45.6982C92.5219 46.1829 92.003 46.6156 91.4004 46.9099C90.8146 47.1869 90.1284 47.36 89.3082 47.36C86.7808 47.36 85.0066 45.4558 85.0066 42.9803C85.0066 40.5049 86.7808 38.5314 89.258 38.5314ZM91.2498 42.0802C91.0489 40.9376 90.1953 40.3318 89.2747 40.3318C88.3039 40.3318 87.5005 41.0242 87.2829 42.0802H91.2498Z" fill="white"/>
<path d="M99.5555 45.0403L100.058 45.8886C100.192 46.0963 100.158 46.304 100.007 46.4598C99.4885 46.9965 98.6517 47.2908 97.7311 47.2908C96.3921 47.2908 95.053 46.5291 95.053 44.6595V40.6434H93.9484C93.7642 40.6434 93.6136 40.4703 93.6136 40.2798V39.1373C93.6136 38.9296 93.7642 38.7738 93.9484 38.7738H95.053V36.4541C95.053 36.2464 95.2037 36.0906 95.4045 36.0906H96.8775C97.0616 36.0906 97.2122 36.2464 97.2122 36.4541V38.7738H99.5555C99.7396 38.7738 99.907 38.9296 99.907 39.1373V40.2798C99.907 40.4703 99.7396 40.6434 99.5555 40.6434H97.2122V44.1575C97.2122 45.0057 97.7478 45.2308 98.1328 45.2308C98.3336 45.2308 98.6182 45.1615 98.9027 44.9711C99.1538 44.8153 99.4049 44.8153 99.5555 45.0403Z" fill="white"/>
<path d="M84.7672 39.435L84.7675 39.4352L84.7739 39.4261C84.8901 39.2622 84.9457 39.0587 84.8778 38.8753C84.8041 38.6764 84.6139 38.5738 84.3932 38.5738H82.7529C82.515 38.5738 82.3063 38.6793 82.1389 38.9162L80.1583 41.5859H79.8396V35.3462C79.8396 35.0453 79.5994 34.8 79.2881 34.8H77.832C77.5207 34.8 77.2805 35.0453 77.2805 35.3462V46.7714C77.2805 47.0724 77.5207 47.3176 77.832 47.3176H79.2881C79.5994 47.3176 79.8396 47.0724 79.8396 46.7714V43.717H80.2031L82.3852 46.9338C82.5528 47.1926 82.7807 47.3176 83.0541 47.3176H84.7446C84.9744 47.3176 85.1667 47.2121 85.256 47.0236C85.3418 46.8423 85.3101 46.6303 85.1973 46.4553L85.1974 46.4552L85.1925 46.4482L82.3668 42.4508L84.7672 39.435Z" fill="white" stroke="#FD6400" stroke-width="0.4"/>
</g>
<path fill-rule="evenodd" clip-rule="evenodd" d="M31.0422 28.551C31.1843 28.8101 31.3923 29.0271 31.6455 29.1797C31.9061 29.3369 32.2047 29.42 32.509 29.42C32.8133 29.42 33.1118 29.3369 33.3725 29.1797C33.6331 29.0226 33.846 28.7972 33.9881 28.528C34.1303 28.7972 34.3431 29.0226 34.6038 29.1797C34.8644 29.3369 35.1629 29.42 35.4673 29.42C35.7716 29.42 36.0701 29.3369 36.3307 29.1797C36.5914 29.0226 36.8042 28.7972 36.9464 28.528C37.0875 28.7987 37.2999 29.0256 37.5606 29.1842C37.8213 29.3428 38.1204 29.427 38.4255 29.4278H38.5649C38.9562 29.3912 39.3226 29.2192 39.6007 28.9414C39.8789 28.6635 40.0514 28.2973 40.0887 27.9058C40.119 27.5345 40.0232 27.1639 39.8168 26.8539C39.7849 26.8077 39.7485 26.7647 39.7081 26.7256L35.7349 22.8083C35.535 22.6111 35.2656 22.5004 34.9849 22.5H27.1096C26.8289 22.5004 26.5596 22.6111 26.3596 22.8083L22.3865 26.7186C22.3461 26.7577 22.3097 26.8007 22.2777 26.847C22.0689 27.1561 21.9706 27.5268 21.9989 27.8988C22.0397 28.3222 22.2379 28.7148 22.5541 28.9989C22.8703 29.2831 23.2817 29.4381 23.7067 29.4334C23.6452 29.4331 23.5837 29.4294 23.5226 29.4222H23.662C23.9672 29.4215 24.2662 29.3372 24.527 29.1786C24.7877 29.02 25.0001 28.7931 25.1412 28.5224C25.2833 28.7916 25.4962 29.017 25.7568 29.1741C26.0175 29.3313 26.316 29.4144 26.6203 29.4144C26.9246 29.4144 27.2232 29.3313 27.4838 29.1741C27.7444 29.017 27.9573 28.7916 28.0995 28.5224C28.2416 28.7916 28.4545 29.017 28.7151 29.1741C28.9757 29.3313 29.2743 29.4144 29.5786 29.4144C29.8829 29.4144 30.1814 29.3313 30.4421 29.1741C30.6934 29.0226 30.9003 28.8076 31.0422 28.551ZM27.6227 30.6504H38.7755C38.9182 30.6504 39.0551 30.7071 39.156 30.8081C39.2569 30.9091 39.3136 31.0461 39.3136 31.1889V42.2027C39.3136 42.2734 39.2997 42.3433 39.2726 42.4086C39.2456 42.4739 39.2059 42.5331 39.1559 42.583C39.1059 42.6329 39.0466 42.6724 38.9813 42.6994C38.916 42.7263 38.8461 42.74 38.7755 42.7398H25.236C25.2081 42.7398 25.1804 42.7337 25.1551 42.7219C25.1297 42.7101 25.1072 42.6929 25.0892 42.6716C25.0711 42.6502 25.058 42.6251 25.0506 42.5981C25.0432 42.5711 25.0418 42.5428 25.0464 42.5152C25.2953 41.0234 25.8777 39.6071 26.75 38.372C29.4254 34.6322 34.0739 33.8783 34.1993 33.858L34.2015 33.8576C34.3151 33.8421 34.4185 33.7838 34.4906 33.6946C34.5627 33.6054 34.5981 33.492 34.5896 33.3776C34.581 33.2632 34.5292 33.1563 34.4447 33.0788C34.3601 33.0014 34.2492 32.9591 34.1346 32.9606C30.6981 32.9606 27.5684 34.2273 25.3378 36.5291C24.221 37.6819 23.374 39.0685 22.8577 40.5887C22.8545 40.5967 22.8486 40.6033 22.8411 40.6075C22.8336 40.6116 22.8249 40.6131 22.8164 40.6117C22.8079 40.6102 22.8002 40.6059 22.7946 40.5994C22.7889 40.5929 22.7856 40.5847 22.7852 40.5761V35.487C22.785 34.8514 22.9101 34.2221 23.1532 33.6349C23.3963 33.0478 23.7526 32.5143 24.2019 32.0651C24.6512 31.6159 25.1846 31.2597 25.7716 31.017C26.3586 30.7742 26.9876 30.6497 27.6227 30.6504Z" fill="white"/>
<defs>
<clipPath id="clip0_222_8276">
<rect width="69" height="36.5449" fill="white" transform="translate(46.3984 20.7275)"/>
</clipPath>
</defs>
</svg>
