<svg width="12" height="18" viewBox="0 0 12 18" fill="none" xmlns="http://www.w3.org/2000/svg">
<path fill-rule="evenodd" clip-rule="evenodd" d="M2.56238 0.953125C2.08811 0.953125 1.703 1.33824 1.703 1.8125V16.165C1.703 16.6393 2.08811 17.0244 2.56238 17.0244H9.4955C9.96977 17.0244 10.3549 16.6393 10.3549 16.165V1.8125C10.3549 1.33824 9.96977 0.953125 9.4955 0.953125H2.56238ZM0.921753 1.8125C0.921753 0.906764 1.65664 0.171875 2.56238 0.171875H9.4955C10.4012 0.171875 11.1361 0.906764 11.1361 1.8125V16.165C11.1361 17.0707 10.4012 17.8056 9.4955 17.8056H2.56238C1.65664 17.8056 0.921753 17.0707 0.921753 16.165V1.8125Z" fill="#3A474E"/>
<path fill-rule="evenodd" clip-rule="evenodd" d="M10.7456 3.43652H1.3125V2.65527H10.7456V3.43652Z" fill="#3A474E"/>
<path fill-rule="evenodd" clip-rule="evenodd" d="M10.7456 14.9092H1.3125V14.1279H10.7456V14.9092Z" fill="#3A474E"/>
<path fill-rule="evenodd" clip-rule="evenodd" d="M4.96545 1.81348C4.96545 1.59774 5.14034 1.42285 5.35608 1.42285H6.7017C6.91744 1.42285 7.09233 1.59774 7.09233 1.81348C7.09233 2.02921 6.91744 2.2041 6.7017 2.2041H5.35608C5.14034 2.2041 4.96545 2.02921 4.96545 1.81348Z" fill="#3A474E"/>
<path fill-rule="evenodd" clip-rule="evenodd" d="M6.02991 16.6787C5.94241 16.6787 5.86741 16.66 5.78616 16.635C5.71116 16.6037 5.64303 16.5537 5.58616 16.4975C5.46803 16.3787 5.40491 16.2225 5.40491 16.0537C5.40491 15.9725 5.41803 15.8912 5.44866 15.8162C5.47991 15.7412 5.52991 15.6725 5.58616 15.61C5.81741 15.3787 6.23616 15.3787 6.47366 15.61C6.58678 15.7287 6.65491 15.8912 6.65491 16.0537C6.65491 16.135 6.63678 16.2162 6.60491 16.2912C6.57366 16.3662 6.53053 16.435 6.47366 16.4975C6.35553 16.6162 6.19303 16.6787 6.02991 16.6787Z" fill="#3A474E"/>
<path fill-rule="evenodd" clip-rule="evenodd" d="M8.40905 6.75684V5.78121C8.40905 5.73371 8.3703 5.69434 8.32217 5.69434H6.8778C6.0628 5.69434 5.40217 6.35184 5.39592 7.16434V5.97871C5.39592 5.81621 5.2728 5.69434 5.12405 5.69434H4.52217H3.91905C3.77092 5.69434 3.64905 5.81621 3.64905 5.97871V11.95C3.64905 12.0987 3.7703 12.22 3.91905 12.22H4.52217H5.12467C5.27342 12.22 5.39592 12.0987 5.39592 11.95V8.25309C5.39592 8.24371 5.39655 8.23496 5.3978 8.22621C5.45717 7.82121 5.63405 7.45246 5.91405 7.16309C6.3003 6.76434 6.8403 6.54496 7.43405 6.54496C7.4753 6.54496 7.50967 6.57621 7.51217 6.61746C7.5153 6.65871 7.48592 6.69434 7.44592 6.70059C7.43717 6.70184 6.62467 6.82934 6.1578 7.48246C6.00155 7.70184 5.90155 7.95434 5.85655 8.23934H6.92717C7.7453 8.23934 8.40905 7.57559 8.40905 6.75684Z" fill="#3A474E"/>
</svg>
