<svg width="16" height="20" viewBox="0 0 16 20" fill="none" xmlns="http://www.w3.org/2000/svg">
<path d="M13.625 7.5H13V5C13 2.25 10.75 0 8 0C5.25 0 3 2.25 3 5V7.5H2.375C1.3125 7.5 0.5 8.3125 0.5 9.375V18.125C0.5 19.1875 1.3125 20 2.375 20H13.625C14.6875 20 15.5 19.1875 15.5 18.125V9.375C15.5 8.3125 14.6875 7.5 13.625 7.5ZM4.25 5C4.25 2.9375 5.9375 1.25 8 1.25C10.0625 1.25 11.75 2.9375 11.75 5V7.5H4.25V5ZM14.25 18.125C14.25 18.5 14 18.75 13.625 18.75H2.375C2 18.75 1.75 18.5 1.75 18.125V9.375C1.75 9 2 8.75 2.375 8.75H13.625C14 8.75 14.25 9 14.25 9.375V18.125Z" fill="#3A474E"/>
</svg>
