<svg width="133" height="70" viewBox="0 0 133 70" fill="none" xmlns="http://www.w3.org/2000/svg">
<path d="M0 20C0 8.9543 8.9543 0 20 0H133V50C133 61.0457 124.046 70 113 70H0V20Z" fill="#FD6400"/>
<g clip-path="url(#clip0_222_8228)">
<path fill-rule="evenodd" clip-rule="evenodd" d="M51.0052 25.6855C49.9791 25.6855 49.1319 26.3806 48.8992 27.4366H53.0903C52.8785 26.2911 51.9777 25.6855 51.0022 25.6855M55.3336 28.06V28.4776C55.3336 28.6835 55.2441 28.8594 54.9249 28.8594H48.8485C48.9738 30.0377 49.9254 30.8193 51.0768 30.8193C51.5362 30.8193 51.9061 30.7149 52.2282 30.5598C52.5295 30.4046 52.7562 30.2137 53.0068 29.9363C53.1321 29.7961 53.2723 29.7454 53.4662 29.8468L54.722 30.6105C54.9159 30.7328 54.9159 30.9207 54.8115 31.0609C54.4416 31.5442 53.8928 31.9797 53.2574 32.275C52.6399 32.5524 51.912 32.7254 51.047 32.7254C48.3772 32.7224 46.5038 30.8133 46.5038 28.3374C46.5038 25.8615 48.3712 23.8838 50.9873 23.8838C53.6034 23.8838 55.3365 25.8436 55.3365 28.063" fill="white"/>
<path fill-rule="evenodd" clip-rule="evenodd" d="M57.9642 32.09C57.7136 32.09 57.5526 31.9379 57.481 31.7321L54.7366 24.4088C54.6292 24.1344 54.7903 23.8838 55.0767 23.8838H56.8128C57.0812 23.8838 57.1886 24.0359 57.2602 24.2239L59.2141 29.8617L61.0069 24.2239C61.0606 24.0359 61.1859 23.8838 61.4543 23.8838H63.1576C63.444 23.8838 63.6051 24.1403 63.5156 24.4088L60.7742 31.7291C60.7205 31.9319 60.5385 32.0871 60.3089 32.0871H57.9642V32.09Z" fill="white"/>
<path fill-rule="evenodd" clip-rule="evenodd" d="M68.0501 25.6855C67.024 25.6855 66.1768 26.3805 65.9471 27.4365H70.1382C69.9264 26.291 69.0256 25.6855 68.0501 25.6855ZM72.3815 28.0599V28.4776C72.3815 28.6834 72.292 28.8594 71.9728 28.8594H65.8904C66.0157 30.0377 66.9703 30.8192 68.1187 30.8192C68.5781 30.8192 68.948 30.7148 69.2702 30.5597C69.5715 30.4046 69.7982 30.2137 70.0487 29.9363C70.174 29.7961 70.3142 29.7453 70.5081 29.8468L71.764 30.6104C71.9579 30.7327 71.9579 30.9207 71.8535 31.0609C71.4836 31.5441 70.9347 31.9796 70.2993 32.2749C69.6818 32.5524 68.954 32.7254 68.0889 32.7254C65.4191 32.7254 63.5458 30.8163 63.5458 28.3404C63.5458 25.8645 65.4191 23.8867 68.0382 23.8867C70.6573 23.8867 72.3874 25.8466 72.3874 28.0659" fill="white"/>
<path fill-rule="evenodd" clip-rule="evenodd" d="M106.638 34.9896C106.477 34.8315 106.459 34.563 106.62 34.3512L107.172 33.5876C107.384 33.3042 107.688 33.337 107.903 33.4981C108.204 33.7308 108.559 33.9068 108.989 33.9068C109.541 33.9068 109.949 33.5339 110.146 33.0029L110.349 32.4331H109.55C109.317 32.4331 109.177 32.29 109.105 32.0782L106.507 24.4327C106.438 24.1493 106.489 23.8809 106.88 23.8809H108.712C108.923 23.8809 109.049 24.0569 109.105 24.2508L110.973 30.354L112.736 24.2508C112.789 24.0569 112.929 23.8809 113.198 23.8809H114.961C115.28 23.8809 115.387 24.1135 115.28 24.4327L112.404 33.3609C111.906 34.8852 110.838 35.8815 109.15 35.8815C108.136 35.8815 107.226 35.5444 106.638 34.9926" fill="white"/>
<path fill-rule="evenodd" clip-rule="evenodd" d="M101.451 30.6583C102.715 30.6583 103.658 29.6023 103.658 28.2987C103.658 26.9951 102.718 25.96 101.451 25.96C100.183 25.96 99.2252 27.0011 99.2252 28.2987C99.2252 29.5963 100.183 30.6583 101.451 30.6583ZM101.143 23.8809C102.307 23.8809 103.246 24.4208 103.658 25.1457V24.4894C103.658 24.2836 103.828 24.1255 103.998 24.1255H105.504C105.692 24.1255 105.845 24.2806 105.845 24.4894V32.1319C105.845 32.3228 105.689 32.4779 105.504 32.4779H103.998C103.81 32.4779 103.658 32.3228 103.658 32.1319V31.4577C103.228 32.1856 102.289 32.7225 101.125 32.7225C98.9717 32.7225 97.0059 30.9715 97.0059 28.2868C97.0059 25.6021 98.9717 23.8838 101.143 23.8838" fill="white"/>
<path fill-rule="evenodd" clip-rule="evenodd" d="M91.6662 30.6042C90.3089 30.6042 89.2827 29.5214 89.2827 28.185C89.2827 26.8486 90.3089 25.7837 91.6662 25.7837C93.0234 25.7837 94.0317 26.8516 94.0317 28.185C94.0317 29.5184 93.0234 30.6042 91.6662 30.6042ZM96.3316 20.9244C96.3197 20.9005 96.3018 20.8766 96.2839 20.8558C96.2749 20.8438 96.266 20.8349 96.257 20.8259C96.2302 20.7991 96.1974 20.7782 96.1616 20.7633L96.1437 20.7543C96.1168 20.7454 96.09 20.7394 96.0601 20.7394C96.0422 20.7394 96.0273 20.7305 96.0094 20.7305H94.3956C94.2136 20.7305 94.0347 20.8886 94.0317 21.0974V21.5389L94.0138 24.9186C93.5723 24.2057 92.5461 23.6568 91.2843 23.6568C88.9934 23.6568 86.9053 25.4347 86.9053 28.1731C86.9053 30.9115 88.9934 32.7252 91.3201 32.7252C92.564 32.7252 93.5156 32.1733 94.0317 31.4275V32.1226C94.0317 32.3165 94.1958 32.4776 94.3986 32.4776H95.9915C96.2093 32.4776 96.3763 32.3165 96.3763 32.1226V21.0944C96.3763 21.0526 96.3674 21.0049 96.3525 20.9661C96.3465 20.9512 96.3405 20.9393 96.3346 20.9244" fill="white"/>
<path fill-rule="evenodd" clip-rule="evenodd" d="M79.2453 23.9698H77.3272C76.2474 23.9698 75.3704 24.7961 75.3614 25.8192V24.3277C75.3614 24.1249 75.2004 23.9698 75.0035 23.9698H73.4046C73.2077 23.9698 73.0466 24.1219 73.0466 24.3277V31.836C73.0466 32.0209 73.2077 32.176 73.4046 32.176H75.0065C75.2033 32.176 75.3644 32.0239 75.3644 31.836V27.1855C75.3644 27.1855 75.3644 27.1646 75.3674 27.1527C75.448 26.6455 75.6806 26.1802 76.0505 25.8163C76.5636 25.3151 77.2795 25.0377 78.067 25.0377C78.1207 25.0377 78.1685 25.0765 78.1714 25.1302C78.1744 25.1809 78.1386 25.2286 78.082 25.2346C78.07 25.2346 76.9932 25.3957 76.3757 26.216C76.1698 26.4934 76.0356 26.8096 75.9759 27.1676H77.3929C78.4787 27.1676 79.3587 26.3353 79.3587 25.3032V24.0772C79.3587 24.0175 79.308 23.9668 79.2423 23.9668" fill="white"/>
<path d="M51.0053 40.5798C50.4296 40.5798 49.9702 40.7648 49.6301 41.1347C49.29 41.5045 49.12 41.9878 49.12 42.5874V46.7755C49.12 46.868 49.0812 46.9456 49.0067 47.0082C48.9321 47.0708 48.8486 47.1037 48.7561 47.1037H47.2318C47.1393 47.1037 47.0588 47.0679 46.9901 46.9993C46.9215 46.9306 46.8857 46.8501 46.8857 46.7576V39.1271C46.8857 39.0227 46.9215 38.9362 46.9901 38.8676C47.0588 38.799 47.1393 38.7632 47.2318 38.7632H48.7561C48.8486 38.7632 48.9321 38.799 49.0067 38.8676C49.0812 38.9362 49.12 39.0108 49.12 39.0913V39.7476C49.3736 39.3777 49.7375 39.0823 50.2088 38.8556C50.6801 38.6319 51.1843 38.5186 51.7152 38.5186C52.3148 38.5186 52.8488 38.6498 53.3171 38.9093C53.7854 39.1689 54.1374 39.5298 54.382 39.9892C54.74 39.5179 55.1725 39.1539 55.6797 38.9004C56.1868 38.6468 56.7416 38.5186 57.3412 38.5186C58.436 38.5186 59.304 38.8467 59.9454 39.5059C60.5867 40.1652 60.9059 41.0124 60.9059 42.0504V46.7725C60.9059 46.865 60.8701 46.9426 60.8015 47.0052C60.7329 47.0679 60.6464 47.1007 60.542 47.1007H59.0355C58.9311 47.1007 58.8446 47.0679 58.776 47.0052C58.7074 46.9426 58.6716 46.865 58.6716 46.7725V42.5844C58.6716 41.9609 58.5135 41.4717 58.1943 41.1138C57.8781 40.7558 57.4426 40.5768 56.8878 40.5768C56.3329 40.5768 55.8706 40.7618 55.5305 41.1317C55.1904 41.5016 55.0204 41.9848 55.0204 42.5844V46.7725C55.0204 46.865 54.9816 46.9426 54.9071 47.0052C54.8325 47.0679 54.749 47.1007 54.6565 47.1007H53.1501C53.0576 47.1007 52.9741 47.0679 52.8995 47.0052C52.8249 46.9426 52.7861 46.865 52.7861 46.7725V42.5844C52.7861 41.9609 52.628 41.4717 52.3089 41.1138C51.9927 40.7558 51.5571 40.5768 51.0023 40.5768L51.0053 40.5798Z" fill="white"/>
<path d="M66.2637 47.3452C65.0078 47.3452 63.9459 46.9216 63.0808 46.0745C62.2157 45.2273 61.7832 44.1862 61.7832 42.9513C61.7832 41.7163 62.2157 40.6693 63.0808 39.8101C63.9459 38.951 65.0078 38.5215 66.2637 38.5215C67.5195 38.5215 68.5815 38.951 69.4466 39.8101C70.3116 40.6693 70.7442 41.7163 70.7442 42.9513C70.7442 44.1862 70.3116 45.2273 69.4466 46.0745C68.5815 46.9216 67.5195 47.3452 66.2637 47.3452ZM66.2637 40.5977C65.6283 40.5977 65.0973 40.8214 64.6708 41.2718C64.2442 41.7223 64.0294 42.2741 64.0294 42.9334C64.0294 43.5926 64.2412 44.1445 64.6708 44.5949C65.0973 45.0453 65.6283 45.2691 66.2637 45.2691C66.8991 45.2691 67.43 45.0453 67.8566 44.5949C68.2832 44.1445 68.498 43.5926 68.498 42.9334C68.498 42.2741 68.2832 41.7223 67.8566 41.2718C67.43 40.8214 66.8991 40.5977 66.2637 40.5977Z" fill="white"/>
<path d="M76.5245 38.5211C77.679 38.5211 78.6544 38.9387 79.4568 39.7769C80.2593 40.6122 80.659 41.6592 80.659 42.918C80.659 44.1769 80.2563 45.2418 79.4479 46.083C78.6395 46.9242 77.6551 47.3448 76.4887 47.3448C75.9458 47.3448 75.4507 47.2315 75.0002 47.0078C74.5498 46.784 74.1918 46.4738 73.9263 46.083V46.7572C73.9263 46.8497 73.8905 46.9302 73.8219 46.9988C73.7533 47.0674 73.6728 47.1032 73.5803 47.1032H72.0739C71.9695 47.1032 71.883 47.0674 71.8144 46.9988C71.7458 46.9302 71.71 46.8497 71.71 46.7572V35.3382C71.71 35.2457 71.7458 35.1652 71.8144 35.0966C71.883 35.028 71.9695 34.9922 72.0739 34.9922H73.5803C73.6728 34.9922 73.7563 35.028 73.8309 35.0966C73.9055 35.1652 73.9442 35.2457 73.9442 35.3382V39.7501C74.162 39.3802 74.505 39.0849 74.9734 38.8582C75.4417 38.6344 75.9578 38.5211 76.5216 38.5211H76.5245ZM76.1606 45.2866C76.796 45.2866 77.33 45.0598 77.7625 44.6034C78.195 44.147 78.4098 43.5922 78.4098 42.933C78.4098 42.2737 78.192 41.7219 77.7625 41.2714C77.33 40.821 76.796 40.5973 76.1606 40.5973C75.5252 40.5973 74.9943 40.821 74.5677 41.2714C74.1411 41.7219 73.9263 42.2737 73.9263 42.933C73.9263 43.5922 74.1381 44.147 74.5677 44.6034C74.9943 45.0598 75.5252 45.2866 76.1606 45.2866Z" fill="white"/>
<path d="M84.1525 36.2721C84.1525 36.654 84.0182 36.9821 83.7468 37.2595C83.4753 37.5369 83.1502 37.6741 82.7683 37.6741C82.3865 37.6741 82.0584 37.5369 81.781 37.2595C81.5036 36.9821 81.3663 36.654 81.3663 36.2721C81.3663 35.8903 81.5036 35.5622 81.781 35.2848C82.0584 35.0073 82.3865 34.8701 82.7683 34.8701C83.1502 34.8701 83.4753 35.0073 83.7468 35.2848C84.0182 35.5622 84.1525 35.8903 84.1525 36.2721ZM83.5111 47.1034H82.0047C81.9003 47.1034 81.8138 47.0676 81.7452 46.999C81.6766 46.9304 81.6408 46.8439 81.6408 46.7395V39.1269C81.6408 39.0225 81.6766 38.936 81.7452 38.8674C81.8138 38.7987 81.9003 38.7629 82.0047 38.7629H83.5111C83.6155 38.7629 83.702 38.7987 83.7706 38.8674C83.8392 38.936 83.875 39.0225 83.875 39.1269V46.7395C83.875 46.8439 83.8392 46.9304 83.7706 46.999C83.702 47.0676 83.6155 47.1034 83.5111 47.1034Z" fill="white"/>
<path d="M88.5132 47.1033H87.4065C86.7025 47.1033 86.1686 46.9273 85.8076 46.5753C85.4437 46.2233 85.2617 45.7072 85.2617 45.0271V35.3532C85.2617 35.2488 85.2975 35.1623 85.3661 35.0937C85.4347 35.0251 85.5212 34.9893 85.6256 34.9893H87.1321C87.2365 34.9893 87.323 35.0251 87.3916 35.0937C87.4602 35.1623 87.496 35.2488 87.496 35.3532V44.5916C87.496 44.8004 87.5497 44.9615 87.6601 45.0748C87.7704 45.1912 87.9226 45.2478 88.1194 45.2478H88.6206C88.725 45.2478 88.8085 45.2777 88.8712 45.3343C88.9338 45.391 88.9666 45.4716 88.9666 45.576V46.6648C88.9666 46.802 88.9249 46.9094 88.8443 46.9839C88.7638 47.0585 88.6534 47.0973 88.5162 47.0973V47.1033H88.5132Z" fill="white"/>
<path d="M89.1523 42.9662C89.1523 41.7103 89.57 40.6543 90.4082 39.8012C91.2434 38.9481 92.2905 38.5215 93.5493 38.5215C94.8081 38.5215 95.7866 38.9212 96.595 39.7236C97.4033 40.5261 97.8061 41.5134 97.8061 42.6917V43.1064C97.8061 43.2346 97.7732 43.3301 97.7106 43.3927C97.648 43.4554 97.5465 43.4882 97.4063 43.4882H91.4552C91.5119 44.0639 91.7476 44.5352 92.1562 44.8992C92.5649 45.2631 93.0571 45.445 93.6358 45.445C93.8446 45.445 94.0385 45.4242 94.2235 45.3854C94.4084 45.3436 94.5874 45.278 94.7604 45.1855C94.8976 45.1169 95.0289 45.0334 95.1482 44.935C95.2705 44.8365 95.3928 44.7142 95.5211 44.5621C95.5897 44.4815 95.6613 44.4338 95.7388 44.4249C95.8134 44.4129 95.891 44.4308 95.9715 44.4756L97.2005 45.2362C97.293 45.2929 97.3437 45.3645 97.3556 45.445C97.3676 45.5256 97.3437 45.6061 97.287 45.6867C97.1021 45.9283 96.8813 46.155 96.6218 46.3608C96.3623 46.5696 96.0759 46.7486 95.7657 46.8978C95.4316 47.0469 95.0855 47.1603 94.7276 47.2349C94.3696 47.3094 93.9938 47.3482 93.603 47.3482C92.3233 47.3482 91.2613 46.9336 90.4201 46.1013C89.5789 45.272 89.1583 44.228 89.1583 42.9692H89.1523V42.9662ZM91.5059 42.0623H95.6076C95.5151 41.5313 95.2824 41.1078 94.9066 40.7916C94.5307 40.4754 94.0862 40.3173 93.5672 40.3173C93.0482 40.3173 92.6186 40.4783 92.2427 40.8005C91.8669 41.1227 91.6223 41.5433 91.5059 42.0623Z" fill="white"/>
<path fill-rule="evenodd" clip-rule="evenodd" d="M50.9157 25.7481C49.8866 25.7481 49.0364 26.4431 48.8037 27.5021H53.0038C52.789 26.3536 51.8882 25.7481 50.9097 25.7481M55.25 28.1285V28.5461C55.25 28.755 55.1605 28.928 54.8413 28.928H48.753C48.8783 30.1092 49.8329 30.8938 50.9873 30.8938C51.4467 30.8938 51.8195 30.7894 52.1417 30.6343C52.443 30.4791 52.6727 30.2852 52.9233 30.0078C53.0485 29.8676 53.1887 29.8169 53.3826 29.9183L54.6415 30.685C54.8354 30.8073 54.8354 30.9952 54.731 31.1354C54.3581 31.6216 53.8092 32.0571 53.1708 32.3525C52.5504 32.6299 51.8225 32.8029 50.9545 32.8029C48.2787 32.8029 46.3994 30.8908 46.3994 28.4059C46.3994 25.9211 48.2727 23.9434 50.8978 23.9434C53.5228 23.9434 55.259 25.9092 55.259 28.1315" fill="white"/>
<path fill-rule="evenodd" clip-rule="evenodd" d="M57.8929 32.1705C57.6424 32.1705 57.4813 32.0184 57.4067 31.8096L54.6564 24.4714C54.549 24.1969 54.7101 23.9434 54.9994 23.9434H56.7415C57.01 23.9434 57.1203 24.0955 57.1889 24.2864L59.1488 29.9392L60.9445 24.2864C60.9982 24.0985 61.1235 23.9434 61.392 23.9434H63.1013C63.3876 23.9434 63.5487 24.1999 63.4622 24.4714L60.7149 31.8125C60.6612 32.0184 60.4792 32.1735 60.2495 32.1735H57.8959L57.8929 32.1705Z" fill="white"/>
<path fill-rule="evenodd" clip-rule="evenodd" d="M68.0053 25.7481C66.9762 25.7481 66.126 26.4432 65.8964 27.5021H70.0964C69.8817 26.3537 68.9808 25.7481 68.0024 25.7481H68.0053ZM72.3456 28.1286V28.5462C72.3456 28.755 72.2561 28.928 71.937 28.928H65.8397C65.965 30.1093 66.9225 30.8938 68.074 30.8938C68.5333 30.8938 68.9062 30.7894 69.2284 30.6343C69.5297 30.4792 69.7594 30.2853 70.0099 30.0079C70.1352 29.8677 70.2754 29.817 70.4693 29.9184L71.7281 30.685C71.922 30.8073 71.922 30.9952 71.8176 31.1354C71.4448 31.6217 70.8959 32.0572 70.2575 32.3525C69.6371 32.6299 68.9092 32.803 68.0411 32.803C65.3654 32.803 63.4861 30.8908 63.4861 28.406C63.4861 25.9211 65.3654 23.9404 67.9904 23.9404C70.6155 23.9404 72.3516 25.9062 72.3516 28.1286" fill="white"/>
<path fill-rule="evenodd" clip-rule="evenodd" d="M106.695 35.079C106.534 34.9209 106.516 34.6525 106.677 34.4377L107.229 33.6711C107.444 33.3877 107.748 33.4205 107.96 33.5816C108.261 33.8142 108.619 33.9902 109.049 33.9902C109.601 33.9902 110.012 33.6144 110.209 33.0834L110.415 32.5137H109.613C109.38 32.5137 109.237 32.3705 109.168 32.1557L106.564 24.4894C106.492 24.206 106.546 23.9375 106.94 23.9375H108.777C108.992 23.9375 109.117 24.1135 109.171 24.3104L111.045 30.4315L112.81 24.3104C112.864 24.1165 113.004 23.9375 113.273 23.9375H115.039C115.358 23.9375 115.465 24.1702 115.358 24.4894L112.473 33.4414C111.972 34.9687 110.901 35.968 109.21 35.968C108.193 35.968 107.283 35.6279 106.692 35.0761" fill="white"/>
<path fill-rule="evenodd" clip-rule="evenodd" d="M101.496 30.7387C102.763 30.7387 103.709 29.6797 103.709 28.3731C103.709 27.0666 102.766 26.0285 101.496 26.0285C100.225 26.0285 99.2643 27.0725 99.2643 28.3731C99.2643 29.6737 100.225 30.7387 101.496 30.7387ZM101.188 23.9434C102.355 23.9434 103.297 24.4833 103.709 25.2111V24.5519C103.709 24.3431 103.879 24.185 104.052 24.185H105.561C105.749 24.185 105.904 24.3401 105.904 24.5519V32.2152C105.904 32.4062 105.749 32.5643 105.561 32.5643H104.052C103.864 32.5643 103.709 32.4091 103.709 32.2152V31.5381C103.279 32.266 102.337 32.8059 101.17 32.8059C99.0107 32.8059 97.0389 31.0519 97.0389 28.3582C97.0389 25.6646 99.0107 23.9434 101.188 23.9434Z" fill="white"/>
<path fill-rule="evenodd" clip-rule="evenodd" d="M91.6849 30.6819C90.3247 30.6819 89.2955 29.596 89.2955 28.2567C89.2955 26.9173 90.3247 25.8494 91.6849 25.8494C93.0452 25.8494 94.0564 26.9203 94.0564 28.2567C94.0564 29.5931 93.0452 30.6819 91.6849 30.6819ZM96.3623 20.9781C96.3504 20.9543 96.3325 20.9304 96.3146 20.9065C96.3056 20.8946 96.2967 20.8857 96.2877 20.8767C96.2609 20.8499 96.228 20.829 96.1923 20.8141L96.1744 20.8051C96.1475 20.7962 96.1207 20.7902 96.0908 20.7902C96.0729 20.7902 96.058 20.7812 96.0401 20.7812H94.4233C94.2414 20.7812 94.0594 20.9393 94.0564 21.1511V21.5926L94.0385 24.9813C93.597 24.2684 92.5679 23.7165 91.3031 23.7165C89.0062 23.7165 86.9121 25.4974 86.9121 28.2447C86.9121 30.9921 89.0062 32.8087 91.3389 32.8087C92.5858 32.8087 93.5404 32.2569 94.0564 31.5082V32.2032C94.0564 32.3971 94.2205 32.5612 94.4263 32.5612H96.0252C96.2459 32.5612 96.41 32.4001 96.41 32.2032V21.1482C96.41 21.1064 96.4011 21.0587 96.3862 21.0199C96.3802 21.005 96.3742 20.993 96.3682 20.9781" fill="white"/>
<path fill-rule="evenodd" clip-rule="evenodd" d="M79.2304 24.0322H77.3094C76.2266 24.0322 75.3466 24.8615 75.3376 25.8877V24.3932C75.3376 24.1873 75.1765 24.0322 74.9767 24.0322H73.3748C73.1779 24.0322 73.0139 24.1844 73.0139 24.3932V31.9223C73.0139 32.1072 73.1749 32.2653 73.3748 32.2653H74.9797C75.1765 32.2653 75.3406 32.1132 75.3406 31.9223V27.2598C75.3406 27.2598 75.3406 27.239 75.3436 27.227C75.4241 26.7169 75.6568 26.2516 76.0297 25.8877C76.5457 25.3835 77.2617 25.1061 78.0522 25.1061C78.1059 25.1061 78.1536 25.1449 78.1566 25.1986C78.1595 25.2493 78.1238 25.297 78.0671 25.303C78.0551 25.303 76.9753 25.4641 76.3548 26.2874C76.146 26.5648 76.0118 26.881 75.9551 27.2419H77.378C78.4668 27.2419 79.3498 26.4067 79.3498 25.3716V24.1426C79.3498 24.0829 79.2991 24.0322 79.2334 24.0322" fill="white"/>
<path d="M86.8669 24.4952C86.9743 24.176 86.8669 23.9434 86.5478 23.9434H84.7848C84.5163 23.9434 84.3761 24.1194 84.3224 24.3162L82.5565 30.4374L80.6832 24.3162C80.6295 24.1223 80.5042 23.9434 80.2894 23.9434H79.9255C79.9434 24.006 79.9583 24.0746 79.9583 24.1462V25.3752C79.9583 26.1418 79.5944 26.8279 79.0216 27.2843L80.6772 32.1616C80.7488 32.3763 80.892 32.5195 81.1217 32.5195H81.9241L81.7153 33.0893C81.5214 33.6232 81.1068 33.9961 80.5549 33.9961C80.1283 33.9961 79.7704 33.8201 79.4661 33.5874C79.2513 33.4293 78.9471 33.3935 78.7353 33.6769L78.1834 34.4436C78.0223 34.6583 78.0402 34.9238 78.2013 35.0849C78.789 35.6368 79.6988 35.9768 80.719 35.9768C80.7458 35.9768 80.7697 35.9768 80.7935 35.9768C80.8532 35.5592 81.0411 35.1863 81.3603 34.8671C81.7511 34.4764 82.2254 34.2765 82.7683 34.2765C83.0427 34.2765 83.2993 34.3272 83.5379 34.4286C83.7169 34.1363 83.866 33.8082 83.9824 33.4502L86.864 24.4982L86.8669 24.4952Z" fill="white"/>
<path d="M46.4631 51.0037H46.9816V50.3931C46.9816 49.974 47.1084 49.6438 47.3622 49.3995C47.6159 49.1553 47.944 49.0332 48.3494 49.0332C48.5425 49.0332 48.7355 49.0665 48.9341 49.1331C49.1299 49.1997 49.2898 49.2913 49.4139 49.4023C49.4498 49.4356 49.4718 49.4772 49.4746 49.5272C49.4773 49.5772 49.4635 49.6271 49.4305 49.6771L49.1271 50.0961C49.094 50.1489 49.0526 50.1766 49.0002 50.1794C48.9479 50.1822 48.8872 50.16 48.8238 50.11C48.7603 50.0684 48.6969 50.0351 48.6307 50.0129C48.5673 49.9907 48.5066 49.9796 48.4459 49.9796C48.3191 49.9796 48.2143 50.024 48.1343 50.1156C48.0543 50.2071 48.013 50.3265 48.013 50.4791V51.0009H48.7714C48.8182 51.0009 48.8596 51.0175 48.8927 51.0481C48.9258 51.0786 48.9396 51.1202 48.9396 51.1702V51.7003C48.9396 51.7447 48.923 51.7807 48.8872 51.8168C48.8513 51.8529 48.8127 51.8695 48.7714 51.8695H48.013V54.7114C48.013 54.7531 47.9964 54.7919 47.9661 54.828C47.933 54.8641 47.8972 54.8807 47.853 54.8807H47.1498C47.1057 54.8807 47.0698 54.8641 47.034 54.828C46.9981 54.7919 46.9816 54.7531 46.9816 54.7114V51.8695H46.4631C46.4163 51.8695 46.3749 51.8529 46.3418 51.8224C46.3087 51.7918 46.2949 51.7502 46.2949 51.7003V51.1702C46.2949 51.123 46.3115 51.0814 46.3418 51.0481C46.3749 51.0148 46.4135 51.0009 46.4631 51.0009V51.0037Z" fill="white"/>
<path d="M51.4298 50.9561H51.5429C51.6008 50.9561 51.6476 50.9727 51.678 51.0088C51.7111 51.0449 51.7249 51.092 51.7249 51.1586V51.8497C51.7249 51.9135 51.7056 51.9635 51.6697 51.9996C51.6311 52.0356 51.587 52.0523 51.5346 52.0523H51.3415C51.0685 52.0523 50.8672 52.13 50.7348 52.2826C50.6025 52.4353 50.5335 52.6712 50.5335 52.9876V54.7332C50.5335 54.7748 50.517 54.8137 50.4811 54.8415C50.4453 54.872 50.4067 54.8859 50.3653 54.8859H49.6621C49.618 54.8859 49.5821 54.8692 49.549 54.8387C49.5159 54.8054 49.5021 54.7693 49.5021 54.7249V51.1753C49.5021 51.1281 49.5187 51.0865 49.549 51.0532C49.5821 51.0199 49.618 51.006 49.6621 51.006H50.3267C50.3681 51.006 50.4067 51.0227 50.4398 51.0532C50.4729 51.0865 50.4866 51.1198 50.4866 51.1586V51.5278C50.5942 51.3446 50.7266 51.2058 50.8893 51.1059C51.052 51.006 51.2312 50.9561 51.4298 50.9561Z" fill="white"/>
<path d="M54.0769 54.9974C53.495 54.9974 53.0042 54.8003 52.6043 54.4062C52.2044 54.0122 52.0059 53.5265 52.0059 52.9548C52.0059 52.3831 52.2072 51.8946 52.6043 51.495C53.0042 51.0953 53.495 50.8955 54.0769 50.8955C54.6588 50.8955 55.1497 51.0953 55.5495 51.495C55.9494 51.8946 56.148 52.3831 56.148 52.9548C56.148 53.5265 55.9466 54.0122 55.5495 54.4062C55.1497 54.8003 54.6588 54.9974 54.0769 54.9974ZM54.0769 51.8585C53.7846 51.8585 53.5392 51.964 53.3406 52.1721C53.142 52.3803 53.0455 52.6384 53.0455 52.9437C53.0455 53.2489 53.1448 53.507 53.3406 53.7152C53.5364 53.9233 53.7818 54.0288 54.0769 54.0288C54.372 54.0288 54.6147 53.9233 54.8132 53.7152C55.009 53.507 55.1083 53.2489 55.1083 52.9437C55.1083 52.6384 55.009 52.3803 54.8132 52.1721C54.6147 51.964 54.372 51.8585 54.0769 51.8585Z" fill="white"/>
<path d="M58.7405 51.8499C58.473 51.8499 58.2607 51.9359 58.1035 52.108C57.9463 52.2801 57.8663 52.5049 57.8663 52.7852V54.7334C57.8663 54.775 57.8498 54.8139 57.814 54.8417C57.7781 54.8722 57.7395 54.8861 57.6981 54.8861H56.9949C56.9508 54.8861 56.9149 54.8694 56.8818 54.8389C56.8487 54.8056 56.835 54.7695 56.835 54.7251V51.1755C56.835 51.1283 56.8515 51.0867 56.8818 51.0534C56.9149 51.0201 56.9508 51.0062 56.9949 51.0062H57.6981C57.7395 51.0062 57.7781 51.0229 57.814 51.0534C57.8498 51.0867 57.8663 51.12 57.8663 51.1589V51.4641C57.9849 51.2921 58.1504 51.1533 58.371 51.0506C58.5889 50.9452 58.8205 50.8924 59.066 50.8924C59.3417 50.8924 59.5899 50.9535 59.805 51.0728C60.0201 51.1922 60.1856 51.3614 60.2959 51.5751C60.4614 51.3559 60.6599 51.1866 60.8943 51.0673C61.1287 50.9507 61.3852 50.8896 61.661 50.8896C62.1684 50.8896 62.5683 51.0423 62.8633 51.3476C63.1584 51.6529 63.3073 52.0469 63.3073 52.5298V54.7279C63.3073 54.7695 63.2908 54.8083 63.2605 54.8361C63.2274 54.8666 63.1888 54.8805 63.1391 54.8805H62.4442C62.3973 54.8805 62.3559 54.8666 62.3228 54.8361C62.2897 54.8056 62.2759 54.7695 62.2759 54.7279V52.7796C62.2759 52.491 62.2015 52.2606 62.0553 52.0941C61.9092 51.9276 61.7079 51.8443 61.4514 51.8443C61.1949 51.8443 60.9798 51.9304 60.8226 52.1024C60.6654 52.2745 60.5855 52.4993 60.5855 52.7796V54.7279C60.5855 54.7695 60.5689 54.8083 60.5331 54.8361C60.4972 54.8666 60.4586 54.8805 60.4172 54.8805H59.7223C59.6782 54.8805 59.6423 54.8666 59.6065 54.8361C59.5706 54.8056 59.5541 54.7695 59.5541 54.7279V52.7796C59.5541 52.491 59.4796 52.2606 59.3335 52.0941C59.1873 51.9276 58.986 51.8443 58.7295 51.8443L58.7405 51.8499Z" fill="white"/>
<path d="M70.4722 54.7144L69.4739 50.8678L68.4674 54.7144C68.4508 54.7616 68.4232 54.8032 68.3846 54.8365C68.3433 54.8698 68.3019 54.8837 68.2523 54.8837H67.0913C67.0444 54.8837 67.0003 54.8698 66.9589 54.8393C66.9175 54.8087 66.89 54.7671 66.8762 54.7144L65.5249 49.5079C65.5083 49.433 65.5166 49.372 65.5497 49.322C65.5828 49.2748 65.6324 49.2498 65.7014 49.2498H66.5342C66.5728 49.2498 66.6059 49.2665 66.639 49.297C66.6721 49.3303 66.6942 49.3692 66.7107 49.4191L67.709 53.5959L68.8038 49.4025C68.8204 49.3498 68.8424 49.3109 68.8728 49.2859C68.9031 49.2609 68.9417 49.2498 68.9886 49.2498H69.9483C69.9896 49.2498 70.0282 49.2637 70.0641 49.2942C70.0999 49.3248 70.122 49.3609 70.133 49.4025L71.2278 53.5626L72.2261 49.4164C72.2372 49.3692 72.2592 49.3276 72.2896 49.2942C72.3227 49.2609 72.3585 49.2471 72.4026 49.2471H73.1858C73.2603 49.2471 73.3127 49.2693 73.343 49.3109C73.3734 49.3525 73.3761 49.4191 73.3541 49.5052L72.011 54.7116C72 54.7588 71.9697 54.8004 71.9228 54.8337C71.8759 54.867 71.8318 54.8809 71.7959 54.8809H70.6928C70.646 54.8809 70.6018 54.867 70.5605 54.8365C70.5191 54.806 70.4915 54.7643 70.4777 54.7116H70.4722V54.7144Z" fill="white"/>
<path d="M75.5105 54.9974C74.9286 54.9974 74.4378 54.8003 74.0379 54.4062C73.638 54.0122 73.4395 53.5265 73.4395 52.9548C73.4395 52.3831 73.6408 51.8946 74.0379 51.495C74.4378 51.0953 74.9286 50.8955 75.5105 50.8955C76.0924 50.8955 76.5833 51.0953 76.9831 51.495C77.383 51.8946 77.5816 52.3831 77.5816 52.9548C77.5816 53.5265 77.3802 54.0122 76.9831 54.4062C76.5833 54.8003 76.0924 54.9974 75.5105 54.9974ZM75.5105 51.8585C75.2182 51.8585 74.9728 51.964 74.7742 52.1721C74.5756 52.3803 74.4791 52.6384 74.4791 52.9437C74.4791 53.2489 74.5784 53.507 74.7742 53.7152C74.97 53.9233 75.2154 54.0288 75.5105 54.0288C75.8056 54.0288 76.0483 53.9233 76.2468 53.7152C76.4426 53.507 76.5419 53.2489 76.5419 52.9437C76.5419 52.6384 76.4426 52.3803 76.2468 52.1721C76.0483 51.964 75.8056 51.8585 75.5105 51.8585Z" fill="white"/>
<path d="M80.1404 54.9974C79.5586 54.9974 79.0677 54.8003 78.6678 54.4062C78.268 54.0122 78.0694 53.5265 78.0694 52.9548C78.0694 52.3831 78.2707 51.8946 78.6678 51.495C79.0677 51.0953 79.5586 50.8955 80.1404 50.8955C80.7223 50.8955 81.2132 51.0953 81.6131 51.495C82.0129 51.8946 82.2115 52.3831 82.2115 52.9548C82.2115 53.5265 82.0102 54.0122 81.6131 54.4062C81.2132 54.8003 80.7223 54.9974 80.1404 54.9974ZM80.1404 51.8585C79.8481 51.8585 79.6027 51.964 79.4041 52.1721C79.2056 52.3803 79.1091 52.6384 79.1091 52.9437C79.1091 53.2489 79.2083 53.507 79.4041 53.7152C79.5999 53.9233 79.8454 54.0288 80.1404 54.0288C80.4355 54.0288 80.6782 53.9233 80.8768 53.7152C81.0726 53.507 81.1718 53.2489 81.1718 52.9437C81.1718 52.6384 81.0726 52.3803 80.8768 52.1721C80.6782 51.964 80.4355 51.8585 80.1404 51.8585Z" fill="white"/>
<path d="M84.3956 54.8838H83.8827C83.5573 54.8838 83.3118 54.8033 83.1436 54.6396C82.9754 54.4759 82.8926 54.2372 82.8926 53.918V49.4193C82.8926 49.3721 82.9092 49.3305 82.9395 49.2972C82.9726 49.2639 83.0112 49.25 83.0609 49.25H83.7558C83.8027 49.25 83.8441 49.2667 83.8771 49.2972C83.9102 49.3305 83.924 49.3693 83.924 49.4193V53.7182C83.924 53.8153 83.9488 53.8903 84.0012 53.943C84.0509 53.9957 84.1226 54.0235 84.2136 54.0235H84.4452C84.4921 54.0235 84.5307 54.0374 84.5611 54.0651C84.5914 54.0929 84.6052 54.1289 84.6052 54.1789V54.6868C84.6052 54.7506 84.5859 54.8006 84.55 54.8366C84.5114 54.8727 84.4618 54.8894 84.3984 54.8894V54.8838H84.3956Z" fill="white"/>
<path d="M87.7463 52.3888L87.1313 54.7145C87.1203 54.7616 87.0955 54.8033 87.0541 54.8366C87.0127 54.8699 86.9714 54.8838 86.9217 54.8838H86.0255C85.9786 54.8838 85.9345 54.8699 85.8986 54.8393C85.86 54.8088 85.8352 54.7672 85.8186 54.7145L84.7073 51.237C84.6852 51.1676 84.688 51.1121 84.7155 51.0677C84.7431 51.0261 84.79 51.0039 84.8589 51.0039H85.6118C85.6642 51.0039 85.7083 51.0178 85.7387 51.0455C85.7718 51.0733 85.7938 51.1121 85.8104 51.1676L86.4888 53.646L87.1534 51.1676C87.1699 51.1149 87.1947 51.0733 87.2251 51.0455C87.2582 51.0178 87.2995 51.0039 87.3519 51.0039H88.1848C88.2372 51.0039 88.2813 51.0178 88.3171 51.0455C88.353 51.0733 88.3778 51.1121 88.3944 51.1676L89.059 53.646L89.7539 51.1676C89.7705 51.1149 89.7953 51.0733 89.8311 51.0455C89.867 51.0178 89.9083 51.0039 89.9552 51.0039H90.6281C90.697 51.0039 90.7439 51.0261 90.7715 51.0677C90.7991 51.1121 90.8018 51.1676 90.7798 51.237L89.6684 54.7145C89.6519 54.7672 89.6243 54.8088 89.5884 54.8393C89.5498 54.8699 89.5057 54.8838 89.4533 54.8838H88.5819C88.5295 54.8838 88.4826 54.8699 88.4412 54.8393C88.3999 54.8088 88.375 54.7672 88.364 54.7145L87.749 52.3888H87.7463Z" fill="white"/>
<path d="M93.113 54.9974C92.5312 54.9974 92.0403 54.8003 91.6404 54.4062C91.2405 54.0122 91.042 53.5265 91.042 52.9548C91.042 52.3831 91.2433 51.8946 91.6404 51.495C92.0403 51.0953 92.5312 50.8955 93.113 50.8955C93.6949 50.8955 94.1858 51.0953 94.5857 51.495C94.9855 51.8946 95.1841 52.3831 95.1841 52.9548C95.1841 53.5265 94.9828 54.0122 94.5857 54.4062C94.1858 54.8003 93.6949 54.9974 93.113 54.9974ZM93.113 51.8585C92.8207 51.8585 92.5753 51.964 92.3767 52.1721C92.1782 52.3803 92.0817 52.6384 92.0817 52.9437C92.0817 53.2489 92.1809 53.507 92.3767 53.7152C92.5725 53.9233 92.818 54.0288 93.113 54.0288C93.4081 54.0288 93.6508 53.9233 93.8494 53.7152C94.0452 53.507 94.1444 53.2489 94.1444 52.9437C94.1444 52.6384 94.0452 52.3803 93.8494 52.1721C93.6508 51.964 93.4081 51.8585 93.113 51.8585Z" fill="white"/>
<path d="M97.7978 50.957H97.9108C97.9688 50.957 98.0156 50.9737 98.046 51.0098C98.0791 51.0458 98.0928 51.093 98.0928 51.1596V51.8507C98.0928 51.9145 98.0735 51.9645 98.0377 52.0005C97.9991 52.0366 97.955 52.0533 97.9026 52.0533H97.7095C97.4365 52.0533 97.2352 52.131 97.1028 52.2836C96.9704 52.4363 96.9015 52.6722 96.9015 52.9885V54.7342C96.9015 54.7758 96.885 54.8147 96.8491 54.8424C96.8133 54.873 96.7747 54.8868 96.7333 54.8868H96.0301C95.9859 54.8868 95.9501 54.8702 95.917 54.8397C95.8839 54.8063 95.8701 54.7703 95.8701 54.7259V51.1763C95.8701 51.1291 95.8867 51.0875 95.917 51.0542C95.9501 51.0209 95.9859 51.007 96.0301 51.007H96.6947C96.736 51.007 96.7747 51.0236 96.8077 51.0542C96.8408 51.0875 96.8546 51.1208 96.8546 51.1596V51.5287C96.9622 51.3456 97.0945 51.2068 97.2573 51.1069C97.42 51.007 97.5992 50.957 97.7978 50.957Z" fill="white"/>
<path d="M100.878 53.8876C100.942 53.8515 101.003 53.8349 101.058 53.8404C101.113 53.846 101.157 53.8737 101.19 53.9209L101.43 54.315C101.463 54.3622 101.474 54.4093 101.471 54.4565C101.466 54.5009 101.444 54.5426 101.408 54.5814C101.287 54.7035 101.129 54.8007 100.939 54.8673C100.749 54.9339 100.542 54.9672 100.319 54.9672C99.9354 54.9672 99.6265 54.8589 99.3921 54.6425C99.1577 54.426 99.0391 54.1263 99.0391 53.746V51.8783H98.5124C98.471 51.8783 98.4324 51.8616 98.3993 51.8256C98.3662 51.7895 98.3524 51.7506 98.3524 51.709V51.1789C98.3524 51.1317 98.369 51.0901 98.3993 51.0568C98.4296 51.0235 98.4682 51.0096 98.5124 51.0096H99.0391V49.93C99.0391 49.8829 99.0556 49.8412 99.086 49.8079C99.1163 49.7746 99.1577 49.7607 99.2073 49.7607H99.9105C99.9519 49.7607 99.9905 49.7774 100.024 49.8079C100.057 49.8412 100.07 49.8801 100.07 49.93V51.0096H101.19C101.237 51.0096 101.278 51.0263 101.309 51.0568C101.339 51.0873 101.356 51.129 101.356 51.1789V51.709C101.356 51.7534 101.339 51.7895 101.303 51.8256C101.267 51.8616 101.229 51.8783 101.187 51.8783H100.068V53.5129C100.068 53.6739 100.109 53.796 100.189 53.882C100.269 53.9681 100.377 54.0097 100.509 54.0097C100.567 54.0097 100.63 53.9986 100.694 53.9764C100.757 53.9542 100.818 53.9264 100.878 53.8876Z" fill="white"/>
<path d="M104.932 54.7312V52.8551C104.932 52.5443 104.85 52.2973 104.684 52.1196C104.519 51.9392 104.29 51.8504 103.998 51.8504C103.705 51.8504 103.476 51.942 103.297 52.128C103.118 52.3139 103.03 52.5554 103.03 52.8551V54.7312C103.03 54.7728 103.013 54.8117 102.977 54.8394C102.941 54.8699 102.903 54.8838 102.861 54.8838H102.158C102.114 54.8838 102.078 54.8672 102.045 54.8366C102.012 54.8033 101.998 54.7673 101.998 54.7229V49.411C101.998 49.3693 102.015 49.3305 102.045 49.2972C102.078 49.2639 102.114 49.25 102.158 49.25H102.861C102.903 49.25 102.941 49.2639 102.977 49.2944C103.013 49.3249 103.03 49.361 103.03 49.4026V51.4619C103.156 51.2843 103.333 51.1455 103.556 51.0428C103.78 50.9401 104.031 50.8902 104.309 50.8902C104.806 50.8902 105.205 51.0456 105.509 51.3564C105.812 51.6673 105.964 52.0725 105.964 52.572V54.7284C105.964 54.77 105.947 54.8089 105.917 54.8366C105.884 54.8672 105.845 54.8811 105.796 54.8811H105.101C105.054 54.8811 105.012 54.8672 104.979 54.8366C104.946 54.8061 104.932 54.77 104.932 54.7284V54.7312Z" fill="white"/>
<path d="M106.684 52.1304C106.684 51.7723 106.835 51.4754 107.139 51.2423C107.442 51.0091 107.834 50.8926 108.314 50.8926C108.611 50.8926 108.893 50.937 109.157 51.0258C109.422 51.1146 109.637 51.2339 109.808 51.3838C109.861 51.4282 109.888 51.4754 109.888 51.5337C109.888 51.5919 109.863 51.6475 109.817 51.7057L109.56 52.011C109.513 52.0637 109.458 52.0943 109.4 52.0998C109.342 52.1054 109.276 52.0832 109.199 52.036C109.05 51.9278 108.895 51.8473 108.738 51.7918C108.581 51.7363 108.429 51.7085 108.286 51.7085C108.121 51.7085 107.983 51.7418 107.875 51.8084C107.765 51.875 107.712 51.9583 107.712 52.0526C107.712 52.147 107.751 52.2275 107.828 52.2858C107.905 52.3441 108.03 52.3912 108.201 52.4218L108.832 52.5439C109.221 52.6188 109.513 52.752 109.712 52.9463C109.908 53.1406 110.007 53.3903 110.007 53.7039C110.007 54.0786 109.847 54.3894 109.524 54.6337C109.202 54.8779 108.791 55 108.289 55C108.007 55 107.737 54.9611 107.486 54.8807C107.235 54.8002 107.009 54.6864 106.819 54.5421C106.687 54.4394 106.609 54.345 106.59 54.2534C106.571 54.1619 106.607 54.0786 106.698 54.0037L106.993 53.7622C107.051 53.715 107.108 53.6901 107.164 53.6928C107.219 53.6956 107.282 53.7261 107.351 53.7844C107.506 53.9176 107.666 54.0203 107.828 54.0869C107.991 54.1535 108.159 54.1868 108.336 54.1868C108.523 54.1868 108.672 54.1508 108.782 54.0786C108.895 54.0064 108.951 53.9149 108.951 53.8011C108.951 53.7039 108.907 53.629 108.824 53.5707C108.738 53.5152 108.576 53.4625 108.336 53.4125L107.721 53.2849C107.39 53.2155 107.133 53.0823 106.954 52.8825C106.772 52.6854 106.681 52.4356 106.681 52.1331H106.684V52.1304Z" fill="white"/>
</g>
<g clip-path="url(#clip1_222_8228)">
<path d="M37 37.1189V26.5229V24.7736C37 23.794 36.2289 23 35.2775 23H30.5V24.3325H31.4277C31.6641 24.3325 31.8591 24.5302 31.8591 24.7767C31.8591 25.0231 31.667 25.2208 31.4277 25.2208H30.5V26.5259H35.83V42.893H25.235V26.5229H30.5V25.2178H29.5723C29.3359 25.2178 29.1409 25.02 29.1409 24.7736C29.1409 24.5272 29.333 24.3294 29.5723 24.3294H30.5V23H25.7225C24.7711 23 24 23.794 24 24.7736V26.5229V42.89V45.2264C24 46.206 24.7711 47 25.7225 47H35.2775C36.2289 47 37 46.206 37 45.2264V42.89V37.1189ZM30.5 46.0052C30.0095 46.0052 29.6136 45.5975 29.6136 45.0925C29.6136 44.837 29.717 44.6058 29.8795 44.4415C30.0361 44.2742 30.2548 44.1677 30.5 44.1677C30.7452 44.1677 30.9639 44.2742 31.1205 44.4415C31.283 44.6058 31.3864 44.837 31.3864 45.0925C31.3864 45.5975 30.9905 46.0052 30.5 46.0052Z" fill="white"/>
<path d="M31.8266 33.5652C31.8059 33.5652 29.9505 33.8603 28.8839 35.3632C28.5293 35.8682 28.2989 36.4493 28.1955 37.1033H30.6389C32.5091 37.1033 34.0248 35.5761 34.0248 33.693V31.4479C34.0248 31.3383 33.9362 31.2471 33.8268 31.2471H30.5296C28.6682 31.2471 27.1614 32.759 27.1466 34.63V36.647L27.2146 36.7322C27.3918 35.9351 27.77 35.208 28.3314 34.627C29.2148 33.7113 30.4468 33.2032 31.803 33.2032C31.8975 33.2032 31.9743 33.2762 31.9802 33.3705C31.9862 33.4648 31.9212 33.547 31.8296 33.5622L31.8266 33.5652Z" fill="white"/>
</g>
<defs>
<clipPath id="clip0_222_8228">
<rect width="69" height="36.5449" fill="white" transform="translate(46.3994 20.7275)"/>
</clipPath>
<clipPath id="clip1_222_8228">
<rect width="13" height="24" fill="white" transform="translate(24 23)"/>
</clipPath>
</defs>
</svg>
