<svg width="20" height="20" viewBox="0 0 20 20" fill="none" xmlns="http://www.w3.org/2000/svg">
<path d="M18.2 0H1.79375C0.837497 0 0 0.875 0 1.875V13.125C0 14.125 0.837503 15 1.8 15H2.5V19.375C2.5 19.6437 2.675 19.8813 2.925 19.9688C2.9875 19.9875 3.05625 20 3.125 20C3.31875 20 3.50624 19.9125 3.62499 19.75L7.1875 15H18.2C19.1562 15 20 14.125 20 13.125V1.875C20 0.875 19.1625 0 18.2 0ZM18.75 13.125C18.75 13.4375 18.475 13.75 18.2 13.75H6.875C6.68125 13.75 6.49376 13.8438 6.37501 14L3.75 17.5V14.375C3.75 14.0312 3.46875 13.75 3.125 13.75H1.8C1.53125 13.75 1.25 13.4375 1.25 13.125V1.875C1.25 1.5625 1.525 1.25 1.8 1.25H18.2063C18.475 1.25 18.7563 1.5625 18.7563 1.875V13.125H18.75Z" fill="#3A474E"/>
<path d="M15.9375 5.625H4.0625C3.8875 5.625 3.75 5.7625 3.75 5.9375C3.75 6.1125 3.8875 6.25 4.0625 6.25H15.9375C16.1125 6.25 16.25 6.1125 16.25 5.9375C16.25 5.7625 16.1125 5.625 15.9375 5.625Z" fill="#3A474E"/>
<path d="M13.4375 8.75H4.0625C3.8875 8.75 3.75 8.8875 3.75 9.0625C3.75 9.2375 3.8875 9.375 4.0625 9.375H13.4375C13.6125 9.375 13.75 9.2375 13.75 9.0625C13.75 8.8875 13.6125 8.75 13.4375 8.75Z" fill="#3A474E"/>
</svg>
