<svg width="20" height="21" viewBox="0 0 20 21" fill="none" xmlns="http://www.w3.org/2000/svg">
<path d="M3.125 7.375H16.875C17.2188 7.375 17.5 7.09375 17.5 6.75C17.5 6.40625 17.2188 6.125 16.875 6.125H3.125C2.78125 6.125 2.5 6.40625 2.5 6.75C2.5 7.09375 2.78125 7.375 3.125 7.375Z" fill="#3A474E"/>
<path d="M16.875 9.875H3.125C2.78125 9.875 2.5 10.1562 2.5 10.5C2.5 10.8438 2.78125 11.125 3.125 11.125H16.875C17.2188 11.125 17.5 10.8438 17.5 10.5C17.5 10.1562 17.2188 9.875 16.875 9.875Z" fill="#3A474E"/>
<path d="M16.875 13.625H3.125C2.78125 13.625 2.5 13.9062 2.5 14.25C2.5 14.5938 2.78125 14.875 3.125 14.875H16.875C17.2188 14.875 17.5 14.5938 17.5 14.25C17.5 13.9062 17.2188 13.625 16.875 13.625Z" fill="#3A474E"/>
</svg>
