<svg width="94" height="49" viewBox="0 0 94 49" fill="none" xmlns="http://www.w3.org/2000/svg">
<g clip-path="url(#clip0_323_4355)">
<path d="M79.7453 49H0.475742C0.346992 48.997 0.224671 48.9437 0.135533 48.8517C0.0463953 48.7597 -0.0023049 48.6365 8.39085e-05 48.5091V14.7042C0.00262753 6.58553 6.38459 0 14.2597 0H93.5254C93.654 0.00297163 93.7762 0.0563263 93.8652 0.148357C93.9541 0.240387 94.0025 0.363577 93.9998 0.490894V34.3009C93.9998 42.4182 87.6153 49 79.7453 49Z" fill="#FD6400"/>
<path d="M30.9445 12.135C28.7624 12.135 27.2005 13.8028 27.2005 15.8897C27.2005 17.9766 28.7624 19.5865 30.9877 19.5865C31.6232 19.5954 32.253 19.4665 32.833 19.2089C33.3411 18.9753 33.7858 18.6254 34.1305 18.1881C34.1537 18.1595 34.1703 18.1263 34.1791 18.0907C34.1879 18.0551 34.1888 18.018 34.1816 17.982C34.1745 17.9461 34.1595 17.9121 34.1377 17.8825C34.116 17.8528 34.0879 17.8283 34.0556 17.8105L33.0096 17.1673C32.949 17.1277 32.875 17.1132 32.8037 17.1271C32.7323 17.141 32.6694 17.1821 32.6284 17.2416C32.4469 17.4555 32.2267 17.634 31.979 17.7677C31.6811 17.9147 31.3522 17.9893 31.0195 17.9855C30.5562 17.9956 30.1064 17.8311 29.761 17.5252C29.4156 17.2193 29.2004 16.7949 29.1589 16.3378H34.2322C34.5004 16.3378 34.5754 16.1905 34.5754 16.0143V15.6644C34.5703 13.7864 33.1431 12.135 30.9445 12.135ZM29.2059 15.1307C29.3953 14.2383 30.1032 13.6543 30.9597 13.6543C31.7705 13.6543 32.5216 14.1691 32.6983 15.1307H29.2059Z" fill="white"/>
<path d="M36.9849 19.3839C36.8936 19.3838 36.8048 19.3536 36.7328 19.298C36.6607 19.2423 36.6095 19.1645 36.5871 19.0767L34.3313 12.7971C34.2424 12.563 34.3746 12.344 34.6109 12.344H36.0419C36.2631 12.344 36.3508 12.4698 36.4105 12.636L38.0169 17.4706L39.4923 12.636C39.5071 12.5511 39.5528 12.4745 39.6207 12.4207C39.6886 12.3669 39.774 12.3396 39.8609 12.344H41.2588C41.4952 12.344 41.6287 12.563 41.555 12.7971L39.2979 19.0767C39.2789 19.1632 39.2308 19.2406 39.1615 19.2964C39.0923 19.3522 39.0059 19.383 38.9166 19.3839H36.9849Z" fill="white"/>
<path d="M44.9494 12.135C42.7699 12.135 41.2054 13.8028 41.2054 15.8897C41.2054 17.9766 42.7699 19.5865 44.9964 19.5865C45.6303 19.595 46.2584 19.4662 46.8367 19.2089C47.3458 18.977 47.7909 18.6268 48.1342 18.1881C48.1576 18.1598 48.1744 18.1269 48.1836 18.0915C48.1929 18.0561 48.1942 18.0192 48.1875 17.9833C48.1809 17.9473 48.1664 17.9133 48.1451 17.8834C48.1239 17.8536 48.0963 17.8287 48.0643 17.8105L47.0133 17.1673C46.9526 17.1277 46.8787 17.1132 46.8073 17.1271C46.736 17.141 46.6731 17.1821 46.6321 17.2416C46.4519 17.4563 46.2319 17.6349 45.9839 17.7677C45.6862 17.9149 45.3572 17.9896 45.0244 17.9855C44.5613 17.9964 44.1114 17.8321 43.7665 17.526C43.4215 17.2198 43.2073 16.7949 43.1677 16.3378H48.241C48.504 16.3378 48.579 16.1905 48.579 16.0143V15.6644C48.579 13.7864 47.1518 12.135 44.9494 12.135ZM43.2121 15.1307C43.4053 14.2383 44.1132 13.6543 44.9659 13.6543C45.3879 13.6488 45.7974 13.7956 46.118 14.0673C46.4386 14.339 46.6485 14.717 46.7083 15.1307H43.2121Z" fill="white"/>
<path d="M76.96 21.4873C76.893 21.4167 76.8544 21.3241 76.8516 21.2271C76.8487 21.1302 76.8819 21.0356 76.9448 20.9612L77.4023 20.3319C77.4348 20.2849 77.4771 20.2453 77.5263 20.2157C77.5754 20.1862 77.6304 20.1673 77.6875 20.1604C77.7446 20.1535 77.8025 20.1587 77.8574 20.1757C77.9123 20.1926 77.963 20.221 78.006 20.2588C78.2594 20.4676 78.5763 20.5859 78.9057 20.5949C79.3633 20.5949 79.7026 20.2878 79.8652 19.8498L80.0343 19.3803H79.3709C79.2853 19.3797 79.2024 19.3505 79.1355 19.2975C79.0686 19.2446 79.0217 19.1708 79.0023 19.0883L76.8495 12.7947C76.7897 12.5606 76.8342 12.3416 77.1583 12.3416H78.6833C78.86 12.3416 78.9629 12.4876 79.0074 12.6475L80.5566 17.6722L82.0156 12.6475C82.0326 12.5602 82.0802 12.4817 82.1499 12.4257C82.2197 12.3698 82.3071 12.34 82.3968 12.3416H83.8545C84.1201 12.3416 84.2078 12.5317 84.1201 12.7947L81.7372 20.1393C81.3242 21.398 80.4397 22.2136 79.0379 22.2136C78.1979 22.2136 77.4468 21.9367 76.96 21.4836V21.4873Z" fill="white"/>
<path d="M76.031 12.3414H74.7297C74.6503 12.3457 74.5757 12.3801 74.5215 12.4376C74.4672 12.4951 74.4376 12.5711 74.4387 12.6498V13.2024C74.0841 12.5907 73.2707 12.135 72.2667 12.135C70.3948 12.135 68.7007 13.5838 68.7007 15.8469C68.7007 18.1101 70.3948 19.5865 72.2591 19.5865C73.2618 19.5865 74.0726 19.1309 74.4425 18.5191V19.0881C74.4411 19.165 74.4706 19.2393 74.5244 19.2947C74.5782 19.3502 74.652 19.3822 74.7297 19.3839H76.031C76.1091 19.3835 76.1839 19.3527 76.2392 19.298C76.2944 19.2433 76.3256 19.1692 76.3259 19.0919V12.6498C76.3272 12.6103 76.3207 12.571 76.3065 12.534C76.2924 12.4971 76.271 12.4633 76.2436 12.4346C76.2161 12.4059 76.1832 12.3829 76.1467 12.3669C76.1103 12.3509 76.0709 12.3422 76.031 12.3414ZM72.5349 17.8457C71.4419 17.8457 70.6159 16.9571 70.6159 15.8595C70.6159 14.7619 71.4419 13.8884 72.5349 13.8884C73.6278 13.8884 74.4412 14.7695 74.4412 15.8595C74.4412 16.9495 73.624 17.8457 72.5349 17.8457Z" fill="white"/>
<path d="M67.909 9.69189H66.6076C66.5289 9.69632 66.4548 9.73004 66.4001 9.78629C66.3454 9.84254 66.3142 9.91718 66.3128 9.99524L66.2962 13.142C66.2121 13.008 66.1104 12.8857 65.9938 12.7782C65.4664 12.3241 64.786 12.0828 64.0875 12.1023C62.2396 12.1023 60.5481 13.57 60.5481 15.8255C60.5481 18.1 62.2396 19.5803 64.1192 19.5803C65.1258 19.5803 65.8985 19.1246 66.3102 18.5091V19.0818C66.3106 19.1592 66.3417 19.2332 66.3969 19.2879C66.4522 19.3426 66.527 19.3735 66.6051 19.3738H67.8912C67.9311 19.3755 67.9709 19.3692 68.0083 19.3554C68.0457 19.3415 68.0799 19.3203 68.1088 19.293C68.1378 19.2658 68.1609 19.233 68.1767 19.1967C68.1926 19.1604 68.201 19.1214 68.2013 19.0818V9.9965C68.2002 9.91862 68.1695 9.84402 68.1153 9.78757C68.0611 9.73111 67.9874 9.69695 67.909 9.69189ZM64.4014 17.8407C63.3033 17.8407 62.4773 16.9445 62.4773 15.8457C62.4773 14.7468 63.3033 13.867 64.4014 13.867C65.4994 13.867 66.3077 14.7481 66.3077 15.8457C66.3077 16.9433 65.4981 17.842 64.4014 17.842V17.8407Z" fill="white"/>
<path d="M54.1111 12.3416H52.5378C52.1119 12.3415 51.7033 12.5082 51.401 12.8053C51.0987 13.1024 50.9271 13.5057 50.9238 13.9275V12.6487C50.9252 12.6092 50.9186 12.5699 50.9044 12.5331C50.8903 12.4962 50.8689 12.4625 50.8414 12.4339C50.814 12.4053 50.781 12.3824 50.7446 12.3665C50.7081 12.3507 50.6688 12.3422 50.629 12.3416H49.3123C49.2725 12.342 49.2331 12.3504 49.1965 12.3662C49.16 12.382 49.127 12.4049 49.0995 12.4335C49.072 12.4621 49.0506 12.4959 49.0365 12.5329C49.0224 12.5698 49.016 12.6092 49.0175 12.6487V19.0895C49.0172 19.128 49.0245 19.1663 49.0392 19.202C49.0539 19.2377 49.0755 19.2702 49.1029 19.2976C49.1304 19.325 49.163 19.3467 49.1989 19.3615C49.2349 19.3764 49.2734 19.384 49.3123 19.384H50.6251C50.7033 19.384 50.7783 19.3532 50.8336 19.2985C50.8889 19.2437 50.92 19.1694 50.92 19.092V15.1044C50.9193 15.0948 50.9193 15.0851 50.92 15.0755C50.9807 14.6442 51.1773 14.2429 51.4817 13.9288C51.6976 13.7132 51.9552 13.5429 52.2391 13.4283C52.523 13.3137 52.8273 13.257 53.1338 13.2617C53.1549 13.2624 53.175 13.2708 53.1901 13.2853C53.2053 13.2999 53.2144 13.3194 53.2159 13.3403C53.2173 13.3611 53.2109 13.3817 53.1978 13.3981C53.1848 13.4145 53.1661 13.4255 53.1453 13.4291C53.1364 13.4291 52.2557 13.5688 51.7473 14.2737C51.5744 14.5161 51.4616 14.7956 51.4182 15.0893H52.5848C53.0128 15.089 53.4231 14.9204 53.7257 14.6207C54.0283 14.321 54.1985 13.9146 54.1988 13.4907V12.436C54.1992 12.4121 54.1903 12.389 54.174 12.3714C54.1577 12.3539 54.1352 12.3432 54.1111 12.3416Z" fill="white"/>
<path d="M58.5465 21.175C58.2685 21.6717 57.8635 22.0871 57.3722 22.3796C57.3863 22.5988 57.4645 22.8091 57.5971 22.9851C57.7297 23.1611 57.9111 23.2951 58.1193 23.3708C58.3274 23.4465 58.5532 23.4607 58.7693 23.4116C58.9854 23.3625 59.1825 23.2522 59.3365 23.0943C59.4905 22.9363 59.5948 22.7374 59.6368 22.5218C59.6787 22.3061 59.6565 22.0831 59.5728 21.8797C59.4891 21.6764 59.3475 21.5015 59.1653 21.3764C58.9831 21.2513 58.7681 21.1814 58.5465 21.175Z" fill="white"/>
<path d="M27.8423 35.747V35.1857C27.8423 34.3134 28.4841 33.937 29.1131 33.937C29.4733 33.9357 29.8233 34.0555 30.1057 34.2769C30.1389 34.3097 30.1587 34.3535 30.1615 34.3999C30.1643 34.4463 30.1499 34.4921 30.1209 34.5286L29.8363 34.9125C29.7549 35.0384 29.6278 34.9792 29.5529 34.9276C29.4504 34.8545 29.3283 34.8134 29.2021 34.8093C28.9937 34.8093 28.7992 34.9566 28.7992 35.2675V35.747H29.5084C29.5499 35.7474 29.5897 35.764 29.619 35.7932C29.6483 35.8224 29.6647 35.8619 29.6647 35.9031V36.3902C29.6634 36.4309 29.6465 36.4695 29.6175 36.4983C29.5885 36.5271 29.5494 36.5438 29.5084 36.5451H28.7992V39.1543C28.7996 39.1942 28.7843 39.2327 28.7565 39.2616C28.7288 39.2905 28.6908 39.3075 28.6505 39.3092H27.9935C27.9525 39.3076 27.9137 39.2908 27.8847 39.2621C27.8557 39.2334 27.8388 39.1949 27.8372 39.1543V36.5438H27.3517C27.311 36.5425 27.2724 36.5257 27.244 36.4968C27.2156 36.4679 27.1995 36.4293 27.1992 36.389V35.9019C27.1987 35.8813 27.2024 35.8609 27.21 35.8418C27.2177 35.8227 27.2292 35.8054 27.2438 35.7908C27.2584 35.7762 27.2758 35.7647 27.295 35.757C27.3142 35.7492 27.3348 35.7454 27.3555 35.7458L27.8423 35.747Z" fill="white"/>
<path d="M31.909 35.7018C31.9332 35.7007 31.9573 35.7049 31.9797 35.714C32.0021 35.7231 32.0222 35.737 32.0385 35.7546C32.0549 35.7723 32.0671 35.7933 32.0744 35.8161C32.0817 35.839 32.0838 35.8631 32.0806 35.8869V36.5225C32.082 36.5465 32.0784 36.5706 32.07 36.5932C32.0616 36.6157 32.0485 36.6364 32.0317 36.6537C32.0149 36.6711 31.9947 36.6848 31.9722 36.6941C31.9498 36.7033 31.9257 36.7079 31.9014 36.7075H31.7222C31.2444 36.7075 30.9686 36.9505 30.9686 37.5647V39.1683C30.9651 39.207 30.9468 39.243 30.9176 39.2689C30.8883 39.2948 30.8503 39.3088 30.811 39.308H30.1552C30.1356 39.3082 30.1161 39.3045 30.0979 39.2972C30.0798 39.2898 30.0632 39.279 30.0493 39.2653C30.0353 39.2516 30.0243 39.2354 30.0167 39.2174C30.0092 39.1995 30.0053 39.1802 30.0053 39.1608V35.902C30.0046 35.8819 30.008 35.862 30.0152 35.8432C30.0224 35.8245 30.0333 35.8073 30.0472 35.7928C30.0612 35.7783 30.0779 35.7666 30.0965 35.7586C30.115 35.7505 30.135 35.7462 30.1552 35.7459H30.7742C30.8124 35.7467 30.8489 35.7616 30.8766 35.7877C30.9044 35.8138 30.9213 35.8491 30.9241 35.8869V36.2267C31.0095 36.069 31.1363 35.9371 31.2911 35.8447C31.4458 35.7523 31.6229 35.703 31.8036 35.7018H31.909Z" fill="white"/>
<path d="M34.0874 35.6428C34.4632 35.648 34.8291 35.7631 35.1391 35.9737C35.449 36.1843 35.6892 36.481 35.8294 36.8264C35.9696 37.1718 36.0036 37.5506 35.927 37.9151C35.8505 38.2796 35.6669 38.6135 35.3992 38.8749C35.1316 39.1363 34.7919 39.3136 34.4229 39.3843C34.0538 39.455 33.6719 39.4161 33.3251 39.2725C32.9783 39.1288 32.6822 38.8869 32.4739 38.577C32.2656 38.2671 32.1544 37.9031 32.1544 37.5308C32.1543 37.2806 32.2045 37.0329 32.302 36.8021C32.3994 36.5713 32.5423 36.362 32.7221 36.1863C32.902 36.0107 33.1153 35.8721 33.3496 35.7788C33.584 35.6855 33.8348 35.6393 34.0874 35.6428ZM34.0874 38.5252C34.2883 38.534 34.4874 38.483 34.6588 38.3788C34.8303 38.2746 34.9664 38.122 35.0495 37.9405C35.1327 37.7591 35.1591 37.5572 35.1254 37.3607C35.0917 37.1643 34.9994 36.9823 34.8603 36.8383C34.7213 36.6943 34.542 36.5947 34.3454 36.5525C34.1488 36.5103 33.9439 36.5273 33.7571 36.6014C33.5704 36.6755 33.4103 36.8032 33.2975 36.9682C33.1846 37.1332 33.1242 37.3278 33.124 37.527C33.1191 37.6557 33.1403 37.7841 33.1864 37.9045C33.2325 38.0249 33.3026 38.1349 33.3924 38.228C33.4822 38.3211 33.5901 38.3954 33.7094 38.4465C33.8288 38.4975 33.9573 38.5243 34.0874 38.5252Z" fill="white"/>
<path d="M37.4373 39.1683C37.4338 39.207 37.4156 39.2429 37.3863 39.2689C37.3571 39.2948 37.319 39.3088 37.2798 39.308H36.624C36.6044 39.3082 36.5849 39.3045 36.5667 39.2971C36.5485 39.2898 36.532 39.279 36.518 39.2653C36.5041 39.2516 36.493 39.2353 36.4855 39.2174C36.4779 39.1994 36.474 39.1802 36.474 39.1607V35.9019C36.4733 35.8819 36.4767 35.8619 36.4839 35.8432C36.4911 35.8244 36.502 35.8073 36.516 35.7928C36.5299 35.7782 36.5467 35.7666 36.5652 35.7586C36.5838 35.7505 36.6037 35.7462 36.624 35.7459H37.2798C37.3188 35.7465 37.3563 35.7611 37.3853 35.7871C37.4142 35.813 37.4327 35.8484 37.4373 35.8868V36.1675C37.5698 36 37.7398 35.8654 37.9339 35.7742C38.128 35.6831 38.3409 35.6381 38.5557 35.6426C39.0933 35.6426 39.5038 35.8944 39.7058 36.272C39.8512 36.0739 40.0426 35.9133 40.2638 35.8038C40.4849 35.6943 40.7295 35.639 40.9767 35.6426C42.0277 35.6426 42.5132 36.3815 42.5132 37.1531V39.167C42.5109 39.206 42.4932 39.2425 42.464 39.2686C42.4347 39.2948 42.3962 39.3085 42.3569 39.3067H41.7125C41.6732 39.3085 41.6347 39.2948 41.6055 39.2686C41.5762 39.2425 41.5585 39.206 41.5562 39.167V37.3834C41.5562 36.9026 41.3097 36.5263 40.7874 36.5263C40.265 36.5263 39.9816 36.9039 39.9816 37.3834V39.172C39.9781 39.2108 39.9599 39.2467 39.9306 39.2727C39.9014 39.2986 39.8633 39.3126 39.824 39.3118H39.1759C39.1366 39.3126 39.0986 39.2986 39.0693 39.2727C39.0401 39.2467 39.0218 39.2108 39.0183 39.172V37.3834C39.0183 36.9026 38.773 36.5263 38.2558 36.5263C37.7385 36.5263 37.4424 36.9039 37.4424 37.3834L37.4373 39.1683Z" fill="white"/>
<path d="M48.0809 35.6211L47.1404 39.153C47.1279 39.1968 47.1015 39.2355 47.0652 39.2634C47.0288 39.2913 46.9843 39.3068 46.9384 39.3078H45.8568C45.8106 39.3079 45.7656 39.2927 45.7291 39.2647C45.6925 39.2366 45.6663 39.1973 45.6548 39.153L44.3941 34.3699C44.3572 34.2151 44.4462 34.1333 44.558 34.1333H45.3345C45.3753 34.138 45.4134 34.1558 45.443 34.184C45.4726 34.2122 45.4921 34.2492 45.4985 34.2894L46.4313 38.1246L47.448 34.2743C47.4525 34.2333 47.4729 34.1957 47.5049 34.1694C47.5369 34.143 47.5781 34.1301 47.6195 34.1333H48.5091C48.5491 34.136 48.5871 34.151 48.6179 34.1763C48.6487 34.2016 48.6707 34.2359 48.6807 34.2743L49.6974 38.0957L50.6302 34.2894C50.6347 34.2482 50.6537 34.2099 50.684 34.1813C50.7142 34.1528 50.7537 34.1357 50.7954 34.1333H51.5262C51.6457 34.1333 51.7283 34.1924 51.6825 34.3699L50.4294 39.153C50.4135 39.1948 50.3862 39.2314 50.3505 39.2587C50.3148 39.286 50.2722 39.303 50.2274 39.3078H49.198C49.1518 39.308 49.1069 39.2929 49.0705 39.2648C49.0341 39.2367 49.0083 39.1974 48.9972 39.153L48.0809 35.6211Z" fill="white"/>
<path d="M53.252 35.6427C53.6279 35.6477 53.994 35.7626 54.3041 35.9731C54.6142 36.1836 54.8546 36.4801 54.995 36.8255C55.1354 37.1709 55.1695 37.5498 55.0931 37.9143C55.0167 38.2789 54.8332 38.613 54.5656 38.8745C54.298 39.136 53.9583 39.3134 53.5893 39.3842C53.2202 39.455 52.8382 39.4162 52.4914 39.2726C52.1445 39.129 51.8483 38.887 51.6399 38.5771C51.4315 38.2672 51.3203 37.9031 51.3203 37.5308C51.3203 37.2807 51.3704 37.0331 51.4678 36.8024C51.5652 36.5717 51.7079 36.3624 51.8876 36.1868C52.0673 36.0111 52.2805 35.8726 52.5147 35.7792C52.7489 35.6858 52.9996 35.6394 53.252 35.6427ZM53.252 38.5252C53.4531 38.5342 53.6522 38.4835 53.8238 38.3794C53.9955 38.2754 54.1317 38.1228 54.2151 37.9414C54.2984 37.76 54.325 37.5581 54.2915 37.3616C54.2579 37.165 54.1657 36.983 54.0268 36.8388C53.8878 36.6947 53.7085 36.595 53.5118 36.5527C53.3152 36.5103 53.1103 36.5273 52.9234 36.6013C52.7366 36.6753 52.5764 36.8031 52.4635 36.9681C52.3506 37.133 52.2902 37.3277 52.29 37.527C52.285 37.6556 52.3062 37.7839 52.3522 37.9042C52.3983 38.0245 52.4682 38.1345 52.5579 38.2276C52.6476 38.3206 52.7553 38.3949 52.8745 38.4461C52.9937 38.4972 53.1221 38.5241 53.252 38.5252Z" fill="white"/>
<path d="M57.3798 35.6428C57.7557 35.648 58.1216 35.7631 58.4315 35.9737C58.7415 36.1843 58.9817 36.481 59.1219 36.8264C59.2621 37.1718 59.296 37.5506 59.2195 37.9151C59.143 38.2796 58.9593 38.6135 58.6917 38.8749C58.4241 39.1363 58.0844 39.3136 57.7153 39.3843C57.3463 39.455 56.9644 39.4161 56.6176 39.2725C56.2708 39.1288 55.9747 38.8869 55.7663 38.577C55.558 38.2671 55.4469 37.9031 55.4468 37.5308C55.4468 37.2806 55.497 37.0329 55.5945 36.8021C55.6919 36.5713 55.8347 36.362 56.0146 36.1863C56.1944 36.0107 56.4077 35.8721 56.6421 35.7788C56.8765 35.6855 57.1272 35.6393 57.3798 35.6428ZM57.3798 38.5252C57.5808 38.534 57.7799 38.483 57.9513 38.3788C58.1228 38.2746 58.2589 38.122 58.342 37.9405C58.4252 37.7591 58.4516 37.5572 58.4179 37.3607C58.3841 37.1643 58.2918 36.9823 58.1528 36.8383C58.0138 36.6943 57.8345 36.5947 57.6379 36.5525C57.4412 36.5103 57.2364 36.5273 57.0496 36.6014C56.8629 36.6755 56.7028 36.8032 56.5899 36.9682C56.4771 37.1332 56.4167 37.3278 56.4165 37.527C56.4116 37.6557 56.4328 37.7841 56.4789 37.9045C56.525 38.0249 56.595 38.1349 56.6849 38.228C56.7747 38.3211 56.8825 38.3954 57.0019 38.4465C57.1213 38.4975 57.2498 38.5243 57.3798 38.5252Z" fill="white"/>
<path d="M59.7589 38.4219V34.2908C59.7592 34.2496 59.7759 34.21 59.8054 34.1808C59.8349 34.1516 59.8747 34.1351 59.9164 34.1348H60.5646C60.6063 34.1351 60.6462 34.1516 60.6756 34.1808C60.7051 34.21 60.7218 34.2496 60.7222 34.2908V38.2369C60.7178 38.2735 60.7216 38.3106 60.7333 38.3456C60.7451 38.3805 60.7644 38.4126 60.79 38.4393C60.8155 38.4661 60.8467 38.487 60.8814 38.5005C60.916 38.514 60.9532 38.5198 60.9903 38.5176H61.2064C61.226 38.5153 61.2458 38.5174 61.2645 38.5235C61.2832 38.5297 61.3003 38.5399 61.3146 38.5533C61.3289 38.5668 61.3401 38.5832 61.3473 38.6013C61.3545 38.6195 61.3576 38.639 61.3563 38.6585V39.1243C61.358 39.1496 61.354 39.1749 61.3447 39.1986C61.3354 39.2222 61.3209 39.2435 61.3024 39.2611C61.2839 39.2786 61.2617 39.2919 61.2374 39.3C61.2131 39.3081 61.1873 39.3108 61.1619 39.308H60.684C60.0422 39.308 59.7589 38.9606 59.7589 38.4219Z" fill="white"/>
<path d="M63.3338 39.3079H62.4976C62.4526 39.3066 62.4093 39.2907 62.3742 39.2628C62.3391 39.2348 62.3142 39.1964 62.3031 39.1531L61.2661 35.9611C61.2216 35.8276 61.289 35.7458 61.4084 35.7458H62.11C62.1539 35.7437 62.1971 35.7577 62.2313 35.7851C62.2655 35.8124 62.2884 35.8513 62.2955 35.8943L62.9309 38.1701L63.546 35.8943C63.553 35.8504 63.5765 35.8107 63.6119 35.7834C63.6473 35.756 63.6919 35.743 63.7367 35.7471H64.5119C64.5571 35.7438 64.6019 35.7572 64.6377 35.7846C64.6736 35.812 64.698 35.8515 64.7063 35.8956L65.3253 38.1701L65.9747 35.8943C65.9835 35.8519 66.007 35.8139 66.0411 35.7868C66.0752 35.7597 66.1178 35.7452 66.1615 35.7458H66.788C66.9075 35.7458 66.9748 35.8276 66.9304 35.9611L65.8921 39.1531C65.881 39.1975 65.8551 39.2369 65.8187 39.2649C65.7823 39.293 65.7374 39.3082 65.6913 39.3079H64.8779C64.8314 39.3091 64.7859 39.2944 64.749 39.2662C64.7122 39.238 64.6864 39.198 64.6758 39.1531L64.1014 37.0133L63.527 39.1531C63.5176 39.197 63.4933 39.2363 63.4581 39.2645C63.423 39.2927 63.3791 39.308 63.3338 39.3079Z" fill="white"/>
<path d="M68.9218 35.6428C69.2977 35.648 69.6636 35.7631 69.9735 35.9737C70.2835 36.1843 70.5237 36.481 70.6639 36.8264C70.8041 37.1718 70.838 37.5506 70.7615 37.9151C70.6849 38.2796 70.5013 38.6135 70.2337 38.8749C69.9661 39.1363 69.6264 39.3136 69.2573 39.3843C68.8883 39.455 68.5064 39.4161 68.1596 39.2725C67.8128 39.1288 67.5167 38.8869 67.3083 38.577C67.1 38.2671 66.9889 37.9031 66.9888 37.5308C66.9888 37.2806 67.039 37.0329 67.1364 36.8021C67.2339 36.5713 67.3767 36.362 67.5566 36.1863C67.7364 36.0107 67.9497 35.8721 68.1841 35.7788C68.4185 35.6855 68.6692 35.6393 68.9218 35.6428ZM68.9218 38.5252C69.1228 38.534 69.3218 38.483 69.4933 38.3788C69.6648 38.2746 69.8009 38.122 69.884 37.9405C69.9671 37.7591 69.9936 37.5572 69.9598 37.3607C69.9261 37.1643 69.8338 36.9823 69.6948 36.8383C69.5558 36.6943 69.3765 36.5947 69.1798 36.5525C68.9832 36.5103 68.7784 36.5273 68.5916 36.6014C68.4049 36.6755 68.2448 36.8032 68.1319 36.9682C68.0191 37.1332 67.9587 37.3278 67.9585 37.527C67.9536 37.6557 67.9748 37.7841 68.0209 37.9045C68.067 38.0249 68.137 38.1349 68.2269 38.228C68.3167 38.3211 68.4245 38.3954 68.5439 38.4465C68.6633 38.4975 68.7918 38.5243 68.9218 38.5252Z" fill="white"/>
<path d="M73.211 35.7017C73.2353 35.7003 73.2595 35.7043 73.282 35.7133C73.3045 35.7224 73.3246 35.7363 73.3411 35.754C73.3575 35.7717 73.3697 35.7927 73.3769 35.8157C73.3841 35.8387 73.386 35.8629 73.3826 35.8867V36.5223C73.384 36.5464 73.3804 36.5704 73.372 36.593C73.3636 36.6156 73.3506 36.6362 73.3337 36.6535C73.3169 36.6709 73.2967 36.6847 73.2742 36.6939C73.2518 36.7032 73.2277 36.7078 73.2034 36.7074H73.0255C72.5477 36.7074 72.2719 36.9503 72.2719 37.5646V39.1681C72.2683 39.2069 72.2501 39.2428 72.2209 39.2687C72.1916 39.2947 72.1535 39.3087 72.1143 39.3079H71.4585C71.4389 39.308 71.4194 39.3043 71.4012 39.297C71.383 39.2897 71.3665 39.2789 71.3526 39.2652C71.3386 39.2515 71.3275 39.2352 71.32 39.2172C71.3124 39.1993 71.3086 39.18 71.3086 39.1606V35.9018C71.3079 35.8818 71.3112 35.8618 71.3184 35.843C71.3256 35.8243 71.3365 35.8072 71.3505 35.7926C71.3645 35.7781 71.3812 35.7665 71.3997 35.7584C71.4183 35.7504 71.4383 35.7461 71.4585 35.7457H72.0774C72.1155 35.7466 72.1519 35.7615 72.1794 35.7876C72.2069 35.8137 72.2236 35.8491 72.2261 35.8867V36.2266C72.312 36.0689 72.439 35.9371 72.5939 35.8447C72.7489 35.7524 72.926 35.703 73.1068 35.7017H73.211Z" fill="white"/>
<path d="M76.5877 38.783C76.6157 38.819 76.6289 38.8641 76.6249 38.9093C76.6209 38.9545 76.5999 38.9966 76.5661 39.0272C76.2865 39.2716 75.922 39.3988 75.5494 39.3822C74.9534 39.3822 74.3561 39.0574 74.3561 38.2594V36.5438H73.863C73.8225 36.5425 73.7842 36.5256 73.7562 36.4966C73.7282 36.4677 73.7127 36.4291 73.713 36.389V35.9019C73.7122 35.8819 73.7154 35.8619 73.7224 35.8432C73.7295 35.8245 73.7403 35.8073 73.7541 35.7928C73.768 35.7782 73.7846 35.7666 73.8031 35.7585C73.8216 35.7504 73.8415 35.7461 73.8617 35.7458H74.3548V34.7564C74.3543 34.7359 74.358 34.7155 74.3656 34.6964C74.3733 34.6773 74.3848 34.66 74.3994 34.6454C74.414 34.6308 74.4314 34.6193 74.4506 34.6116C74.4698 34.6038 74.4904 34.6 74.5111 34.6004H75.1682C75.1884 34.6007 75.2083 34.605 75.2268 34.6131C75.2452 34.6211 75.2619 34.6328 75.2758 34.6473C75.2896 34.6619 75.3004 34.679 75.3075 34.6978C75.3145 34.7165 75.3177 34.7365 75.3169 34.7564V35.747H76.3615C76.4032 35.7474 76.4431 35.7639 76.4726 35.7931C76.5021 35.8223 76.5188 35.8618 76.5191 35.9031V36.3902C76.5175 36.431 76.5004 36.4697 76.4711 36.4984C76.4419 36.5271 76.4027 36.5438 76.3615 36.5451H75.3169V38.0454C75.3169 38.4079 75.5558 38.5036 75.7274 38.5036C75.85 38.4995 75.969 38.4611 76.0705 38.3928C76.1823 38.3261 76.2942 38.3261 76.3615 38.423L76.5877 38.783Z" fill="white"/>
<path d="M79.6696 37.4464C79.6696 36.8851 79.3493 36.5226 78.7965 36.5226C78.2437 36.5226 77.8942 36.9002 77.8942 37.4464V39.1683C77.8906 39.2071 77.8724 39.243 77.8432 39.2689C77.8139 39.2949 77.7758 39.3089 77.7366 39.3081H77.0808C77.0612 39.3082 77.0417 39.3045 77.0235 39.2972C77.0053 39.2899 76.9888 39.2791 76.9748 39.2654C76.9609 39.2517 76.9498 39.2354 76.9423 39.2174C76.9347 39.1995 76.9308 39.1802 76.9308 39.1608V34.2833C76.9308 34.2439 76.9466 34.2062 76.9748 34.1783C77.0029 34.1504 77.041 34.1348 77.0808 34.1348H77.7366C77.776 34.134 77.8143 34.1482 77.8436 34.1744C77.8728 34.2006 77.8909 34.2368 77.8942 34.2758V36.1638C78.1026 35.8756 78.5131 35.6389 79.0875 35.6389C80.0432 35.6389 80.6316 36.3048 80.6316 37.1834V39.1646C80.6293 39.2035 80.6116 39.24 80.5824 39.2662C80.5531 39.2923 80.5147 39.306 80.4753 39.3043H79.8259C79.7865 39.306 79.7481 39.2923 79.7188 39.2662C79.6896 39.24 79.6719 39.2035 79.6696 39.1646V37.4464Z" fill="white"/>
<path d="M84.0261 36.0931C84.0486 36.1105 84.067 36.1326 84.0799 36.1579C84.0928 36.1831 84.0998 36.2109 84.1006 36.2392C84.1013 36.2675 84.0957 36.2956 84.0841 36.3215C84.0726 36.3474 84.0553 36.3704 84.0337 36.3889L83.7948 36.6696C83.7058 36.7728 83.594 36.7728 83.4593 36.6922C83.2133 36.5084 82.9169 36.4026 82.6091 36.3889C82.2812 36.3889 82.0715 36.5374 82.0715 36.7073C82.0715 36.8773 82.1986 36.988 82.5265 37.0472L83.1161 37.158C83.7516 37.2763 84.2129 37.5784 84.2129 38.2216C84.2129 38.9088 83.5571 39.4123 82.6091 39.4123C82.1173 39.424 81.6353 39.2759 81.2365 38.9906C80.9595 38.7829 80.9747 38.613 81.1234 38.4947L81.4005 38.2732C81.4237 38.2522 81.451 38.2361 81.4806 38.2258C81.5103 38.2155 81.5418 38.2113 81.5731 38.2134C81.6045 38.2156 81.6351 38.224 81.6631 38.2381C81.6911 38.2523 81.7159 38.2719 81.736 38.2958C81.9847 38.528 82.3118 38.66 82.6535 38.6659C83.0348 38.6659 83.228 38.4947 83.228 38.3109C83.228 38.1032 83.0272 38.0302 82.6535 37.956L82.0791 37.8376C81.4971 37.7193 81.1094 37.3568 81.1094 36.7803C81.1094 36.1371 81.7055 35.6475 82.6345 35.6475C83.1367 35.6303 83.6291 35.788 84.0261 36.0931Z" fill="white"/>
<path d="M21.4524 12.3352H13.5336C12.5368 12.3355 11.5809 12.728 10.8762 13.4262C10.1715 14.1244 9.77561 15.0712 9.77561 16.0584V18.314C9.81374 18.2738 9.84805 18.231 9.88745 18.1882C11.5192 16.5254 13.7954 15.6078 16.3015 15.6078C16.3848 15.608 16.4649 15.6392 16.5259 15.6953C16.5869 15.7514 16.6243 15.8283 16.6305 15.9105C16.6368 15.9927 16.6115 16.0742 16.5597 16.1388C16.5079 16.2033 16.4334 16.2461 16.3511 16.2586C16.3142 16.2586 12.8842 16.796 10.9169 19.5312C10.3692 20.3027 9.98057 21.1735 9.77307 22.0939V31.3278C9.77307 31.3611 9.78646 31.3932 9.81029 31.4168C9.83413 31.4404 9.86645 31.4536 9.90016 31.4536H17.8189C18.816 31.4536 19.7721 31.0614 20.4771 30.3631C21.1821 29.6649 21.5782 28.7179 21.5782 27.7304V12.4611C21.5782 12.4279 21.565 12.3961 21.5414 12.3725C21.5178 12.3489 21.4858 12.3355 21.4524 12.3352Z" fill="white"/>
<path d="M29.4271 30.9513C29.4203 31.0282 29.3845 31.0998 29.3268 31.1516C29.269 31.2034 29.1936 31.2317 29.1157 31.2308H27.8131C27.7346 31.2304 27.6595 31.1994 27.6041 31.1445C27.5486 31.0896 27.5173 31.0152 27.517 30.9375V24.4728C27.5156 24.4332 27.5222 24.3937 27.5364 24.3567C27.5506 24.3197 27.5722 24.2858 27.5997 24.2571C27.6273 24.2284 27.6604 24.2054 27.697 24.1895C27.7336 24.1736 27.7731 24.1651 27.8131 24.1644H29.1157C29.1928 24.1657 29.2668 24.1946 29.324 24.2457C29.3813 24.2969 29.4179 24.3668 29.4271 24.4426V25.0002C29.8414 24.4136 30.6852 23.9593 31.6473 23.9593C32.7123 23.9593 33.5269 24.4627 33.9259 25.2054C34.2158 24.8115 34.5972 24.4926 35.0379 24.2757C35.4786 24.0588 35.9655 23.9503 36.4575 23.9593C38.5443 23.9593 39.5076 25.4256 39.5076 26.9499V30.9513C39.5033 31.0292 39.4682 31.1021 39.4099 31.1545C39.3516 31.2068 39.2748 31.2342 39.1962 31.2308H37.9076C37.8291 31.2342 37.7525 31.2067 37.6944 31.1544C37.6363 31.102 37.6014 31.029 37.5975 30.9513V27.4043C37.5975 26.4515 37.1082 25.7038 36.0724 25.7038C35.0367 25.7038 34.4737 26.4515 34.4737 27.4043V30.9513C34.4673 31.0281 34.4317 31.0996 34.3742 31.1515C34.3166 31.2033 34.2414 31.2317 34.1636 31.2308H32.8749C32.7972 31.2317 32.7219 31.2033 32.6644 31.1515C32.6068 31.0996 32.5713 31.0281 32.5648 30.9513V27.4043C32.5648 26.4515 32.0756 25.7038 31.0398 25.7038C30.004 25.7038 29.4271 26.4515 29.4271 27.4043V30.9513Z" fill="white"/>
<path d="M44.281 23.9592C46.4122 23.9592 48.1139 25.5955 48.1139 27.7114C48.1139 29.8273 46.4122 31.4359 44.281 31.4359C42.1497 31.4359 40.4468 29.8084 40.4468 27.7114C40.4468 25.6144 42.1497 23.9592 44.281 23.9592ZM44.281 29.6762C45.3765 29.6762 46.1873 28.7952 46.1873 27.6976C46.1873 26.6 45.3739 25.7189 44.281 25.7189C43.188 25.7189 42.3747 26.6 42.3747 27.6976C42.3747 28.7952 43.1855 29.6762 44.281 29.6762Z" fill="white"/>
<path d="M53.0627 31.436C52.0561 31.436 51.2834 30.9816 50.8717 30.3661V30.9376C50.8713 31.0153 50.84 31.0897 50.7846 31.1446C50.7291 31.1995 50.654 31.2305 50.5756 31.2309H49.2882C49.2482 31.2322 49.2083 31.2257 49.171 31.2116C49.1336 31.1975 49.0994 31.1762 49.0704 31.1489C49.0414 31.1216 49.0182 31.0889 49.0021 31.0526C48.9861 31.0163 48.9775 30.9772 48.9768 30.9376V21.262C48.9775 21.2223 48.9861 21.1833 49.0021 21.147C49.0182 21.1107 49.0414 21.078 49.0704 21.0507C49.0994 21.0234 49.1336 21.002 49.171 20.988C49.2083 20.9739 49.2482 20.9673 49.2882 20.9687H50.5756C50.6557 20.9683 50.7328 20.9986 50.7908 21.0532C50.8489 21.1079 50.8833 21.1827 50.8869 21.262V25.0003C51.2415 24.4137 52.0701 23.9594 53.0919 23.9594C54.9423 23.9594 56.6287 25.4257 56.6287 27.6826C56.6287 29.9394 54.9423 31.436 53.0627 31.436ZM52.7805 25.719C51.685 25.719 50.8742 26.6001 50.8742 27.6977C50.8742 28.7953 51.6876 29.6915 52.7805 29.6915C53.8735 29.6915 54.7059 28.7965 54.7059 27.6977C54.7059 26.5988 53.876 25.719 52.7805 25.719Z" fill="white"/>
<path d="M57.8577 31.2308C57.7753 31.2301 57.6965 31.1974 57.6382 31.1397C57.58 31.082 57.547 31.004 57.5463 30.9224V24.4728C57.5453 24.432 57.5526 24.3914 57.5679 24.3536C57.5832 24.3157 57.606 24.2813 57.6352 24.2524C57.6643 24.2236 57.699 24.2009 57.7373 24.1858C57.7755 24.1706 57.8165 24.1634 57.8577 24.1644H59.1451C59.1862 24.1634 59.2272 24.1706 59.2654 24.1858C59.3037 24.2009 59.3384 24.2236 59.3675 24.2524C59.3967 24.2813 59.4196 24.3157 59.4348 24.3536C59.4501 24.3914 59.4575 24.432 59.4564 24.4728V30.9224C59.4558 31.004 59.4227 31.082 59.3645 31.1397C59.3062 31.1974 59.2274 31.2301 59.1451 31.2308H57.8577Z" fill="white"/>
<path d="M60.6345 29.4687V21.272C60.6352 21.1904 60.6682 21.1124 60.7264 21.0547C60.7847 20.997 60.8635 20.9643 60.9459 20.9636H62.2333C62.3155 20.9643 62.3942 20.997 62.4523 21.0548C62.5103 21.1125 62.543 21.1905 62.5434 21.272V29.0999C62.5434 29.4372 62.7213 29.6575 63.0771 29.6575H63.5067C63.5453 29.6532 63.5843 29.6573 63.6211 29.6695C63.6579 29.6818 63.6915 29.7019 63.7197 29.7284C63.7478 29.7549 63.7697 29.7872 63.7838 29.823C63.7979 29.8588 63.804 29.8973 63.8015 29.9356V30.8595C63.8051 30.9095 63.7976 30.9597 63.7796 31.0065C63.7615 31.0534 63.7333 31.0957 63.697 31.1306C63.6607 31.1655 63.6171 31.1921 63.5693 31.2086C63.5215 31.225 63.4706 31.2309 63.4203 31.2258H62.4722C61.1975 31.2283 60.6345 30.5386 60.6345 29.4687Z" fill="white"/>
<path d="M71.2907 27.4887V27.8412C71.2907 28.0161 71.217 28.1634 70.9501 28.1634H65.8578C65.8977 28.6227 66.1129 29.0497 66.4595 29.3574C66.8061 29.6651 67.258 29.8305 67.7234 29.8198C68.0572 29.8234 68.3871 29.7478 68.6854 29.5996C68.9348 29.4672 69.1558 29.288 69.3361 29.0722C69.3775 29.0132 69.4406 28.9726 69.5118 28.9589C69.583 28.9453 69.6568 28.9597 69.7174 28.9992L70.7684 29.6436C70.8007 29.6615 70.8286 29.6862 70.8502 29.7158C70.8719 29.7455 70.8867 29.7795 70.8938 29.8155C70.9008 29.8514 70.8998 29.8885 70.8909 29.924C70.882 29.9595 70.8653 29.9927 70.8421 30.0212C70.4972 30.4617 70.0504 30.8135 69.5395 31.0471C68.9583 31.3051 68.3272 31.434 67.6904 31.4247C65.4549 31.4247 63.8854 29.8123 63.8854 27.7166C63.8854 25.6208 65.4549 23.948 67.6459 23.948C69.8369 23.948 71.2907 25.612 71.2907 27.4887ZM67.6637 25.4811C66.8058 25.4811 66.0954 26.0677 65.9022 26.9613H69.4098C69.2332 25.9934 68.4783 25.4811 67.6637 25.4811Z" fill="white"/>
<path d="M55.6425 22.1998C57.0405 22.1998 57.9301 21.3829 58.3418 20.1254L60.7235 12.7771C60.8124 12.5141 60.7235 12.3253 60.4578 12.3253H58.9989C58.9092 12.3236 58.8217 12.3534 58.752 12.4094C58.6822 12.4653 58.6347 12.5439 58.6176 12.6311L57.1574 17.6559L55.6082 12.6311C55.565 12.47 55.4621 12.3253 55.2841 12.3253H54.8038V13.4682C54.8039 14.0242 54.5893 14.5592 54.2039 14.9635L55.6019 19.0706C55.6216 19.1532 55.6688 19.2268 55.7359 19.2795C55.8029 19.3323 55.886 19.3611 55.9717 19.3614H56.6351L56.4648 19.8322C56.3021 20.2702 55.9628 20.576 55.5065 20.576C55.177 20.5675 54.86 20.4491 54.6068 20.24C54.5256 20.1774 54.4263 20.1421 54.3234 20.1393C54.2596 20.1405 54.1971 20.1569 54.1411 20.1872C54.0852 20.2174 54.0374 20.2606 54.0018 20.313L53.5443 20.9423C53.4821 21.0167 53.4493 21.111 53.4521 21.2076C53.4549 21.3042 53.4931 21.3965 53.5596 21.4672C54.0501 21.9229 54.8012 22.1998 55.6425 22.1998Z" fill="white"/>
</g>
<defs>
<clipPath id="clip0_323_4355">
<rect width="94" height="49" fill="white"/>
</clipPath>
</defs>
</svg>
